<?xml version="1.0" encoding="utf-8"?>
<!-- Generator: Adobe Illustrator 22.0.1, SVG Export Plug-In . SVG Version: 6.00 Build 0)  -->
<svg version="1.1" id="Calque_1" xmlns="http://www.w3.org/2000/svg" xmlns:xlink="http://www.w3.org/1999/xlink" x="0px" y="0px"
	 viewBox="0 0 700 700" style="enable-background:new 0 0 700 700;" xml:space="preserve">
<style type="text/css">
	.st0{fill:#FEFEFE;}
	.st1{fill:#8E5236;}
	.st2{fill:#682B10;}
	.st3{fill:#692D12;}
	.st4{fill:#8F5338;}
	.st5{fill:#8D5136;}
	.st6{fill:#BF9170;}
	.st7{fill:#BE9070;}
	.st8{fill:#C69975;}
	.st9{fill:#C79A76;}
	.st10{fill:#C49673;}
	.st11{fill:#BA8A68;}
</style>
<g>
	<g>
		<path class="st0" d="M136.5,476.5c0-95.8,0-191.5,0-287.3c143,0,286,0,429,0c0,95.8,0,191.5,0,287.3
			C422.5,476.5,279.5,476.5,136.5,476.5z M462.5,218.9C462.5,218.9,462.4,218.9,462.5,218.9c-1.5,1.4-2.9,2.7-4.4,4
			c-0.2,0.3-0.4,0.5-0.7,0.8c-9,13.5-17.1,27.3-22.6,42.6c-0.3,0.7-0.7,1.3-1,2c-1.3,3-2.5,6-3.8,9c-0.9,2.4-1.8,4.7-2.7,7.1
			c0,0,0,0,0,0c-0.5,0.3-1,0.6-1.4,0.8c-0.7,0.1-1.5,0.1-2.2,0.2c-18.5,3.7-37.3,6.7-55.6,11.2c-16,4-31.5,9.8-47.2,14.8
			c-2,0.5-4,1-6,1.5c-1.3-8.6-3.5-17.1-3.8-25.7c-0.7-19.5,1-38.7,7.7-57.3c2.4-6.5,3.8-13.4,5-20.2c1-5.5,0.6-5.6-5.2-6
			c-2.3,0.7-6,0.9-6.6,2.3c-2.1,5.1-3.1,10.6-4.6,16c-1.2,6-2.5,12.1-3.7,18.1c-0.5,1-1.1,2-1.6,3.1c-8.7-10.5-17.4-21-26-31.6
			c-2.8-3.5-4.3-3.9-7.2-0.8c-0.3,1.6-1.2,3.5-0.7,4.6c2,4.1,4.6,8,6.9,11.9c4.3,8.5,9.3,16.6,16.3,23.3c2,2.9,4.1,5.7,6,8.7
			c0.7,1.1,1.5,2.5,1.4,3.6c-1.6,13.2-2.7,26.6-5.2,39.7c-3.7,20-12.6,37.5-28.2,51.1c-8.9,7.8-19.6,12.8-30.2,17.6
			c-26,11.7-50.8,25.4-73.1,43.3c-3.4,2.7-5.9,6.2-5.1,10.2c1.5,6.9,4.1,13.5,6.3,20.2c4.5,9,13.4,12.8,22.3,8.8
			c9.5-4.3,19-8.7,28-13.9c26.6-15.3,49.2-35.7,71.1-56.8c10.4-10,20.9-20.1,31.6-29.8c15.5-14.1,34.3-22.8,53.3-30.3
			c22.9-9.1,46.7-16,70.3-23.5c27.4-8.7,55.1-16.8,82.5-25.6c9.5-3.1,18.6-7.7,27.9-11.3c4.2-1.7,4.8-2.2,3.6-6.6
			c-0.3-1.1-0.9-2-1.3-3c-0.3-0.5-0.5-1-0.8-1.5c-0.8-2.5-2.2-2.8-4.4-1.5c-1.4,0.9-3,1.5-4.5,2.3c-0.5,0.2-1,0.5-1.5,0.7
			c-13.3,4.8-26.5,10.1-40,14.2c-15.2,4.6-30.8,8.2-46.2,12.2c-2.3,0.5-4.5,0.9-6.8,1.4c1.9-8.2,2.9-16.7,5.9-24.5
			c4.1-10.6,9.8-20.6,14.8-30.8c2-4.1,1.2-5.8-3.3-7.5C464.7,218.3,463.6,218.6,462.5,218.9z"/>
		<path class="st1" d="M163.4,445.1c-2.1-6.7-4.8-13.3-6.3-20.2c-0.9-4,1.7-7.4,5.1-10.2c22.3-17.9,47.1-31.6,73.1-43.3
			c10.7-4.8,21.3-9.8,30.2-17.6c15.6-13.6,24.5-31.1,28.2-51.1c2.4-13.1,3.6-26.4,5.2-39.7c0.1-1.1-0.7-2.5-1.4-3.6
			c-1.9-3-4-5.8-6-8.7c0-0.6,0.4-1.4,0.1-1.8c-4.4-6.6-8.9-13.1-13.5-19.6c-0.6-0.9-1.9-1.3-2.9-1.9c-2.3-4-4.9-7.8-6.9-11.9
			c-0.6-1.2,0.4-3.1,0.7-4.6c1.3,1.2,2.7,2.2,3.7,3.5c6.1,8.3,12,16.8,18.3,25c3.4,4.4,7.4,8.4,11.1,12.6c0.3-0.2,0.7-0.4,1-0.7
			c-0.3-2.7-0.6-5.4-0.9-8.1c0.5-1,1.1-2,1.6-3.1c0.6-0.9,1.6-1.8,1.8-2.8c1.5-5.6,2.8-11.3,4.2-17c0.2-0.9,0.4-1.8,0.6-2.7
			c-0.2,0-0.3-0.1-0.5-0.1c-0.8,1.5-1.6,3-2.4,4.5c1.4-5.4,2.5-10.9,4.6-16c0.6-1.4,4.3-1.6,6.6-2.3c-0.4,2.2-0.5,4.5-1.3,6.5
			c-6.1,15.5-10,31.6-10.5,48.2c-0.5,15.8,0.7,31.6,1.4,47.4c0.2,3.8,1.7,7.5,2.7,11.3c0.4,0,0.7,0.1,1.1,0.1
			c0.9-1.4,1.8-2.8,2.8-4.2c2-0.5,4-1,6-1.5c-0.7,1.8-1.3,3.7-2,5.5c0.2,0.3,0.4,0.5,0.6,0.8c2-1.1,3.9-2.2,5.9-3.3
			c0-0.3,0-0.5,0-0.8l0,0c0.5-0.3,1-0.5,1.5-0.8l0,0c2.3-0.7,4.7-1.6,7-2.2c16.9-4.8,33.7-9.8,50.7-14.2c9.6-2.4,19.5-3.6,29.3-5.4
			c2.1-0.1,4.3-0.1,6.4-0.3c0.6-0.1,1.2-0.8,1.5-1.4c0.7-1.3,1.2-2.7,1.8-4.1c0.7-0.1,1.5-0.1,2.2-0.2c0.5-0.3,1-0.6,1.4-0.8
			c0,0,0,0,0,0c5.4-0.7,7.2-3.2,6.6-9.3c2.1-5,4.3-10.1,6.4-15.1c1.7-4.1,3.4-8.2,5.1-12.3l0,0c0.3-0.5,0.5-1,0.8-1.5c0,0,0,0,0,0
			c0.3-0.5,0.5-1,0.8-1.5c0,0,0,0,0,0c0.3-0.5,0.5-1,0.8-1.5c0,0,0,0,0,0c0.3-0.3,0.5-0.5,0.8-0.8c0,0,0,0,0,0l0.4,0
			c0,0,0.4,0,0.4,0c1.5-2.5,2.8-5.1,4.5-7.3c2.7-3.4,3.9-7.1,3.7-11.4c0.2-0.3,0.4-0.5,0.7-0.8c2.6-0.1,4.4-1.1,4.3-4
			c0,0,0.1,0,0.1,0c0.8,0.1,1.7,0.2,2.5,0.3c-0.2,0.6-0.4,1.2-0.7,1.7c-7.8,11.7-14.2,24-19,37.2c-2.5,6.8-4.3,14-6.1,21.1
			c-0.9,3.5,1.6,5.2,4.8,3.7c1.5-0.7,2.9-1.5,4.3-2.2c2.3-0.5,4.5-0.9,6.8-1.4c1.9,3.7,4.8,4.6,9.8,3.2c5.1-1.4,10.3-2.6,15.4-4.2
			c10.9-3.3,21.7-6.7,32.5-10.1c1.1-0.4,2-1.6,3-2.4c1.5-0.5,3-1,4.5-1.6c0,0.7,0,1.5,0,2.2c-16.6,7.9-34,13.5-51.7,17.9
			c-19.5,4.9-39.2,9-58.7,13.9c-8.2,2-16,5.6-24.1,7.8c-24.8,6.5-47.3,17.7-68.4,32c-20.1,13.7-38.2,29.9-56.2,46.2
			c-12.5,11.3-24.7,22.8-37.6,33.6c-13.7,11.5-29,20.3-46.6,24.3C172.6,443.3,168,444.2,163.4,445.1z M162,421.8
			c0.2-0.3,0.5-0.6,0.7-0.9c-0.2-0.1-0.3-0.2-0.5-0.3C162.2,421,162.1,421.4,162,421.8c-0.2,0.1-0.3,0.2-0.4,0.3c0.1,0,0.2,0,0.2,0
			C161.9,422,162,421.9,162,421.8z M285.2,337.9c0.2-0.5,0.4-1.1,0.6-1.6c0.1-0.4,0.3-0.7,0.4-1.1c-0.1,0-0.2-0.1-0.3-0.1
			c-0.1,0.3-0.2,0.7-0.2,1c-0.3,0.5-0.5,1-0.8,1.5c-0.3,0.5-0.5,1-0.8,1.4c-6.4,8.7-13.9,16.4-23.4,21.7
			c-21.6,12-43.4,23.6-64.8,35.9c-10.1,5.8-19.7,12.7-29.4,19.2c-1.3,0.9-2.2,2.4-3.3,3.6c0.3,0.3,0.6,0.5,0.9,0.8
			c2.9-2.1,5.8-4.2,8.8-6.2c19.2-13.1,39.9-23.6,60.6-34.1c15.1-7.7,29.5-16.4,41.8-28c3.7-3.5,6.1-8.3,9.2-12.5
			C284.7,338.9,285,338.4,285.2,337.9z M287.1,333.2c-0.1-0.1-0.1-0.2-0.2-0.3c-0.1,0.2-0.2,0.4-0.3,0.5c0,0.1,0.1,0.2,0.2,0.3
			C286.9,333.5,287,333.4,287.1,333.2z"/>
		<path class="st2" d="M163.4,445.1c4.6-0.9,9.2-1.7,13.7-2.8c17.6-4,32.9-12.9,46.6-24.3c12.9-10.8,25.1-22.3,37.6-33.6
			c18-16.3,36-32.5,56.2-46.2c21.1-14.3,43.6-25.5,68.4-32c8.2-2.1,16-5.7,24.1-7.8c19.5-4.9,39.2-9,58.7-13.9
			c17.8-4.4,35.2-10,51.7-17.9c1-0.5,2-0.9,3.1-1.4c1-0.5,2-1,3.1-1.5l0.3,0l0.3,0c1.4-0.5,2.9-0.9,4.2-1.4c7.1-3,14.2-6.1,21.2-9.1
			c0.5,1,1,2,1.3,3c1.2,4.4,0.7,4.9-3.6,6.6c-9.3,3.7-18.4,8.3-27.9,11.3c-27.4,8.8-55,16.9-82.5,25.6
			c-23.5,7.5-47.3,14.4-70.3,23.5c-19,7.5-37.8,16.3-53.3,30.3c-10.7,9.7-21.2,19.7-31.6,29.8c-22,21.1-44.6,41.5-71.1,56.8
			c-9,5.2-18.5,9.6-28,13.9C176.9,457.9,167.9,454.1,163.4,445.1z"/>
		<path class="st3" d="M315,313.1c-0.9,1.4-1.8,2.8-2.8,4.2c-0.4,0-0.7-0.1-1.1-0.1c-0.9-3.8-2.5-7.5-2.7-11.3
			c-0.8-15.8-1.9-31.6-1.4-47.4c0.5-16.6,4.4-32.7,10.5-48.2c0.8-2,0.9-4.3,1.3-6.5c5.8,0.4,6.2,0.5,5.2,6c-1.2,6.8-2.7,13.7-5,20.2
			c-6.8,18.6-8.4,37.9-7.7,57.3C311.5,295.9,313.7,304.5,315,313.1z"/>
		<path class="st2" d="M448.4,280.8c-1.4,0.7-2.9,1.5-4.3,2.2c-3.3,1.4-5.7-0.2-4.8-3.7c1.7-7.1,3.6-14.2,6.1-21.1
			c4.8-13.1,11.3-25.5,19-37.2c0.3-0.5,0.5-1.1,0.7-1.7c0.3-0.4,0.5-0.8,0.8-1.3c4.5,1.6,5.3,3.3,3.3,7.5
			c-5,10.3-10.6,20.2-14.8,30.8C451.3,264,450.3,272.6,448.4,280.8z"/>
		<path class="st1" d="M527.2,263.5l-0.3,0c0,0-0.3,0-0.3,0c-0.6-0.3-1.1-0.6-1.7-0.9c0-0.2,0-0.4,0.1-0.6c0.3-0.1,0.7-0.2,1-0.3
			c-0.1-0.2-0.2-0.3-0.3-0.5c-0.3,0.2-0.6,0.5-0.8,0.7c-0.7,0.3-1.5,0.5-2.2,0.8c0,0,0,0,0,0c-1.6,0.3-3.2,0.5-4.7,1
			c-8,2.5-15.9,5.1-23.8,7.7c-2.1,0.7-4.2,1.3-6.3,1.9c0.1,0.3,0.2,0.7,0.4,1c9.2-2.8,18.5-5.7,27.7-8.5c-1,0.8-1.8,2.1-3,2.4
			c-10.8,3.5-21.7,6.9-32.5,10.1c-5.1,1.5-10.3,2.8-15.4,4.2c-5,1.4-7.9,0.4-9.8-3.2c15.4-4,31-7.6,46.2-12.2
			c13.5-4.1,26.7-9.4,40-14.2c-1.2,1-2.3,2.1-3.6,3C534.4,258.5,530.8,261,527.2,263.5z M486.3,274.7c-0.1-0.3-0.2-0.6-0.3-0.9
			c-1.1,0.3-2.2,0.7-3.3,1c0.1,0.3,0.2,0.5,0.3,0.8C484.1,275.3,485.2,275,486.3,274.7z M478.8,277c-0.1-0.3-0.2-0.6-0.3-0.9
			c-1.1,0.3-2.1,0.7-3.2,1c0.1,0.3,0.2,0.5,0.3,0.8C476.6,277.6,477.7,277.3,478.8,277z M467.3,279.9c0-0.2,0-0.4,0-0.6
			c-0.5,0.1-1.1,0.1-1.6,0.2c0,0.1,0,0.2,0,0.3C466.2,279.9,466.8,279.9,467.3,279.9z M472.2,278c0,0.2,0.1,0.3,0.1,0.5
			c0.4-0.1,0.7-0.2,1.1-0.2c0-0.1-0.1-0.3-0.1-0.4C473,277.9,472.6,277.9,472.2,278z M470.4,279.1c0-0.1,0.1-0.3,0.1-0.4
			c-0.3,0-0.6-0.1-0.9-0.1c0,0-0.1,0.3-0.1,0.5C469.8,279.1,470.1,279.1,470.4,279.1z M480.9,276.1c0.1-0.1,0.2-0.2,0.3-0.2
			c-0.2-0.1-0.4-0.2-0.6-0.3c-0.1,0-0.2,0.1-0.3,0.2C480.5,275.9,480.7,276,480.9,276.1z"/>
		<path class="st4" d="M423.8,285.5c-0.6,1.4-1.1,2.8-1.8,4.1c-0.3,0.6-1,1.3-1.5,1.4c-2.1,0.2-4.3,0.2-6.4,0.3
			c-4.2,0.1-8.6-0.4-12.7,0.4c-16.3,3.4-32.5,7-48.7,11c-9,2.2-18,4.7-25.7,10.3c0,0,0,0,0,0c-0.5,0.3-1,0.5-1.5,0.8c0,0,0,0,0,0
			c-0.6,0.1-1.1,0.2-1.7,0.3c0,0.1,0,0.3,0,0.4c0.6,0,1.1,0.1,1.7,0.1c-2,1.1-3.9,2.2-5.9,3.3c-0.2-0.3-0.4-0.5-0.6-0.8
			c0.7-1.8,1.3-3.7,2-5.5c15.7-5,31.2-10.8,47.2-14.8C386.5,292.1,405.2,289.1,423.8,285.5z"/>
		<path class="st2" d="M302.2,243.4c0.3,2.7,0.6,5.4,0.9,8.1c-0.3,0.2-0.7,0.4-1,0.7c-3.7-4.2-7.7-8.2-11.1-12.6
			c-6.3-8.2-12.1-16.7-18.3-25c-1-1.4-2.5-2.4-3.7-3.5c2.9-3.1,4.4-2.6,7.2,0.8C284.8,222.4,293.5,232.8,302.2,243.4z"/>
		<path class="st5" d="M457.5,223.8c0.2,4.3-1,8-3.7,11.4c-1.8,2.2-3.1,4.9-4.5,7.3c-0.1-0.3-0.2-0.7-0.2-1
			c-0.2,0.4-0.3,0.7-0.5,1.1c0,0,0,0,0,0c-0.3,0.3-0.5,0.5-0.8,0.8c0,0,0,0,0,0c-0.3,0.5-0.5,1-0.8,1.5c0,0,0,0,0,0
			c-0.3,0.5-0.5,1-0.8,1.5c0,0,0,0,0,0c-0.3,0.5-0.5,1-0.8,1.5c0,0,0,0,0,0c-2.5,4.6-5,9.3-7.5,13.9c-0.9,1.7-2,3.2-3,4.9l-0.1-0.1
			C440.4,251.1,448.5,237.2,457.5,223.8z"/>
		<path class="st1" d="M527.2,263.5c3.5-2.5,7.1-5,10.6-7.6c1.3-0.9,2.4-2,3.6-3c0.5-0.2,1-0.5,1.5-0.7c0.9,0.3,1.8,0.8,2.6,0.7
			c2.1-0.3,4.2-1,6.3-1.5c0.3,0.5,0.5,1,0.8,1.5c-7.1,3-14.2,6.1-21.2,9.1C530.1,262.7,528.7,263.1,527.2,263.5z"/>
		<path class="st6" d="M275.3,227.5c1,0.6,2.3,1,2.9,1.9c4.6,6.5,9.1,13,13.5,19.6c0.3,0.4-0.1,1.2-0.1,1.8
			C284.5,244.1,279.6,236,275.3,227.5z"/>
		<path class="st7" d="M307.6,222.2c0.8-1.5,1.6-3,2.4-4.5c0.2,0,0.3,0.1,0.5,0.1c-0.2,0.9-0.4,1.8-0.6,2.7
			c-1.4,5.7-2.7,11.3-4.2,17c-0.3,1-1.2,1.9-1.8,2.8C305.1,234.3,306.4,228.2,307.6,222.2z"/>
		<path class="st5" d="M434,275.1c0.6,6.1-1.2,8.6-6.6,9.3c0.9-2.4,1.8-4.7,2.7-7.1c0.3,0.2,0.5,0.5,0.8,0.7c0.1,0.3,0.3,0.7,0.4,1
			c0.2-0.4,0.5-0.9,0.7-1.3c0,0,0,0,0,0C432.7,276.9,433.3,276,434,275.1z"/>
		<path class="st1" d="M551.9,251.5c-2.1,0.5-4.2,1.1-6.3,1.5c-0.8,0.1-1.7-0.5-2.6-0.7c1.5-0.8,3.1-1.4,4.5-2.3
			C549.7,248.7,551.1,249,551.9,251.5z"/>
		<path class="st5" d="M430.1,277.4c1.3-3,2.5-6,3.8-9c0.2,0.1,0.3,0.3,0.5,0.4c-0.8,3-1.6,6-2.3,9c0,0,0,0,0,0
			c-0.4,0.1-0.8,0.2-1.2,0.3C430.6,277.8,430.3,277.6,430.1,277.4z"/>
		<path class="st5" d="M462.4,218.9c0.1,3-1.7,3.9-4.3,4C459.6,221.6,461,220.3,462.4,218.9z"/>
		<path class="st5" d="M465.8,218c-0.3,0.4-0.5,0.8-0.8,1.3c-0.8-0.1-1.7-0.2-2.5-0.3C463.6,218.6,464.7,218.3,465.8,218z"/>
		<path class="st5" d="M427.4,284.4c-0.5,0.3-1,0.6-1.4,0.8C426.5,285,427,284.7,427.4,284.4z"/>
		<path class="st5" d="M433.9,268.4c0.3-0.7,0.7-1.3,1-2c0,0,0.1,0.1,0.1,0.1c-0.2,0.8-0.4,1.5-0.6,2.3
			C434.2,268.7,434,268.5,433.9,268.4z"/>
		<path class="st8" d="M284.5,339.5c-3,4.2-5.5,9-9.2,12.5c-12.4,11.6-26.8,20.3-41.8,28c-20.7,10.5-41.4,21-60.6,34.1
			c-3,2-5.9,4.1-8.8,6.2c-0.3-0.3-0.6-0.5-0.9-0.8c1.1-1.2,2-2.7,3.3-3.6c9.7-6.5,19.3-13.4,29.4-19.2
			c21.4-12.3,43.2-23.9,64.8-35.9c9.5-5.3,17-13,23.4-21.7C284.2,339.2,284.3,339.3,284.5,339.5z"/>
		<path class="st8" d="M327,313c7.7-5.7,16.7-8.1,25.7-10.3c16.2-4,32.4-7.6,48.7-11c4.1-0.9,8.4-0.3,12.7-0.4
			c-9.8,1.8-19.7,2.9-29.3,5.4c-17,4.3-33.8,9.4-50.7,14.2C331.7,311.5,329.3,312.3,327,313z"/>
		<path class="st9" d="M434.3,268.8c0.2-0.8,0.4-1.5,0.6-2.3c1-1.6,2.1-3.2,3-4.9c2.5-4.6,5-9.3,7.5-13.9c-1.7,4.1-3.4,8.2-5.1,12.3
			c-2.1,5-4.2,10.1-6.4,15.1c-0.7,0.9-1.4,1.8-2,2.6C432.8,274.8,433.6,271.8,434.3,268.8z"/>
		<path class="st10" d="M516,265.8c-9.2,2.8-18.5,5.7-27.7,8.5c-0.1-0.3-0.2-0.7-0.4-1c2.1-0.6,4.2-1.3,6.3-1.9
			c7.9-2.6,15.9-5.2,23.8-7.7c1.5-0.5,3.1-0.6,4.7-1c0,0.2,0,0.5,0,0.7c-0.7,0.3-1.5,0.5-2.2,0.8C519,264.8,517.5,265.3,516,265.8z"
			/>
		<path class="st1" d="M520.5,264.3c0.7-0.3,1.5-0.5,2.2-0.8c0.3,0.5,0.5,1.1,0.8,1.6c-1,0.5-2,0.9-3.1,1.4
			C520.5,265.8,520.5,265,520.5,264.3z"/>
		<path class="st8" d="M325.5,314.6c-0.6,0-1.1-0.1-1.7-0.1c0-0.1,0-0.3,0-0.4c0.6-0.1,1.1-0.2,1.7-0.3
			C325.5,314,325.5,314.3,325.5,314.6z"/>
		<path class="st9" d="M448.5,242.5c0.2-0.4,0.3-0.7,0.5-1.1c0.1,0.3,0.2,0.7,0.2,1c0,0-0.4,0-0.4,0S448.5,242.5,448.5,242.5z"/>
		<path class="st9" d="M447,244.8c0.3-0.5,0.5-1,0.8-1.5C447.5,243.7,447.2,244.3,447,244.8z"/>
		<path class="st9" d="M446.2,246.3c0.3-0.5,0.5-1,0.8-1.5C446.8,245.2,446.5,245.8,446.2,246.3z"/>
		<path class="st9" d="M445.5,247.8c0.3-0.5,0.5-1,0.8-1.5C446,246.7,445.7,247.3,445.5,247.8z"/>
		<path class="st8" d="M325.5,313.8c0.5-0.3,1-0.5,1.5-0.8C326.5,313.2,326,313.5,325.5,313.8z"/>
		<path class="st8" d="M287.1,333.2c-0.1,0.2-0.2,0.4-0.3,0.5c-0.1-0.1-0.2-0.2-0.2-0.3c0.1-0.2,0.2-0.4,0.3-0.5
			C287,333,287.1,333.1,287.1,333.2z"/>
		<path class="st8" d="M285.7,336.2c0.1-0.3,0.2-0.7,0.2-1c0.1,0,0.2,0.1,0.3,0.1c-0.1,0.4-0.3,0.7-0.4,1.1
			C285.9,336.3,285.7,336.2,285.7,336.2z"/>
		<path class="st8" d="M284.9,337.7c0.3-0.5,0.5-1,0.8-1.5c0,0,0.2,0.2,0.2,0.2c-0.2,0.5-0.4,1.1-0.6,1.6
			C285.1,337.8,285,337.7,284.9,337.7z"/>
		<path class="st8" d="M284.1,339.1c0.3-0.5,0.5-1,0.8-1.4c0.1,0.1,0.2,0.2,0.3,0.3c-0.2,0.5-0.5,1-0.7,1.5
			C284.3,339.3,284.2,339.2,284.1,339.1z"/>
		<path class="st8" d="M162,421.7c0.1-0.4,0.2-0.7,0.3-1.1c0.2,0.1,0.3,0.2,0.5,0.3C162.5,421.2,162.3,421.5,162,421.7
			C162,421.8,162,421.7,162,421.7z"/>
		<path class="st9" d="M447.7,243.3c0.3-0.3,0.5-0.5,0.8-0.8C448.3,242.7,448,243,447.7,243.3z"/>
		<path class="st8" d="M162,421.8c-0.1,0.1-0.1,0.2-0.2,0.3c0,0-0.2,0-0.2,0C161.7,421.9,161.8,421.8,162,421.8
			C162,421.7,162,421.8,162,421.8z"/>
		<path class="st1" d="M523.6,265.1c-0.3-0.5-0.5-1.1-0.8-1.6c0-0.2,0.1-0.5,0-0.7c0,0,0,0,0,0c0.7,0,1.5-0.1,2.2-0.1
			c0.6,0.3,1.1,0.6,1.7,0.9C525.6,264.1,524.6,264.6,523.6,265.1z"/>
		<path class="st10" d="M486.3,274.7c-1.1,0.3-2.2,0.6-3.3,1c-0.1-0.3-0.2-0.5-0.3-0.8c1.1-0.3,2.2-0.7,3.3-1
			C486.1,274.1,486.2,274.4,486.3,274.7z"/>
		<path class="st11" d="M478.8,277c-1.1,0.3-2.2,0.6-3.3,0.9c-0.1-0.3-0.2-0.5-0.3-0.8c1.1-0.3,2.1-0.7,3.2-1
			C478.6,276.4,478.7,276.7,478.8,277z"/>
		<path class="st11" d="M467.3,279.9c-0.5,0-1.1,0-1.6,0c0-0.1,0-0.2,0-0.3c0.5-0.1,1.1-0.1,1.6-0.2
			C467.3,279.5,467.3,279.7,467.3,279.9z"/>
		<path class="st11" d="M472.2,278c0.4-0.1,0.7-0.1,1.1-0.2c0,0.1,0.1,0.3,0.1,0.4c-0.4,0.1-0.7,0.2-1.1,0.2
			C472.3,278.3,472.3,278.1,472.2,278z"/>
		<path class="st11" d="M470.4,279.1c-0.3,0-0.6,0-0.9,0c0-0.2,0.1-0.5,0.1-0.5c0.3,0,0.6,0.1,0.9,0.1
			C470.4,278.8,470.4,279,470.4,279.1z"/>
		<path class="st10" d="M525,262.6c-0.7,0-1.5,0.1-2.2,0.1c0.7-0.3,1.5-0.5,2.2-0.8c0,0,0,0,0,0C525,262.2,525,262.4,525,262.6z"/>
		<path class="st10" d="M525,262c0.3-0.2,0.6-0.5,0.8-0.7c0.1,0.2,0.2,0.3,0.3,0.5C525.7,261.8,525.4,261.9,525,262
			C525,262,525,262,525,262z"/>
		<path class="st11" d="M480.9,276.1c-0.2-0.1-0.4-0.2-0.6-0.3c0.1-0.1,0.2-0.2,0.3-0.2c0.2,0.1,0.4,0.2,0.6,0.3
			C481.1,276,481,276.1,480.9,276.1z"/>
		<path class="st9" d="M430.9,278.1c0.4-0.1,0.8-0.2,1.2-0.3c-0.2,0.4-0.5,0.9-0.7,1.3C431.1,278.7,431,278.4,430.9,278.1z"/>
	</g>
</g>
</svg>
