<?xml version="1.0" encoding="utf-8"?>
<!-- Generator: Adobe Illustrator 22.0.1, SVG Export Plug-In . SVG Version: 6.00 Build 0)  -->
<svg version="1.1" id="Calque_1" xmlns="http://www.w3.org/2000/svg" xmlns:xlink="http://www.w3.org/1999/xlink" x="0px" y="0px"
	 viewBox="0 0 700 700" style="enable-background:new 0 0 700 700;" xml:space="preserve">
<style type="text/css">
	.st0{fill:#FEFEFE;}
	.st1{fill:#682B10;}
</style>
<g>
	<g>
		<path class="st0" d="M176.3,668.5c0-212,0-424,0-636c116.5,0,233,0,349.5,0c0,212,0,424,0,636
			C409.3,668.5,292.8,668.5,176.3,668.5z M319.5,162.8c-4.3-2.4-8.1-4.1-11.4-6.4c-19.7-14.4-37.8-30.7-53-49.9
			C246,95,237.3,83.1,228,71.7c-4.1-5.1-9.3-9.3-14.1-13.8c-2.1-1.9-4.3-1.1-6.4,0.6c-2.2,1.8-1.7,3.5-0.5,5.5
			c6.4,10.2,12,21.1,19.4,30.5c11.8,14.9,25.2,28.4,37.3,43c17,20.7,37.1,37.1,61.6,48.2c11.9,5.3,21.7,13.6,30,23.7
			c5.5,6.6,11,13.3,17,19.4c6.6,6.6,13.7,12.8,20.8,18.8c12.3,10.4,22.3,22.6,28.3,37.5c8.6,21.1,16.6,42.5,24.7,63.8
			c6.6,17.3,12.8,34.7,17.7,52.6c5,18.5,8.6,37,8.7,56.1c0.1,26.8-0.4,53.7-0.7,80.5c-0.2,16.8,0.3,33.6,2.8,50.2
			c0.9,5.7,1.3,11.6,1.3,17.4c0,10.6-2.5,20.8-5.2,30.9c-0.3,1.1-0.2,2.4,0.2,3.5c5.8,14.3,19.2,18.1,31.3,8.6
			c1.3-1,2.3-3.2,2.5-4.9c1.1-11.8,1.9-23.6,2.9-35.4c1.3-15,1.5-29.9-1-44.8c-2.3-13.9-4.7-27.8-6-41.8c-1.1-12.4-0.9-25-0.9-37.4
			c0-3.5,0.8-7.2,2.1-10.5c1.4-3.5,1.5-6.9-0.1-9.8c-3.5-5.9-2.4-12.3-1.9-18.2c0.6-7.6,0.8-15.1-1.4-22.3
			c-7-22.8-14.1-45.6-21.7-68.2c-8.4-25-23.2-46.7-35.8-69.5c-14-25.4-22.7-52.1-23.8-81.2c-0.5-12.7,2-24.8,5-36.9
			c5.3-21.6,11.2-43.1,20-63.6c2.4-5.5,3.2-11.5,1.9-17.5c-0.6-2.7-2.1-4.9-5.3-4.9c-3.1,0-3.6,2.3-4.3,4.7
			c-4.5,14.6-8.7,29.3-13.7,43.7c-4.9,14.1-11.2,27.7-11.5,43.1c0,0.7-0.5,1.5-1.2,3.2c-0.7-1.8-1.1-2.6-1.3-3.4
			c-3.4-15-7-30.1-10.2-45.1c-4.1-19.2-6.7-38.5-5-58.3c0.5-5.9-0.1-12-0.6-17.9c-0.4-4-1.7-7.9-6.2-10.3c-1,2.2-2.4,4-2.6,6
			c-0.7,5.8-1.5,11.6-1.4,17.4c0.4,17.6,1,35.2,2.1,52.8c0.8,12.3,2.4,24.6,4.1,36.8c2.3,16.1,8.4,31.6,8.3,48.1
			c0,6.5,1.1,12.9,1.7,19.4c0.2,2.2,0.5,4.5,0.9,7.5c-1.2-1.1-1.6-1.5-2-1.9c-14.8-15.4-29.5-30.9-44.4-46.2
			c-10.4-10.8-18.4-23-23-37.5c-8.5-26.9-14.4-54.3-18.6-82.2c-0.8-5.2-1.5-10.4-3.1-15.4c-1.7-5.5-5.9-7.5-11.8-5.8
			c1.6,20.6,2.6,41.4,5.1,62.1C302.5,123.6,312,142.5,319.5,162.8z"/>
		<path class="st1" d="M319.5,162.8c-7.5-20.4-17.1-39.2-19.6-60.1c-2.5-20.7-3.5-41.5-5.1-62.1c6-1.6,10.2,0.4,11.8,5.8
			c1.5,5,2.3,10.2,3.1,15.4c4.2,27.8,10,55.3,18.6,82.2c4.6,14.5,12.6,26.7,23,37.5c14.8,15.4,29.6,30.8,44.4,46.2
			c0.4,0.4,0.9,0.8,2,1.9c-0.4-3.1-0.7-5.3-0.9-7.5c-0.6-6.5-1.8-12.9-1.7-19.4c0.1-16.6-6-32-8.3-48.1c-1.7-12.2-3.3-24.5-4.1-36.8
			c-1.2-17.6-1.7-35.2-2.1-52.8c-0.1-5.8,0.7-11.6,1.4-17.4c0.2-2,1.6-3.8,2.6-6c4.5,2.4,5.8,6.3,6.2,10.3c0.5,6,1.1,12,0.6,17.9
			c-1.6,19.8,0.9,39.1,5,58.3c3.2,15.1,6.8,30.1,10.2,45.1c0.2,0.9,0.6,1.7,1.3,3.4c0.7-1.7,1.2-2.4,1.2-3.2
			c0.2-15.3,6.5-29,11.5-43.1c5-14.4,9.2-29.1,13.7-43.7c0.7-2.3,1.2-4.7,4.3-4.7c3.2,0,4.7,2.2,5.3,4.9c1.3,6,0.5,12-1.9,17.5
			c-8.8,20.5-14.6,42-20,63.6c-3,12.1-5.5,24.3-5,36.9c1.1,29.1,9.8,55.8,23.8,81.2c12.6,22.8,27.4,44.6,35.8,69.5
			c7.6,22.6,14.7,45.4,21.7,68.2c2.2,7.2,2,14.7,1.4,22.3c-0.5,5.9-1.5,12.3,1.9,18.2c1.7,2.8,1.5,6.3,0.1,9.8
			c-1.3,3.3-2.1,7-2.1,10.5c0,12.5-0.2,25,0.9,37.4c1.3,14,3.6,27.9,6,41.8c2.5,14.9,2.3,29.8,1,44.8c-1,11.8-1.8,23.6-2.9,35.4
			c-0.2,1.7-1.2,3.8-2.5,4.9c-12,9.5-25.4,5.8-31.3-8.6c-0.4-1-0.5-2.4-0.2-3.5c2.7-10.1,5.2-20.4,5.2-30.9c0-5.8-0.4-11.7-1.3-17.4
			c-2.6-16.7-3.1-33.4-2.8-50.2c0.3-26.8,0.8-53.7,0.7-80.5c0-19.1-3.7-37.6-8.7-56.1c-4.8-18-11.1-35.3-17.7-52.6
			c-8.1-21.3-16.1-42.7-24.7-63.8c-6.1-14.9-16-27.2-28.3-37.5c-7.2-6-14.3-12.2-20.8-18.8c-6.1-6.1-11.5-12.8-17-19.4
			c-8.3-10.1-18.1-18.3-30-23.7c-24.5-11-44.6-27.5-61.6-48.2c-12-14.7-25.5-28.2-37.3-43c-7.5-9.4-13-20.3-19.4-30.5
			c-1.2-1.9-1.8-3.7,0.5-5.5c2.1-1.7,4.4-2.4,6.4-0.6c4.9,4.4,10,8.7,14.1,13.8c9.3,11.4,18,23.3,27.1,34.8
			c15.2,19.2,33.3,35.5,53,49.9C311.4,158.8,315.2,160.4,319.5,162.8z"/>
	</g>
</g>
</svg>
