<?xml version="1.0" encoding="utf-8"?>
<!-- Generator: Adobe Illustrator 22.0.1, SVG Export Plug-In . SVG Version: 6.00 Build 0)  -->
<svg version="1.1" id="Calque_1" xmlns="http://www.w3.org/2000/svg" xmlns:xlink="http://www.w3.org/1999/xlink" x="0px" y="0px"
	 viewBox="0 0 700 700" style="enable-background:new 0 0 700 700;" xml:space="preserve">
<style type="text/css">
	.st0{fill:#FEFEFE;}
	.st1{fill:#682B0F;}
	.st2{fill:#8E5236;}
	.st3{fill:#8E5237;}
	.st4{fill:#8D5035;}
	.st5{fill:#682B10;}
	.st6{fill:#682C10;}
	.st7{fill:#8F5236;}
	.st8{fill:#C2A394;}
	.st9{fill:#DAC9BF;}
	.st10{fill:#BCA092;}
	.st11{fill:#A98472;}
	.st12{fill:#D0B8AC;}
	.st13{fill:#CEB4A9;}
	.st14{fill:#C59975;}
	.st15{fill:#C59974;}
	.st16{fill:#C69975;}
	.st17{fill:#C69A76;}
	.st18{fill:#C39672;}
	.st19{fill:#BA8A68;}
	.st20{fill:#A97555;}
</style>
<g>
	<g>
		<path class="st0" d="M506.6,701.5c-108.7,0-217.3,0-326,0c0-234.1,0-468.3,0-702.4c108.7,0,217.3,0,326,0
			C506.6,233.2,506.6,467.4,506.6,701.5z M295.1,236.1c1,1.2,2,2.5,3.1,3.7c2.6,3.1,5.3,6.2,7.9,9.3c1.8,2.1,3.6,4.3,5.3,6.5
			c1.5,1.8,3.3,3.4,4.6,5.4c2,3.3,2.7,7.1,3.6,10.7c0.8,3.1,1.7,6.2,2.3,9.4c0.4,2.1,0.3,4.4,0.4,6.6c-0.5-0.2-0.9-0.4-1.4-0.5
			c-1.8-0.2-3.7-0.4-5.5-0.6c-1.3-0.2-2.5-0.3-3.8-0.6c-1.9-0.4-3.7-0.9-5.6-1.3c-3.1-0.6-6.2-0.8-9-2.4c-1.4-0.8-3.1-1.2-4.8-1.7
			c-2.1-0.6-3.9-1.8-5.4-3.3c-2-2-3.8-4.2-5.6-6.4c-1.4-1.8-2.7-3.7-4-5.6c-0.8-1.2-1.5-2.6-2.3-3.9c-0.5-0.9-1.2-1.8-1.5-2.7
			c-0.9-3.1-1.6-6.2-2.3-9.4c-0.2-0.7-0.4-1.5-0.6-2.2c-0.4-1.1-0.9-2.1-1.2-3.2c-0.3-1.2-0.4-2.5-0.7-3.7c-0.7-2.6-1.3-5.2-2.1-7.8
			c-0.8-2.5-1.7-5.1-2.8-7.5c-1.1-2.3-2.5-4.5-3.9-6.6c-0.9-1.4-1.9-3.1-3.2-4c-1.7-1.2-1.9-2.8-2.4-4.4c-0.7-2.5-1.2-5.1-1.8-7.6
			c-0.6-2.6-1.3-5.2-1.9-7.8c-0.2-1-0.4-2.1-0.6-3.2c-0.5-2-1-4.1-1.6-6.1c-0.6-2-1.1-4.2-2.1-6c-1.1-2.1-2.7-4-3.9-6
			c-0.6-0.9-1.2-1.4-2.2-1.4c-0.4-0.1-0.8-0.3-1.1-0.2c-1.1,0.5-1.7,2.4-1.2,3.7c0.6,1.5,1.2,3,1.6,4.6c1,3.7,1.8,7.4,2.8,11.1
			c0.5,2,1.2,4,1.7,6c0.5,2,0.9,4.1,1.3,6.1c-1-1-2.1-1.9-3-2.9c-1.1-1.2-1.9-2.7-3-3.9c-1.7-1.8-3.5-3.3-5.2-5c-1-1-1.8-2-2.8-3
			c-1.8-1.8-3.7-3.6-5.5-5.4c-1-0.9-1.9-1.9-2.8-2.9c-0.7-0.7-1.4-1.3-2-2.1c-1-1.2-2.5-2-3-3.6c-0.2-0.6-1.2-1-1.5-1.6
			c-1.2-2.5-3.5-3.5-5.9-4.2c-1-0.3-2.5,0.5-3,1.5c-0.2,0.1-0.4,0.1-0.4,0.2c-0.8,2.3-1.5,4.6,0.1,6.9c0.8,1.1,1.4,2.4,2.3,3.4
			c2.1,2.2,4.5,4.2,6.7,6.4c2.9,2.9,5.6,6,8.5,9c2,2,4.1,3.8,6.2,5.7c2,1.8,4.2,3.6,6.1,5.5c2,2.1,3.9,4.4,5.7,6.6
			c1.8,2.2,4,4.2,4.9,7c0.4,1,0.4,2.3,1,3.1c0.9,1.2,1.1,2.5,1.2,3.9c0.2,1.3,0.4,2.6,0.6,3.9c0.5,2.5,1,5.1,1.5,7.6
			c0.4,1.8,0.8,3.7,1.2,5.5c0.2,0.8,0.3,1.6,0.6,2.3c0.4,1,0.9,1.9,1.2,2.9c0.7,2.2,1.3,4.4,1.9,6.6c0.5,1.6,0.9,3.2,1.4,4.8
			c-0.2-0.1-0.4-0.1-0.5-0.2c-1.1-1.1-2-2.4-3.2-3.3c-3.2-2.5-6.5-5-9.8-7.4c-1.2-0.9-2.4-1.6-3.6-2.4c-1.7-1.1-3.5-2.1-5.2-3.2
			c-2.2-1.4-4.4-2.6-6.4-4.2c-2.2-1.7-4-3.8-6.1-5.6c-0.7-0.6-1.8-0.9-2.3-1.7c-1.5-2.2-4.1-2.8-6.1-4.2c-0.7-0.5-1.9-0.3-2.8-0.7
			c-1.4-0.6-2.5,0.2-3.7,0.5c-1.6,0.4-2,2-2.7,3.2c-0.3,1.3,0.4,2.3,1.3,3.1c1.9,1.8,4.6,1.9,6.8,3c1.6,0.8,3.3,1.4,4.7,2.5
			c1.9,1.4,3.5,3.1,5.2,4.6c2.4,2.2,4.9,4.4,7.3,6.6c1.8,1.7,3.6,3.5,5.5,5.2c1.8,1.6,3.7,3.1,5.5,4.6c0.5,0.4,1,0.7,1.4,1
			c1.9,1.5,3.8,3.1,5.7,4.6c0.9,0.7,1.9,1.3,2.7,2.1c1.7,1.6,3.4,3.3,5.1,4.9c0.9,0.8,2,1.5,3,2.3c1.8,1.5,3.4,3.2,5.2,4.7
			c1.9,1.6,3.8,3.1,5.8,4.6c1.7,1.3,3.6,2.4,5.4,3.6c0.4,0.2,0.7,0.5,1.1,0.8c-1.7,0.2-3.5,0.5-5.2,0.7c-2.6,0.3-5.2,0.8-7.8,1
			c-4.8,0.2-9.5,0.1-14.3-0.9c-2.6-0.6-5-1.4-7.4-2.4c-2-0.8-3.9-1.7-5.8-2.6c-3.1-1.3-5.8-3.1-8.7-4.7c-1.3-0.7-2.4-1.7-3.6-2.5
			c-1.5-0.9-3.1-1.5-4.5-2.4c-2.5-1.6-4.9-3.3-7.3-4.9c-1.7-1.1-3.4-2.2-5.2-3.3c-2.7-1.7-5.5-3.4-8.2-5c-2.2-1.3-4.5-2.1-7-1.8
			c-1.6,0.1-3.1,1.4-3.5,3c-0.2,0.2-0.5,0.5-0.5,0.6c0.6,0.9,0.7,2.1,2.1,2.5c1.4,0.4,2.8,0.8,4.1,1.5c2.6,1.5,5.2,3.1,7.7,4.7
			c1.3,0.8,2.5,1.7,3.7,2.6c2,1.5,4,3,6,4.4c1.9,1.3,3.9,2.4,5.9,3.5c2,1.2,4.1,2.4,6.1,3.6c2.2,1.3,4.4,2.7,6.6,3.9
			c1.9,1.1,3.8,2.2,5.8,3.2c2.1,1,4.2,1.9,6.4,2.7c1.8,0.7,3.7,1.4,5.6,2c0.8,0.3,1.7,0.4,2.5,0.6c2,0.6,3.9,1.4,5.9,1.7
			c3,0.5,6,0.8,9.1,1c3.9,0.3,7.8,0.6,11.8,0.8c1.7,0.1,3.5,0.1,5.2,0.1c7.8,0.2,15.7,0.4,23.5,0.7c0.3,0,0.5,0,0.8,0.1
			c2.8,0.6,5.5,1.3,8.3,1.8c3.5,0.6,6.6,2.1,9.4,4c2.8,1.9,5.1,4.6,6.4,7.9c0.8,2.1,1.8,4.1,2.4,6.2c0.7,2.2,1.1,4.5,1.7,6.8
			c0.5,1.8,0.9,3.6,1.5,5.3c0.6,2,1.4,3.9,2.1,5.9c0.5,1.5,0.7,3.1,1.3,4.6c1.1,3,2.3,6,3.4,9.1c0.6,1.7,1.1,3.3,1.7,5
			c1.2,3.6,2.4,7.1,3.6,10.7c0.8,2.5,1.5,5,2.2,7.5c0.8,2.5,1.7,4.9,2.4,7.4c0.8,2.7,1.5,5.5,2.3,8.3c0.5,1.9,1,3.8,1.5,5.7
			c0.5,1.8,1.1,3.7,1.5,5.5c0.4,1.7,0.8,3.4,1.2,5.1c0.5,2.2,1.1,4.4,1.6,6.6c0.4,2,0.7,4,1.2,6c0.5,2.1,1.2,4.2,1.7,6.3
			c0.5,1.9,0.8,3.8,1.2,5.7c0,0.2,0,0.4,0,0.5c0.4,2,0.7,4.1,1.2,6.1c0.7,3.1,1.3,6.1,2,9.2c0.2,0.9,0.6,1.9,0.8,2.8
			c0.3,1.3,0.4,2.7,0.7,4c0.7,3.1,1.4,6.2,2,9.3c0.5,2.5,0.8,5,1.2,7.4c0.3,1.5,0.7,3,1,4.5c0.3,1.7,0.6,3.3,0.9,5
			c0.1,0.3-0.1,0.7-0.1,1.1c0.4,1.7,0.8,3.3,1.1,5c0.3,1.8,0.4,3.7,0.7,5.5c0.5,3,1,6,1.5,9.1c0.4,2.6,0.8,5.3,1.1,7.9
			c0.4,3,0.8,6,1.1,9c0.4,3.9,0.8,7.9,1.1,11.8c0.3,3.7,0.5,7.4,0.5,11.1c0,3.7-0.1,7.5-0.3,11.2c-0.2,4.4-0.5,8.8-0.8,13.1
			c-1.4,0.5-0.6,1.7-0.8,2.5c-0.2,1.3-0.3,2.6-0.5,3.9c-0.4,3.7-0.8,7.5-1.2,11.2c0,0.3-0.1,0.6-0.1,1c-0.6,3-1.2,6-1.8,9
			c-0.4,1.9-0.7,3.7-1.2,5.5c-0.7,2.8-1.6,5.6-2.3,8.4c-0.6,2.6-1.1,5.1-1.5,7.7c-0.6,3.2-1,6.4-1.6,9.6c-0.4,2.5-0.8,5-1.1,7.5
			c-0.3,2.2-0.7,4.4-0.7,6.6c0,4.8,0.3,9.6,0.3,14.4c0.1,5.1,0.1,10.3,0,15.4c-0.1,2,0.2,4,1.2,5.6c0.9,1.4,1.4,3.1,3.3,3.7
			c1.5,0.5,2.9,1.5,4.5,2c1.7,0.5,3.4,0.8,5.1,0.9c2.4,0.2,4.9,0.1,7.4,0c3.6-0.1,7.3-0.4,10.9-0.6c1.4-0.1,2.9-0.3,4.3-0.6
			c2.2-0.5,4.4-1.2,6.6-1.7c2.6-0.6,5.1-1.2,7.7-1.7c1.8-0.4,3.6-0.8,5.3-1.2c1.4-0.4,2.8-0.9,4.2-1.4c1.5-0.5,3.1-1,4.6-1.5
			c1.7-0.6,3.5-1.3,5.1-2.1c1.2-0.5,2.2-1.3,3.4-2c2-1.2,4-2.3,5.3-4.4c1.6-2.7,2.5-5.4,2.3-8.4c-0.1-3.6-0.2-7.2-0.6-10.8
			c-0.3-2.4-1.1-4.8-1.5-7.2c-0.6-3.4-0.9-6.9-1.4-10.3c-0.4-3.2-0.7-6.4-1.1-9.6c-0.5-3.8-1.1-7.7-1.7-11.5
			c-0.3-2.2-0.7-4.3-1.1-6.5c-0.5-2.8-1.1-5.6-1.7-8.4c-0.5-2.3-0.9-4.6-1.3-6.9c-0.6-3.1-1.2-6.3-1.6-9.4c-0.5-3.1-0.8-6.2-1.2-9.3
			c-0.2-1.5-0.4-3-0.6-4.4c-0.5-3.1-1.1-6.2-1.5-9.2c-0.2-1.6-0.4-3.2-0.5-4.8c-0.1-1.2-0.2-2.4-0.3-3.5c-0.4-3.5-0.7-7-1.1-10.5
			c-0.2-2.2-0.4-4.3-0.6-6.5c-0.2-1.7-0.4-3.3-0.6-5c-0.3-2.2-0.7-4.4-1-6.6c-0.3-2-0.4-4.1-0.6-6.1c-0.2-1.4-0.4-2.8-0.6-4.1
			c-0.5-3-1-5.9-1.5-8.9c-0.3-2-0.4-4-0.7-6c-0.1-0.9-0.3-1.8-0.5-2.6c-0.4-2.3-0.9-4.6-1.3-6.9c-0.3-1.9-0.4-3.9-0.7-5.8
			c-0.1-1-0.3-2.1-0.5-3.1c-0.7-2.9-1.4-5.8-2.1-8.6c-0.5-2-0.9-4-1.8-5.9c-1.1-2.4-1.6-5.2-2.4-7.7c-0.5-1.5-1-2.9-1.5-4.4
			c-0.5-1.5-1-3-1.5-4.5c-0.6-1.8-1.1-3.7-1.8-5.5c-0.9-2.1-1.9-4.2-2.9-6.2c-1.3-2.7-2.7-5.4-4.1-8.1c-1.5-3-3.1-6-4.7-8.9
			c-1.5-2.7-3.1-5.4-4.6-8.2c-1.4-2.6-2.8-5.2-4.2-7.8c-1.1-2.1-2.1-4.2-3.2-6.3c-1-2.1-2.1-4.2-3.1-6.3c-1.1-2.7-2.1-5.5-3.2-8.2
			c-0.9-2.3-1.8-4.5-2.6-6.8c-0.8-2.1-1.5-4.1-2.2-6.2c-0.7-2.1-1.3-4.2-2-6.3c-0.5-1.5-0.9-3-1.4-4.5c-0.4-1.2-0.8-2.3-1.1-3.5
			c-0.1-0.6,0.2-1.2,0.2-1.9c0.2-1.8,0.4-3.5,0.5-5.3c0.1-3.4,2-6,3.4-8.9c0.8-1.7,1.9-3.3,2.7-5c0.5-1,1-2.1,1.5-3.2
			c0.9-2.1,1.9-4.2,2.6-6.4c1-3,1.7-6,2.7-9c0.2-0.7,1-1.2,1.5-1.8c1.1-0.5,2.2-1.1,3.3-1.6c1.7-0.8,3.4-1.7,5.1-2.5
			c1.8-0.8,3.7-1.4,5.6-2.1c1.1-0.4,2.1-1,3.1-1.4c1.4-0.5,2.8-0.8,4.1-1.3c2.8-1.1,5.7-2.2,8.4-3.5c3.5-1.6,7.4-2.5,10.8-4.5
			c2.8-1.7,5.9-2.7,8.9-4.2c2.8-1.4,5.7-2.5,8.1-4.6c1.9-1.6,4.1-2.7,6.1-4.2c2.5-1.9,4.9-3.8,7.2-5.9c1.9-1.7,3.5-3.6,5.3-5.5
			c2-2.1,4-4.3,6-6.4c1.8-1.9,1.6-5.2,0.1-7.1c-0.3-0.4-0.5-0.8-0.8-1.1c-1.1-1.1-1.5-1.1-2.5,0c-1.2,1.2-2.3,2.5-3.4,3.8
			c-1,1-2,2-3,3c-1.2,1.1-2.6,2.1-3.8,3.1c-1.8,1.6-3.6,3.4-5.5,4.9c-1.9,1.5-3.8,2.9-5.8,4.1c-2.6,1.6-5.3,3.2-8,4.7
			c-1,0.6-2,1-3.1,1.5c-1.9,0.9-3.7,1.8-5.7,2.6c-2.1,0.8-4.3,1.5-6.5,2.3c-2.8,1-5.7,1.6-8.3,2.9c-2.2,1.2-4.7,1.9-7.1,2.9
			c-1.1,0.4-2.3,0.8-3.5,1.2c-0.9,0.4-1.8,0.9-2.8,1.2c-2.1,0.7-4.1,1.3-6.2,1.9c-0.6,0.2-1.2,0.2-1.8,0.3c0.2-3.9,0.4-7.8,0.5-11.7
			c0.1-2.9-0.1-5.9,0.1-8.8c0.1-1.8,0.3-3.5,0.6-5.2c0.4-2,1.1-3.9,1.8-5.9c1-3.2,2.1-6.4,3.2-9.5c0.2-0.7,0.5-1.4,0.8-2
			c0.7-1.6,1.4-3.2,2.1-4.9c1-2.3,1.8-4.5,3.5-6.5c2-2.3,4.6-3,7.2-3.8c1.5-0.4,3-0.9,4.2-1.8c1.9-1.5,2.1-3.8,0.8-6.3
			c-0.3-0.5-0.5-1-0.8-1.5c-0.2-0.5-0.4-1-0.6-1.4c-0.3-0.5-0.6-1-1-1.4c-1.7-1.9-3.1-2.7-5.3-0.7c-0.7,0.6-1.5,1.3-2.1,2.1
			c-1.5,2-4,2.8-5.9,4.3c-0.6,0.5-1.4,0.8-2,1.3c-2.1,1.8-3.8,3.8-4.7,6.5c-0.7,2.1-1.7,4-2.6,6c-0.6,1.6-1.1,3.2-1.9,4.7
			c-1.4,3-1.9,6.2-2.6,9.3c-0.4,2.1-0.6,4.2-1.1,6.2c-0.5,2.3-1.2,4.6-1.9,6.9c-0.5,1.6-1,3.3-1.5,4.9c-0.2,0.7-0.3,1.5-0.6,2.2
			c-0.9,2.7-1.9,5.5-2.9,8.2c-1,3-1.5,6.1-3,8.9c-0.8,1.7-1.2,3.6-1.8,5.4c-0.4,1.3-0.6,2.8-1.3,4c-1,1.5-1.3,3.1-1.7,4.7
			c-0.3,1.2-0.6,2.3-0.9,3.5c-0.5,1.5-0.9,3.1-1.6,4.6c-0.6,1.2-1.3,2.4-2.1,3.4c-0.9,1.1-2.3,1.1-3.7,1.1c-2.4,0-3.7-1.7-4.8-3.3
			c-1.3-2-2.2-4.4-2.8-6.7c-0.6-2.3-2-4.4-1.8-7c0-0.1,0-0.3-0.1-0.4c-1.2-0.9-0.8-2.4-1.1-3.6c-0.6-2.6-0.8-5.2-1.3-7.8
			c-0.2-1.1-0.4-2.3-0.7-3.4c-0.4-1.6-0.9-3.1-1.4-4.6c-0.5-1.7-1-3.5-1.6-5.2c-0.7-2.2-1.4-4.4-2-6.6c-0.5-1.7-0.9-3.4-1.4-5.1
			c-0.6-2-1.5-3.9-2.1-5.8c-1.3-3.8-2.2-7.7-4-11.4c-1.3-2.6-2-5.6-2.8-8.4c-0.9-3.3-1.8-6.6-2.2-10c-0.4-3.5-0.2-7.2,0-10.8
			c0.1-1.4,0.8-2.8,1.4-4.1c0.8-1.7,1.7-3.4,2.6-5.1c0.7-1.2,1.3-2.4,2-3.6c1.3-2.2,2.8-4.4,4-6.7c1.1-2.1,2.1-4.2,3.5-6.1
			c1.5-2,2.6-4.2,4.4-6c1.3-1.2,2.3-2.6,3.5-3.8c2.3-2.4,5.1-4.2,7.9-5.7c2.4-1.3,4.9-2.2,7.3-3.3c0.8-0.4,1.6-1,2.4-1.3
			c1.7-0.7,3.5-1.3,5.2-2c1.9-0.8,3.8-1.8,5.7-2.7c3.2-1.5,6.4-3.1,9.5-4.7c2.5-1.3,5-2.8,7.5-4.1c1.2-0.6,2.4-1.2,3.5-1.9
			c1.6-0.9,3-2.2,4.7-2.7c2.9-1,5.8-1.7,8.8-2.2c2.6-0.4,5.3-0.5,8-0.7c0.3,0,0.6,0,1-0.1c3.2-0.5,6.5-1.1,9.7-1.5
			c2-0.3,3.8-1.3,5.9-1.4c1.1-0.1,2.4-0.8,3.6-1.2c3.4-1.3,6.7-2.7,9.9-4.2c1.9-0.9,3.8-1.9,5.5-3.1c2.2-1.5,4.2-3.3,6.4-4.9
			c2.1-1.5,4.2-2.8,6.1-4.6c1.8-1.7,4.1-3,6.1-4.5c2.9-2.2,5.8-4.4,8.6-6.6c0.8-0.6,1.4-1.3,2.2-1.9c1.6-1.1,3.3-2.1,4.9-3.3
			c0.8-0.6,1.6-1.3,2.3-2c0.5-0.5,1.2-1.1,1.1-1.7c0-1.4-0.4-2.7-0.7-4.1c-0.4-2-1.8-2.9-3.5-3.6c-1-0.3-2.1-0.6-3.1-0.7
			c-0.3,0-0.7,0.5-1,0.7c-2,0.8-4.2,1.2-5.9,2.4c-1.7,1.2-3,3-4.4,4.6c-0.6,0.6-0.9,1.5-1.5,2c-1.4,1-2.3,2.4-3.8,3.4
			c-1.8,1.1-3.3,2.6-4.9,4c-1.7,1.4-3.4,2.7-5,4.1c-0.5,0.4-0.8,1-1.3,1.3c-3,1.9-5.9,3.7-8.9,5.6c-1.6,1-3.1,2-4.7,2.8
			c-3.2,1.7-6.4,3.5-9.7,5c-2.5,1.1-5.3,1.7-7.9,2.4c-1.2,0.3-2.5,0.5-3.7,0.7c-1.6,0.4-3.2,1-4.8,1.1c-1.4,0.1-2.7,0.2-4,0.5
			c-1.9,0.5-4,0.4-5.9,0.6c-2,0.2-4,0.3-5.9,0.6c-1.5,0.2-2.9,0.7-4.4,1.1c-1.2,0.3-2.3,0.8-3.5,1.1c-0.1-0.2-0.4-0.6-0.3-0.7
			c0.7-1.5,1.5-2.9,2.3-4.3c0.6-1,1.2-2,1.9-2.8c1.3-1.4,2.6-2.7,4-4.1c2-2,4.2-3.8,6.1-5.8c1.8-1.9,3.3-4.1,5.1-6
			c1.8-2,3.8-4,5.6-5.9c0.8-0.8,1.5-1.7,2.4-2.4c1.7-1.4,3.5-2.7,5.3-4c2.3-1.6,4.7-3.2,7-4.8c1.5-1,3.1-1.8,4.8-2.7
			c2-1.1,2.9-2.6,2.2-4.9c-0.2-0.7-0.2-1.7-1.3-1.8c-0.8-0.8-1.5-2-2.5-2.4c-1.3-0.5-2.8-0.6-4.1-0.5c-0.9,0-1.9,0.6-2.5,1.2
			c-1.1,1.2-2.2,2.6-2.9,4c-0.9,2.1-2.9,3.2-4.4,4.7c-1.7,1.6-3.8,2.8-5.6,4.2c-3,2.2-5.9,4.5-8.8,6.8c-0.9,0.7-1.7,1.8-2.6,2.5
			c-1.4,1.1-3.1,1.9-4.4,3.1c-2,1.7-3.9,3.5-5.8,5.3c-1.3,1.2-2.5,2.4-3.6,3.7c-1.8,2.1-3.5,4.2-5,6.5c-1.3,1.9-2.5,4-3.6,6
			c-1.6,2.7-3.1,5.5-4.7,8.3c-0.7,1.1-1.7,2.1-2.4,3.2c-1.4,2.5-3.7,4.1-6,5.3c-2.5,1.4-5.1,2.5-7.8,3.6c-1.9,0.8-3.7,2.1-5.9,2.3
			c-0.9,0.1-1.7,0.3-2.6,0.6c-2.3,0.8-4.6,1.4-6.8,2.4c-2.7,1.2-5.5,2.5-8,4.1c-2.1,1.4-3.9,3.3-5.7,5.2c-2.1,2.3-4.2,4.6-6,7.1
			c-1.6,2.2-2.8,4.7-4.3,7c-0.2,0.3-1.5,0.4-1.9,0.1c-0.5-0.3-0.7-1.2-0.9-1.8c-0.5-1.8-0.8-3.7-1.2-5.5c0.1-2.3,0-4.7,0.4-6.9
			c0.3-2.1,1.1-4.2,1.7-6.3c0.4-1.4,0.8-2.7,1.3-4c0.7-2.1,1.5-4.2,2.2-6.3c0.4-1.3,0.8-2.7,1.2-4.1c0.4-1.1,0.9-2.1,1.3-3.1
			c0.6-1.7,0.9-3.6,1.8-5.1c1.3-2.1,1.6-4.4,2.3-6.6c0.6-1.7,0.8-3.7,1.7-5.1c1.6-2.6,2.4-5.5,3.1-8.4c0.8-3.3,1-6.7,1.2-10.1
			c0.3-4.9,0.3-9.9,0.5-14.8c0.1-1.5,0.2-3.1,0.4-4.6c0.2-1.8,0.3-3.5,0.6-5.3c0.5-3.2,1-6.3,1.5-9.5c0.3-2,0.6-4.1,0.9-6.1
			c0.5-3.1,1-6.1,1.6-9.2c0.3-1.5,0.6-2.9,0.8-4.4c0.4-2,0.8-4,1.1-6c0.3-2,0.4-4,0.6-6c0.1-0.7,0.2-1.6,0.6-2.2
			c1.1-1.9,2.1-4.1,3.7-5.6c1.2-1.2,2.1-2.6,3-3.9c0.7-1,0.6-3.4-0.1-4.1c-0.1-0.3-0.1-0.6-0.3-0.7c-1-1.2-2.1-2.4-3.7-2.7
			c-2-0.5-4.1-0.5-5.6,1.1c-1.1,1.2-2.1,2.6-2.8,4.1c-0.8,1.7-1.2,3.5-1.8,5.4c-0.7,2.2-1.4,4.4-1.8,6.6c-0.5,2.4-0.8,4.9-1.1,7.4
			c-0.4,3-0.6,6-0.9,9.1c-0.2,2.8-0.4,5.6-0.6,8.4c-0.1,1.3-0.2,2.8-0.6,4c-1.2,3.1-1.3,6.3-1.8,9.5c-0.3-0.1-0.7-0.2-1-0.3
			c0-0.3,0-0.6,0-0.8c-0.4-2.6-0.6-5.2-1.1-7.7c-0.2-1.2-0.9-2.2-1.3-3.4c-1.1-3.5-2.7-6.7-4.6-9.7c-1.4-2.2-2.8-4.5-4.2-6.7
			c-1.7-2.7-3.4-5.5-5.1-8.2c-1.2-1.9-2.5-3.8-3.7-5.7c-1.4-2.3-2.6-4.8-4.5-6.8c-1.5-1.6-2.7-3.5-4.1-5.1c-1.5-1.8-3.2-3.4-4.8-5.1
			c-1.6-1.6-3.2-3.1-4.7-4.8c-1.5-1.8-2.8-3.8-4.2-5.8c-1.4-2-3-3.8-4.7-5.5c-2.1-2.2-4.5-3.9-7.7-3.8c-1.8,0-3.5,1.7-3.7,3.6
			c-0.2,0.3-0.4,0.5-0.5,0.8c-0.3,1.3-0.4,2.7-0.9,4c-0.5,1.5-0.1,3,0.7,4c2.1,2.5,4.4,4.7,6.6,7c1.7,1.7,3.5,3.4,5.3,5.1
			c1.6,1.5,3.3,3,4.8,4.6c1.8,1.8,3.5,3.6,5.2,5.5c0.8,0.9,1.7,1.8,2.4,2.7c1.1,1.4,2.2,2.7,3.2,4.1c1.1,1.5,2.2,2.9,3.1,4.5
			c1.3,2.4,2.4,4.9,3.6,7.3c1,2,2.1,3.9,3,5.9c1.3,2.8,2.5,5.6,3.8,8.4c0.5,1,1.1,2,1.5,3c0.7,1.8,1.2,3.6,1.8,5.4
			c1,2.8,1.9,5.6,2.1,8.5c0,0.7-0.1,1.5,0,2.2c0.1,0.3,0.5,0.6,0.7,0.9c0,1.2,0,2.4,0.1,3.5c-0.1,0.5-0.3,1-0.3,1.6
			c0,3.8,0,7.6,0.1,11.3c0,0.4,0.3,0.8,0.4,1.2c0.1,1.8,0.1,3.7,0.2,5.5c0.1,3,0.6,6,0.2,9c-0.4,3.5-0.6,7.1-2,10.5
			c-0.8,2-1,4.3-1.5,6.5c-0.3,1-0.6,2.1-1.1,3c-0.3,0.6-0.9,1-1.3,1.6c-1.3,2.2-2.6,4.4-3.9,6.6c-1.1,1.8-2.3,3.6-3.3,5.5
			c-1.1,2-2.1,4.1-3.1,6.2c-1.2,2.6-2.5,5.2-3.5,7.9c-0.8,2.2-1.2,4.6-1.8,6.9c-0.2,0.9-0.3,1.9-0.7,2.8c-1.1,2.8-0.8,5.8-1,8.7
			c-0.1,1.2,0.2,2.4,0.3,3.7c0.1,0.7,0.2,1.3,0.4,2c0.5,1.5,1,3.1,1.5,4.6c0.8,2.1,1.5,4.2,2.3,6.2c1,2.5,2.2,5,0.8,7.9
			c-0.4-0.1-1-0.1-1.3-0.4c-1-1-1.8-2-2.7-3c-1.9-2.1-3.8-4.1-5.7-6.1c-2-2.1-4-4.1-5.9-6.2c-1.5-1.7-2.7-3.6-4.1-5.4
			c-0.4-0.6-0.9-1.1-1.3-1.8c-1.7-2.9-3.3-5.9-5-8.9c-1.1-2-2.3-4-3.3-6.1c-0.9-1.9-1.5-3.9-2.3-5.9c-0.9-2.3-2-4.6-2.9-7
			c-0.8-2.2-1.8-4.5-2.3-6.8c-0.5-2.6-0.5-5.2-0.6-7.9c-0.1-2.6,0-5.2-0.2-7.8c-0.2-2.6-0.6-5.2-0.9-7.8c-0.2-1.8-0.4-3.7-0.7-5.5
			c-0.1-1-0.3-2-0.6-3.1c-0.8-3.1-1.6-6.2-2.4-9.3c-0.5-1.9-0.8-3.8-1.2-5.6c-0.6-2.6-1.9-5.1-2.1-7.8c0-0.1,0-0.2-0.1-0.3
			c-1.5-1.8-1.4-4.2-2.3-6.3c-0.8-1.7-1.1-3.6-1.7-5.4c-0.4-1.3-1-2.7-1.4-4c-0.6-2.1-1-4.3-1.8-6.4c-1.3-3.3-2-6.8-3.3-10.2
			c-1.3-3.3-1.5-7-1.7-10.6c-0.2-4,0-8.1,0-12.1c0.3-0.4,0.7-0.8,0.7-1.2c0.1-1,0-2,0.1-3c0.2-1.4,0.3-2.8,0.5-4.2
			c0.4-3.1-0.3-5.9-2.1-8.5c-1.2-1.6-1.8-2-3.5-1.1c-1.5,0.8-2.7,2-4.1,3.1c-0.1,0-0.3,0-0.4,0.1c-1.3,1.6-2.8,3.1-4,4.8
			c-0.6,0.8-0.9,2-0.9,3c-0.2,2.3-0.4,4.5-0.2,6.8c0.2,2.1,0.9,4.3,1.5,6.3c0.5,1.8,0.8,3.8,1.8,5.4c1.2,1.9,1.5,3.9,2.2,5.9
			c0.6,1.7,0.8,3.6,1.2,5.5c0.8,3.1,1.7,6.1,2.4,9.1c0.5,2.3,0.8,4.6,1.2,6.9c0.2,1.3,0.4,2.6,0.6,3.9c0.3,2.1,0.7,4.2,1,6.3
			c0.2,1.7,0.4,3.3,0.6,5c0.2,1.3,0.4,2.6,0.6,3.9c0.3,1.7,0.6,3.3,1,5c-1.3-1-2.6-2-3.8-3.1c-1.7-1.5-3.3-3.1-4.8-4.8
			c-1.7-1.9-3.3-4-5-6.1c-3.1-3.8-6.2-7.6-9.4-11.3c-1.1-1.4-2.4-2.6-3.6-3.9c-2.5-2.7-5.1-5.4-7.6-8.1c-1-1.1-1.8-2.3-2.8-3.4
			c-1.2-1.4-2.4-2.8-3.5-4.2c-0.5-0.7-1.1-1.4-1.5-2.1c-1-2-2.8-2.9-4.7-3.6c-1.7-0.6-3.7-0.5-5.6-0.1c-1.5,0.4-2.8,1.2-3.2,3
			c-1.1,1.3-0.7,3-0.4,4.3c0.7,3,2.8,5.1,5.1,6.9c2.4,1.9,5,3.4,7.3,5.4c1.7,1.5,3.5,2.9,5,4.7c2.7,3.1,5.1,6.4,7.7,9.6
			c1.2,1.5,2,3.3,3,4.8c1.7,2.4,3.7,4.7,5.2,7.3c1.6,2.6,2.9,5.4,4.2,8.2c1.7,3.4,4.1,6.3,6.7,9c0.5,0.5,1.1,0.9,1.6,1.4
			c1.2,1.3,2.3,2.7,3.5,4c1.8,2,3.9,3.9,5.5,6.2c1.6,2.2,2.8,4.8,4,7.3c1,2.1,2.2,4.3,2.7,6.5c0.7,2.9,0.8,5.9,1.2,8.9
			c0.2,2,0.4,4,0.7,6c0.2,1.2,0.5,2.5,0.7,3.7c0.5,2.3,1.1,4.6,1.6,6.9c0.6,2.5,1.2,4.9,1.9,7.3c0.6,2,1.5,3.9,2.2,5.8
			c0.4,1.1,0.8,2.1,1.3,3.1c1.1,2.4,2.2,4.7,3.5,7c1.5,2.8,3.1,5.5,4.8,8.3c1.6,2.5,3.2,4.9,4.9,7.3c1.8,2.6,3.8,5.2,5.7,7.8
			c0.9,1.3,1.9,2.6,2.8,3.9c0.9,1.2,1.8,2.4,2.7,3.6c0.8,1,1.6,1.9,2.4,2.9C294.9,236,295,236.1,295.1,236.1z"/>
		<path class="st1" d="M339.4,211.9c-0.9,1.7-1.8,3.4-2.6,5.1c-0.6,1.3-1.3,2.7-1.4,4.1c-0.2,3.6-0.4,7.2,0,10.8
			c0.3,3.4,1.3,6.7,2.2,10c0.8,2.9,1.5,5.8,2.8,8.4c1.8,3.7,2.8,7.5,4,11.4c0.6,2,1.5,3.9,2.1,5.8c0.6,1.7,0.9,3.4,1.4,5.1
			c0.6,2.2,1.3,4.4,2,6.6c0.5,1.7,1,3.5,1.6,5.2c0.5,1.5,1,3.1,1.4,4.6c0.3,1.1,0.5,2.3,0.7,3.4c0.4,2.6,0.6,5.3,1.3,7.8
			c0.3,1.2-0.1,2.7,1.1,3.6c0.1,0.1,0.1,0.3,0.1,0.4c-0.2,2.5,1.1,4.6,1.8,7c0.6,2.3,1.5,4.7,2.8,6.7c1,1.6,2.4,3.2,4.8,3.3
			c1.4,0,2.8,0,3.7-1.1c0.8-1,1.6-2.2,2.1-3.4c0.7-1.5,1.1-3,1.6-4.6c0.4-1.1,0.6-2.3,0.9-3.5c0.4-1.6,0.8-3.2,1.7-4.7
			c0.7-1.1,0.9-2.6,1.3-4c0.6-1.8,0.9-3.7,1.8-5.4c1.5-2.8,2-5.9,3-8.9c0.9-2.7,1.9-5.5,2.9-8.2c0.2-0.7,0.3-1.5,0.6-2.2
			c0.5-1.6,1-3.3,1.5-4.9c0.7-2.3,1.4-4.6,1.9-6.9c0.5-2,0.7-4.1,1.1-6.2c0.7-3.2,1.2-6.4,2.6-9.3c0.7-1.5,1.2-3.1,1.9-4.7
			c0.8-2,1.8-4,2.6-6c1-2.7,2.7-4.7,4.7-6.5c0.6-0.5,1.4-0.8,2-1.3c1.9-1.5,4.4-2.2,5.9-4.3c0.6-0.8,1.3-1.4,2.1-2.1
			c2.2-2,3.6-1.2,5.3,0.7c0.4,0.4,0.7,0.9,1,1.4c0.2,0.4,0.4,0.9,0.6,1.4c-0.5,0.6-0.9,1.4-1.5,1.8c-2.9,2-5.8,4.2-8.9,5.8
			c-2.2,1.1-3.1,3.1-4.4,4.8c-0.6,0.7-1.1,1.6-1.5,2.4c-0.6,1.1-1,2.2-1.5,3.3c-0.5,1.1-1,2.2-1.4,3.3c-0.7,2-1.4,4.1-2.1,6.2
			c-0.5,1.3-1.1,2.7-1.5,4c-0.5,1.5-0.7,3.1-1.1,4.7c-0.8,2.9-0.7,6-1.8,8.9c-0.6,1.4-0.6,3.2-0.6,4.8c-0.1,5.5-0.1,10.9,0,16.4
			c0,1.3,0.7,2.5,1,3.7c0.1,0,0.3,0,0.4,0c0.3-0.6,0.7-1.2,1-1.9c0.6-0.1,1.2-0.1,1.8-0.3c2.1-0.6,4.2-1.2,6.2-1.9
			c0.9-0.3,1.8-0.9,2.8-1.2c1.1-0.4,2.3-0.8,3.5-1.2c2.4-0.9,4.8-1.7,7.1-2.9c2.7-1.4,5.5-2,8.3-2.9c2.2-0.8,4.4-1.4,6.5-2.3
			c1.9-0.8,3.8-1.7,5.7-2.6c1-0.5,2.1-0.9,3.1-1.5c2.7-1.5,5.4-3.1,8-4.7c2-1.3,4-2.6,5.8-4.1c1.9-1.5,3.6-3.3,5.5-4.9
			c1.2-1.1,2.6-2,3.8-3.1c1.1-0.9,2.1-1.9,3-3c1.2-1.2,2.3-2.5,3.4-3.8c1-1.1,1.4-1.1,2.5,0c0.3,0.3,0.5,0.7,0.8,1.1
			c-0.4,0.6-0.8,1.2-1.3,1.8c-0.2,0.2-0.4,0.3-0.6,0.5c-2.1,2.5-4.1,5.1-6.3,7.4c-2.1,2.2-4.6,4-6.8,6.1c-2.7,2.7-5.8,4.9-8.9,7
			c-2.6,1.7-5.1,3.4-7.6,5.1c-1.1,0.8-2.2,1.7-3.4,2.3c-2.7,1.3-5.5,2.5-8.2,3.8c-2.2,1-4.3,2.2-6.6,3.1c-2.6,1-5.2,1.8-7.8,2.7
			c-1.5,0.5-3,1-4.5,1.5c-1.6,0.5-3.2,1.1-4.8,1.7c-1,0.4-1.8,1-2.8,1.3c-2.6,0.9-5.1,2.1-7.3,3.9c-1.3,1.1-2.5,2.4-3.8,3.6
			c-0.8,0.8-1.5,1.7-1.4,2.9c-0.5,0.6-1.3,1.1-1.5,1.8c-1,3-1.7,6-2.7,9c-0.7,2.2-1.7,4.3-2.6,6.4c-0.5,1.1-0.9,2.2-1.5,3.2
			c-0.9,1.7-1.9,3.3-2.7,5c-1.4,2.9-3.3,5.5-3.4,8.9c0,1.8-0.3,3.5-0.5,5.3c-0.1,0.6-0.4,1.3-0.2,1.9c0.2,1.2,0.7,2.3,1.1,3.5
			c0.5,1.5,0.9,3,1.4,4.5c0.7,2.1,1.3,4.2,2,6.3c0.7,2.1,1.4,4.2,2.2,6.2c0.8,2.3,1.7,4.5,2.6,6.8c1.1,2.7,2,5.5,3.2,8.2
			c0.9,2.1,2,4.2,3.1,6.3c1.1,2.1,2.1,4.2,3.2,6.3c1.4,2.6,2.8,5.2,4.2,7.8c1.5,2.7,3.1,5.4,4.6,8.2c1.6,3,3.2,5.9,4.7,8.9
			c1.4,2.7,2.7,5.3,4.1,8.1c1,2.1,2,4.1,2.9,6.2c0.7,1.8,1.2,3.7,1.8,5.5c0.5,1.5,1,3,1.5,4.5c0.5,1.5,1.1,2.9,1.5,4.4
			c0.8,2.6,1.2,5.3,2.4,7.7c0.9,1.9,1.3,3.9,1.8,5.9c0.7,2.9,1.4,5.7,2.1,8.6c0.2,1,0.4,2,0.5,3.1c0.2,1.9,0.4,3.9,0.7,5.8
			c0.4,2.3,0.9,4.6,1.3,6.9c0.2,0.9,0.4,1.8,0.5,2.6c0.2,2,0.4,4,0.7,6c0.5,3,1,5.9,1.5,8.9c0.2,1.4,0.4,2.8,0.6,4.1
			c0.2,2,0.4,4.1,0.6,6.1c0.3,2.2,0.7,4.4,1,6.6c0.2,1.7,0.4,3.3,0.6,5c0.2,2.2,0.4,4.3,0.6,6.5c0.4,3.5,0.7,7,1.1,10.5
			c0.1,1.2,0.2,2.4,0.3,3.5c0.2,1.6,0.3,3.2,0.5,4.8c0.5,3.1,1,6.2,1.5,9.2c0.2,1.5,0.4,2.9,0.6,4.4c0.4,3.1,0.8,6.2,1.2,9.3
			c0.5,3.1,1.1,6.3,1.6,9.4c0.4,2.3,0.9,4.6,1.3,6.9c0.6,2.8,1.2,5.6,1.7,8.4c0.4,2.1,0.8,4.3,1.1,6.5c0.6,3.8,1.2,7.7,1.7,11.5
			c0.4,3.2,0.7,6.4,1.1,9.6c0.4,3.4,0.8,6.9,1.4,10.3c0.4,2.4,1.3,4.8,1.5,7.2c0.4,3.6,0.5,7.2,0.6,10.8c0.1,3-0.8,5.7-2.3,8.4
			c-1.3,2.2-3.3,3.3-5.3,4.4c-1.1,0.7-2.2,1.4-3.4,2c-1.7,0.8-3.4,1.4-5.1,2.1c-1.5,0.6-3.1,1-4.6,1.5c-1.4,0.5-2.8,1-4.2,1.4
			c-1.8,0.5-3.5,0.8-5.3,1.2c0.2-0.4,0.3-0.7,0.5-1.1c0.3-1.1,0.4-2.3,0.8-3.4c0.5-1.7,1.3-3.2,1.7-4.9c0.5-2,0.8-4,1.1-6
			c0.4-2.8,0.8-5.7,1.1-8.5c0.2-2.6,0.4-5.3,0.3-7.9c-0.2-6.7,0.6-13.3-0.5-20c-0.4-2.3-0.4-4.7-0.6-7c-0.2-1.9-0.4-3.9-0.5-5.8
			c-0.2-1.8-0.4-3.6-0.5-5.4c-0.2-2.7-0.4-5.4-0.6-8.1c-0.2-2.2-0.4-4.3-0.6-6.5c0-0.1,0-0.3-0.1-0.4c-1.2-0.9-0.7-2.1-0.5-3.2
			c0.1-0.7,0.3-1.7-0.1-2c-0.9-0.8-0.6-1.6-0.7-2.5c-0.1-0.7,0-1.4-0.1-2.1c-0.3-2.1-0.8-4.2-1-6.3c-0.3-2.6-0.4-5.1-0.6-7.7
			c0-0.1,0-0.2,0-0.3c-0.4-2.4-0.7-4.9-1-7.3c-0.2-1.8-0.4-3.7-0.6-5.5c0-0.1,0-0.2,0-0.3c-0.3-1.9-0.7-3.8-1-5.6
			c-0.3-2-0.4-3.9-0.6-5.9c0-0.1,0-0.2,0-0.3c-0.3-2.1-0.7-4.1-1-6.2c-0.3-1.8-0.4-3.6-0.6-5.4c0-0.2-0.1-0.3-0.2-0.5
			c-0.2-0.5-0.5-1-0.6-1.5c-0.2-1.7-0.4-3.5-0.6-5.2c0-0.1,0-0.2-0.1-0.3c-0.3-1.8-0.7-3.7-1-5.5c-0.2-1.5-0.3-3-0.6-4.5
			c-0.5-2.5-1.1-5-1.6-7.6c-0.4-2.1-0.8-4.2-1.1-6.3c-0.3-2.3-0.4-4.5-1.3-6.7c-0.6-1.3-0.4-2.8-0.6-4.2c-0.2-1.2-0.4-2.5-0.6-3.7
			c-0.3-1.5-0.7-3-1-4.5c-0.3-1.4-0.4-2.7-0.6-4.1c-0.2-1.1-0.4-2.1-0.6-3.2c-0.3-1.5-0.7-2.9-1-4.4c-0.3-1.5-0.2-3-0.7-4.4
			c-0.3-0.8-0.7-1.5-0.5-2.4c0-0.1-0.1-0.2-0.1-0.2c-0.2-0.5-0.5-1.1-0.6-1.6c-0.3-1.2-0.4-2.5-0.6-3.7c-0.7-3-1.4-6-2.1-8.9
			c-0.2-1-0.4-2-0.7-3c-0.6-2-1.2-4-1.8-6c-0.3-1-0.5-2-0.7-3c-0.7-2.3-1.3-4.6-2-6.9c-0.4-1.4-0.7-2.8-1.2-4.2
			c-0.3-0.9-0.9-1.7-1.2-2.6c-0.5-1.5-0.7-3.1-1.3-4.6c-1.1-2.8-2.3-5.6-3.4-8.4c-1.6-3.8-3.1-7.7-4.8-11.5
			c-1.8-3.9-3.7-7.7-5.7-11.5c-0.9-1.8-2.1-3.5-3-5.4c-2.1-4.4-4-8.8-6-13.2c-1.1-2.4-2.3-4.7-3.3-7.2c-0.9-2.1-1.5-4.2-2.2-6.4
			c-0.9-2.8-1.7-5.6-2.6-8.4c-0.7-2.2-1.5-4.4-2.1-6.6c-0.7-2.4-1.1-4.8-1.7-7.3c-0.2-0.8-0.5-1.5-0.7-2.3c-0.3-0.9-0.8-1.7-1.1-2.6
			c-0.5-1.8-0.6-3.7-1.3-5.4c-1-2.5-1.1-5.1-1.5-7.7c-0.2-1.2-0.4-2.4-0.6-3.6c-0.1-0.7-0.3-1.5-0.6-2.2c-0.6-1.5-1.3-3-1.8-4.5
			c-0.9-2.4-1.6-4.8-2.5-7.1c-0.6-1.6-1.5-3.1-2.1-4.6c-0.8-2.1-1.5-4.4-2.2-6.5c-0.5-1.3-1-2.6-1.4-3.9c-0.3-0.8-0.4-1.7-0.6-2.6
			c-0.5-1.7-1-3.5-1.5-5.2c-0.5-1.8-1-3.6-1.5-5.4c-0.6-1.9-1.4-3.7-2-5.5c-1.2-3.8-2.3-7.6-4.2-11.1c-1.3-2.4-2.5-4.9-3.8-7.3
			c-0.3-0.6-1-0.9-1.3-1.5c-1-2.3-2.6-4.3-4.3-6.2c-2.1-2.3-4.1-4.7-6.3-7c-0.7-0.8-1.8-1.4-2.6-2.1c-1.6-1.5-3-3.1-4.6-4.5
			c-2-1.7-4.1-3.3-6.1-5c-0.9-0.8-1.8-1.8-2.7-2.6c-1.3-1.2-2.7-2.2-3.9-3.4c-2.9-3-5.7-6-8.5-9.1c-1-1.1-2.1-2.2-2.9-3.5
			c-1.2-1.9-2.2-3.9-3.3-5.9c-1.2-2.3-2.4-4.5-3.3-6.9c-0.6-1.5-1.1-3.2-1.8-4.4c-1.1-1.8-1.4-3.8-2.1-5.6c-0.9-2.3-1.2-4.8-1.8-7.2
			c-0.2-0.9-0.2-1.9-0.6-2.6c-0.9-1.3-1-2.8-1.3-4.2c-0.2-1.1-0.4-2.1-0.7-3.1c-0.5-2-1-3.9-1.5-5.9c-0.4-1.8-0.8-3.7-1.3-5.4
			c-0.4-1.4-1.2-2.7-1.6-4.1c-1.1-3.8-2.5-7.5-4.5-11c-1.4-2.4-2.5-4.9-4.2-7.1c-1.8-2.3-3.2-5-5.4-7.1c-0.2-0.2-0.4-0.4-0.5-0.6
			c-0.9-1.4-1.8-2.8-2.8-4.1c-1.6-2-3.4-3.8-5.2-5.8c-0.1-0.1-0.2-0.2-0.3-0.3c-0.8-1.1-1.7-2.2-2.5-3.3c-0.2-0.2-0.4-0.3-0.5-0.5
			c-0.9-1.3-1.8-2.6-2.8-3.9c-1.8-2.5-3.7-4.9-5.5-7.3c-2.2-3.1-4.4-6.2-6.7-9.2c-1-1.3-2.2-2.5-3.2-3.7c-2.6-2.8-5.1-5.8-8.3-8
			c-2.3-1.6-4.4-3.7-7.2-4.5c-1.9-0.6-3.6-2.1-5.7-1.7c0-0.4,0-0.7,0-1.1c0.4-1.7,1.7-2.6,3.2-3c1.8-0.5,3.8-0.5,5.6,0.1
			c1.8,0.6,3.7,1.6,4.7,3.6c0.4,0.8,0.9,1.5,1.5,2.1c1.1,1.4,2.3,2.8,3.5,4.2c0.9,1.1,1.8,2.3,2.8,3.4c2.5,2.7,5.1,5.4,7.6,8.1
			c1.2,1.3,2.5,2.5,3.6,3.9c3.2,3.7,6.3,7.5,9.4,11.3c1.7,2,3.2,4.1,5,6.1c1.5,1.7,3.1,3.2,4.8,4.8c1.2,1.1,2.5,2.1,3.8,3.1
			c0.2,0.3,0.4,0.6,0.6,0.8c0.7,0.6,1.5,1.2,2.3,1.7c1.1,0.8,2.2,1.4,3.9,0.7c-0.2-1.7-0.5-3.4-0.7-5.2c-0.4-2.5-0.7-5-1.1-7.6
			c-0.4-2.8-0.6-5.6-1.9-8.2c-0.8-1.6-0.8-3.5-1.2-5.3c-0.3-1.2-0.7-2.3-1-3.4c-0.4-1.4-0.8-2.7-1.2-4.1c-0.3-1.1-0.6-2.3-0.9-3.5
			c-0.5-1.6-1.1-3.1-1.6-4.7c-0.3-0.9-0.5-1.9-0.7-2.8c-0.5-1.8-1-3.7-1.5-5.5c-0.3-1.2-0.4-2.4-0.6-3.6c-0.4-2.2-0.8-4.3-1-6.5
			c-0.1-0.9,0.4-1.9,0.5-2.9c0.2-2.7,0.5-5.3,0.5-8c0-1.3-0.5-2.6-0.5-3.9c0-2-0.7-3.7-1.7-5.3c-0.2-0.3-0.6-0.4-0.9-0.6
			c1.3-1,2.6-2.3,4.1-3.1c1.7-0.9,2.3-0.5,3.5,1.1c1.9,2.6,2.5,5.4,2.1,8.5c-0.2,1.4-0.3,2.8-0.5,4.2c-0.2,0.3-0.7,0.6-0.7,0.9
			c-0.1,1.1-0.1,2.2-0.1,3.2c0,4-0.2,8.1,0,12.1c0.2,3.6,0.4,7.2,1.7,10.6c1.3,3.3,2.1,6.8,3.3,10.2c0.8,2,1.2,4.2,1.8,6.4
			c0.4,1.4,1,2.7,1.4,4c0.6,1.8,0.9,3.7,1.7,5.4c0.9,2,0.8,4.5,2.3,6.3c0.1,0.1,0.1,0.2,0.1,0.3c0.2,2.8,1.5,5.2,2.1,7.8
			c0.4,1.9,0.8,3.8,1.2,5.6c0.8,3.1,1.6,6.2,2.4,9.3c0.2,1,0.4,2,0.6,3.1c0.2,1.8,0.4,3.7,0.7,5.5c0.3,2.6,0.7,5.2,0.9,7.8
			c0.2,2.6,0.1,5.2,0.2,7.8c0.1,2.6,0.1,5.3,0.6,7.9c0.4,2.3,1.4,4.6,2.3,6.8c0.9,2.4,1.9,4.7,2.9,7c0.8,2,1.4,4,2.3,5.9
			c1,2.1,2.2,4.1,3.3,6.1c1.6,3,3.3,5.9,5,8.9c0.4,0.6,0.8,1.2,1.3,1.8c1.3,1.8,2.6,3.7,4.1,5.4c1.9,2.2,3.9,4.1,5.9,6.2
			c1.9,2,3.8,4.1,5.7,6.1c0.9,1,1.8,2.1,2.7,3c0.3,0.3,0.9,0.3,1.3,0.4c1.4-2.9,0.2-5.4-0.8-7.9c-0.8-2.1-1.6-4.1-2.3-6.2
			c-0.5-1.5-1.1-3.1-1.5-4.6c-0.2-0.6-0.3-1.3-0.4-2c-0.1-1.2-0.4-2.4-0.3-3.7c0.2-2.9-0.1-5.9,1-8.7c0.3-0.9,0.4-1.9,0.7-2.8
			c0.6-2.3,1-4.7,1.8-6.9c1-2.7,2.2-5.3,3.5-7.9c1-2.1,2-4.2,3.1-6.2c1-1.9,2.2-3.6,3.3-5.5c1.3-2.2,2.6-4.4,3.9-6.6
			c0.3-0.6,1-1,1.3-1.6c0.5-1,0.8-2,1.1-3c0.5-2.2,0.7-4.4,1.5-6.5c1.3-3.4,1.5-7,2-10.5c0.4-2.9-0.1-6-0.2-9
			c-0.1-1.8-0.1-3.7-0.2-5.5c0-1.2,0.1-2.4,0.1-3.6c0.3-0.2,0.7-0.4,0.7-0.6c0.6-2.2,1.2-4.5,1.6-6.7c0.3-1.6,0.4-3.3,0.6-4.9
			c0-0.2,0-0.5,0.1-0.5c1-0.5,0.6-1.3,0.7-2c0-4.8,0.3-9.6-1.1-14.3c-0.2-0.7-0.9-1.5-0.7-2c0.7-1.5-0.4-2.5-0.8-3.6
			c-1.3-3.7-2.2-7.6-4.5-11c-1.1-1.6-1.6-3.7-2.6-5.4c-1.1-1.9-2.4-3.7-3.7-5.5c-1.8-2.5-3.6-4.9-5.5-7.3c-0.3-0.5-0.8-0.8-1.2-1.2
			c-2.7-2.7-5.3-5.4-8-8.1c-1.6-1.6-3.3-3-4.6-4.7c-2.4-3.2-4.5-6.7-6.8-10c-1.1-1.5-2.4-2.9-3.7-4.2c-0.8-0.9-1.9-1.5-2.6-2.4
			c-1-1.3-2.4-1.9-3.8-2.2c-0.8-0.2-0.9-0.5-1-1.2c0.1-1.9,1.8-3.6,3.7-3.6c3.2-0.1,5.5,1.7,7.7,3.8c1.7,1.7,3.3,3.5,4.7,5.5
			c1.4,1.9,2.7,4,4.2,5.8c1.4,1.7,3.1,3.2,4.7,4.8c1.6,1.7,3.3,3.3,4.8,5.1c1.4,1.6,2.6,3.5,4.1,5.1c1.9,2,3,4.5,4.5,6.8
			c1.2,1.9,2.5,3.8,3.7,5.7c1.7,2.7,3.4,5.4,5.1,8.2c1.4,2.2,2.8,4.5,4.2,6.7c1.9,3.1,3.5,6.3,4.6,9.7c0.4,1.2,1.1,2.2,1.3,3.4
			c0.5,2.6,0.8,5.2,1.1,7.7c0,0.3,0,0.5,0,0.8c0,1.7,0,3.4,0,5.1c0.1,0,0.3,0,0.4,0c0.2-1.6,0.4-3.2,0.6-4.8
			c0.5-3.2,0.7-6.4,1.8-9.5c0.5-1.2,0.5-2.7,0.6-4c0.2-2.8,0.4-5.6,0.6-8.4c0.3-3,0.6-6.1,0.9-9.1c0.3-2.5,0.6-4.9,1.1-7.4
			c0.5-2.2,1.2-4.4,1.8-6.6c0.5-1.8,1-3.7,1.8-5.4c0.7-1.5,1.7-2.8,2.8-4.1c1.5-1.7,3.6-1.6,5.6-1.1c1.6,0.4,2.7,1.5,3.7,2.7
			c0.2,0.2,0.2,0.5,0.3,0.7c-0.2,0.4-0.3,0.9-0.5,1.1c-1.2,0.8-2.5,1.5-3.7,2.4c-1.1,0.8-2.2,1.7-2.9,2.8c-0.9,1.5-1.5,3.3-2.3,4.9
			c-0.2,0.5-0.7,1-0.8,1.6c-0.4,1.7-0.5,3.6-1.2,5.2c-1.1,2.6-0.6,5.5-1.7,8.1c-0.7,1.7-0.5,3.9-0.7,5.9c-0.2,1.8-0.4,3.6-0.5,5.4
			c-0.2,2.5-0.4,5-0.6,7.6c-0.1,1.5,0,3,0,4.5c0,0.4,0.1,1-0.1,1.2c-1.1,0.8-0.6,1.9-0.7,2.9c-0.2,2.2-0.4,4.3-0.5,6.5
			c-0.2,3-0.4,6-0.6,8.9c-0.2,2.4-0.4,4.9-0.6,7.3c0,0.1-0.1,0.3-0.1,0.4c-0.4,2.8-0.8,5.6-1.2,8.4c-0.2,1.4-0.4,2.8-0.6,4.1
			c-0.2,1-0.1,2.2-0.6,2.8c-1.1,1.1-0.7,2.4-1.2,3.6c-1,2.4-1.5,5-2.3,7.5c-0.2,0.6-0.6,1.2-0.8,1.9c-0.7,2-1.3,4-2,5.9
			c-0.5,1.3-1.1,2.6-1.6,4c-0.7,2-1.4,4.1-2.1,6.1c-0.5,1.4-1.1,2.7-1.4,4c-0.5,2-0.8,4-1.2,6c-0.2,0.9-0.1,1.9-0.6,2.6
			c-1.1,1.3-1,2.9-1.2,4.4c-0.3,2.3-0.2,4.8,0,7.1c0.1,1,0.7,1.9,1,2.9c0.4,1.9,0.8,3.7,1.2,5.5c0.2,0.7,0.4,1.5,0.9,1.8
			c0.5,0.3,1.7,0.2,1.9-0.1c1.5-2.3,2.7-4.8,4.3-7c1.8-2.5,3.9-4.9,6-7.1c1.8-1.9,3.6-3.8,5.7-5.2c2.5-1.7,5.3-2.9,8-4.1
			c2.2-1,4.5-1.7,6.8-2.4c0.8-0.3,1.7-0.5,2.6-0.6c2.2-0.2,3.9-1.5,5.9-2.3c2.7-1.1,5.3-2.2,7.8-3.6c2.4-1.3,4.6-2.8,6-5.3
			c0.6-1.2,1.7-2.1,2.4-3.2c1.6-2.7,3.1-5.5,4.7-8.3c1.2-2,2.3-4.1,3.6-6c1.6-2.2,3.3-4.4,5-6.5c1.1-1.3,2.4-2.5,3.6-3.7
			c1.9-1.8,3.8-3.6,5.8-5.3c1.4-1.1,3-2,4.4-3.1c0.9-0.7,1.7-1.7,2.6-2.5c2.9-2.3,5.9-4.6,8.8-6.8c1.9-1.4,4-2.6,5.6-4.2
			c1.5-1.5,3.4-2.6,4.4-4.7c0.7-1.5,1.8-2.8,2.9-4c0.6-0.6,1.6-1.2,2.5-1.2c1.4-0.1,2.9,0,4.1,0.5c1,0.4,1.7,1.6,2.5,2.4
			c-0.2,0.2-0.3,0.5-0.5,0.6c-1.8,0.7-3.7,1.2-5.4,2c-1.8,0.9-3.6,1.9-4.7,3.7c-0.1,0.1-0.2,0.2-0.3,0.3c-1.4,1.1-3,2.1-4.3,3.4
			c-1.9,1.8-3.5,3.7-5.3,5.5c-2.4,2.3-4.8,4.6-7.2,6.9c-0.5,0.5-0.9,1.2-1.5,1.7c-1.3,1.1-2.9,2-4.1,3.2c-2.2,2.1-4.2,4.3-6.3,6.5
			c-0.8,0.8-1.6,1.6-2.4,2.5c-0.5,0.5-0.8,1.2-1.3,1.7c-1.2,1.6-2.4,3.3-3.6,4.9c-1.4,2-2.5,4.1-3.1,6.4c-0.2,0.6-0.4,1.3-0.4,1.9
			c0,0.8,0.3,1.4,1.4,0.8c0.9-0.5,2-0.9,2.9-1.3c0.3-0.2,0.6-0.4,0.9-0.6c1.1-0.4,2.3-0.8,3.5-1.1c1.5-0.4,2.9-0.8,4.4-1.1
			c2-0.3,4-0.4,5.9-0.6c2-0.2,4-0.2,5.9-0.6c1.4-0.4,2.7-0.4,4-0.5c1.6-0.1,3.2-0.7,4.8-1.1c1.2-0.3,2.5-0.4,3.7-0.7
			c2.7-0.7,5.4-1.3,7.9-2.4c3.3-1.4,6.5-3.2,9.7-5c1.6-0.9,3.2-1.9,4.7-2.8c3-1.8,6-3.7,8.9-5.6c0.5-0.3,0.8-0.9,1.3-1.3
			c1.7-1.4,3.3-2.7,5-4.1c1.6-1.3,3.1-2.9,4.9-4c1.5-0.9,2.4-2.4,3.8-3.4c0.7-0.5,1-1.4,1.5-2c1.4-1.6,2.7-3.4,4.4-4.6
			c1.7-1.2,3.9-1.6,5.9-2.4c1.4,0,2.8,0,4.2,0c1.7,0.7,3.1,1.6,3.5,3.6c-3.3-0.1-5.8,1.8-8.3,3.5c-2.2,1.5-3.9,3.6-5.9,5.4
			c-1.1,1-2.4,1.8-3.6,2.8c-0.6,0.5-0.9,1.2-1.5,1.7c-1.6,1.4-3.2,2.7-4.8,4.1c-2.2,1.8-4.4,3.6-6.6,5.3c-1,0.8-2,1.7-3.1,2.5
			c-1.5,1-3.1,1.7-4.6,2.6c-1.8,1.1-3.4,2.4-5.3,3.2c-2.3,1-4.4,2.2-6.7,3.1c-1.9,0.8-3.9,1.4-5.8,2.1c-1.7,0.7-3.6,0.8-5.5,1.2
			c-1.7,0.4-3.5,0.9-5.2,1c-1.8,0.1-3.4,1.1-5.3,0.6c-0.1,0-0.2,0-0.3,0c-0.8,1.2-2,0.6-3,0.8c-1.3,0.2-2.7,0.4-4,0.6
			c-1.5,0.3-3,0.7-4.5,1c-1.9,0.4-3.9,0.7-5.7,1.3c-2.1,0.6-4.1,1.5-6.1,2.3c-2,0.8-4.1,1.4-6.1,2.3c-1.5,0.7-2.9,1.6-4.4,2.3
			c-1.6,0.8-3.4,1.3-5,2.1c-2.6,1.3-5.1,2.7-7.7,4.1c-2.6,1.4-5.2,2.7-7.7,4.2c-1.9,1.1-3.8,2.3-5.7,3.5c-0.8,0.5-1.5,0.9-2.2,1.4
			c-1.1,0.8-2.1,1.7-3.1,2.5c-1.5,1.3-3.2,2.4-4.6,3.8c-1.5,1.5-2.8,3.3-4.3,5c-0.6,0.7-1.5,1.3-2.1,2.1c-1.6,2.2-3.1,4.5-4.6,6.8
			c-0.9,1.4-1.9,2.8-2.6,4.2c-1.5,2.9-2.9,5.8-4.1,8.7C340,208.8,339.8,210.4,339.4,211.9z"/>
		<path class="st2" d="M197.4,69c2.2-0.3,3.8,1.1,5.7,1.7c2.8,0.9,4.8,2.9,7.2,4.5c3.2,2.2,5.7,5.2,8.3,8c1.1,1.2,2.3,2.4,3.2,3.7
			c2.3,3,4.5,6.1,6.7,9.2c1.8,2.5,3.7,4.9,5.5,7.3c1,1.3,1.9,2.6,2.8,3.9c0.1,0.2,0.4,0.3,0.5,0.5c0.9,1.1,1.7,2.2,2.5,3.3
			c0.1,0.1,0.2,0.2,0.3,0.3c1.7,1.9,3.5,3.8,5.2,5.8c1,1.3,1.9,2.7,2.8,4.1c0.2,0.2,0.3,0.4,0.5,0.6c2.2,2.1,3.6,4.7,5.4,7.1
			c1.7,2.2,2.8,4.8,4.2,7.1c2.1,3.4,3.4,7.2,4.5,11c0.4,1.4,1.2,2.7,1.6,4.1c0.5,1.8,0.9,3.6,1.3,5.4c0.5,2,1,3.9,1.5,5.9
			c0.3,1,0.5,2.1,0.7,3.1c0.2,1.5,0.4,2.9,1.3,4.2c0.5,0.7,0.4,1.7,0.6,2.6c0.6,2.4,0.9,4.9,1.8,7.2c0.7,1.9,1.1,3.8,2.1,5.6
			c0.7,1.2,1.2,3,1.8,4.4c0.9,2.4,2.1,4.6,3.3,6.9c1,2,2.1,4,3.3,5.9c0.8,1.3,1.8,2.4,2.9,3.5c2.8,3,5.6,6.1,8.5,9.1
			c1.2,1.2,2.6,2.3,3.9,3.4c0.9,0.8,1.7,1.8,2.7,2.6c2,1.7,4.1,3.3,6.1,5c1.6,1.4,3.1,3.1,4.6,4.5c0.8,0.8,1.8,1.3,2.6,2.1
			c2.1,2.3,4.2,4.7,6.3,7c1.7,1.9,3.3,3.8,4.3,6.2c0.3,0.6,1,0.9,1.3,1.5c1.3,2.4,2.5,4.9,3.8,7.3c1.9,3.5,3.1,7.3,4.2,11.1
			c0.6,1.9,1.4,3.7,2,5.5c0.6,1.8,1,3.6,1.5,5.4c0.5,1.7,1,3.5,1.5,5.2c0.2,0.9,0.4,1.7,0.6,2.6c0.4,1.3,1,2.6,1.4,3.9
			c0.8,2.2,1.4,4.4,2.2,6.5c0.6,1.6,1.5,3.1,2.1,4.6c0.9,2.4,1.7,4.8,2.5,7.1c0.6,1.5,1.2,3,1.8,4.5c0.3,0.7,0.4,1.5,0.6,2.2
			c0.2,1.2,0.4,2.4,0.6,3.6c0.4,2.6,0.5,5.2,1.5,7.7c0.7,1.7,0.8,3.6,1.3,5.4c0.2,0.9,0.7,1.7,1.1,2.6c0.3,0.7,0.6,1.5,0.7,2.3
			c0.6,2.4,1.1,4.9,1.7,7.3c0.6,2.2,1.4,4.4,2.1,6.6c0.9,2.8,1.7,5.6,2.6,8.4c0.7,2.2,1.4,4.3,2.2,6.4c1,2.4,2.2,4.8,3.3,7.2
			c2,4.4,3.9,8.8,6,13.2c0.9,1.9,2.1,3.6,3,5.4c1.9,3.8,3.9,7.6,5.7,11.5c1.7,3.8,3.2,7.6,4.8,11.5c1.2,2.8,2.4,5.6,3.4,8.4
			c0.6,1.5,0.8,3.1,1.3,4.6c0.3,0.9,0.9,1.7,1.2,2.6c0.5,1.4,0.8,2.8,1.2,4.2c0.7,2.3,1.4,4.6,2,6.9c0.3,1,0.5,2,0.7,3
			c0.6,2,1.3,4,1.8,6c0.3,1,0.4,2,0.7,3c0.7,3,1.4,5.9,2.1,8.9c0.3,1.2,0.4,2.5,0.6,3.7c0.1,0.6,0.4,1.1,0.6,1.6
			c0,0.1,0.1,0.2,0.1,0.2c-0.2,0.9,0.2,1.6,0.5,2.4c0.5,1.4,0.4,2.9,0.7,4.4c0.3,1.5,0.7,2.9,1,4.4c0.2,1,0.4,2.1,0.6,3.2
			c0.2,1.4,0.4,2.8,0.6,4.1c0.3,1.5,0.7,3,1,4.5c0.2,1.2,0.5,2.5,0.6,3.7c0.2,1.4,0.1,3,0.6,4.2c1,2.2,1,4.4,1.3,6.7
			c0.3,2.1,0.7,4.2,1.1,6.3c0.5,2.5,1.1,5,1.6,7.6c0.3,1.5,0.4,3,0.6,4.5c0.3,1.8,0.7,3.7,1,5.5c0,0.1,0.1,0.2,0.1,0.3
			c0.2,1.7,0.4,3.5,0.6,5.2c0.1,0.5,0.4,1,0.6,1.5c0.1,0.2,0.2,0.3,0.2,0.5c0.2,1.8,0.3,3.6,0.6,5.4c0.3,2.1,0.7,4.1,1,6.2
			c0,0.1,0,0.2,0,0.3c0.2,2,0.3,4,0.6,5.9c0.3,1.9,0.7,3.8,1,5.6c0,0.1,0,0.2,0,0.3c0.2,1.8,0.3,3.7,0.6,5.5c0.3,2.4,0.7,4.9,1,7.3
			c0,0.1,0,0.2,0,0.3c0.2,2.6,0.3,5.1,0.6,7.7c0.2,2.1,0.7,4.2,1,6.3c0.1,0.7,0,1.4,0.1,2.1c0.1,0.9-0.3,1.7,0.7,2.5
			c0.3,0.3,0.2,1.3,0.1,2c-0.1,1.1-0.7,2.3,0.5,3.2c0.1,0.1,0.1,0.3,0.1,0.4c0.2,2.2,0.4,4.3,0.6,6.5c0.2,2.7,0.4,5.4,0.6,8.1
			c0.1,1.8,0.4,3.6,0.5,5.4c0.2,1.9,0.4,3.9,0.5,5.8c0.2,2.3,0.2,4.7,0.6,7c1.1,6.6,0.3,13.3,0.5,20c0.1,2.6-0.1,5.3-0.3,7.9
			c-0.2,2.9-0.7,5.7-1.1,8.5c-0.3,2-0.6,4.1-1.1,6c-0.4,1.7-1.2,3.3-1.7,4.9c-0.3,1.1-0.5,2.3-0.8,3.4c-1.9,0.5-3.8,1.4-5.8,1.6
			c-2.4,0.2-4.5,1.6-7,1c-0.1,0-0.3,0-0.4,0.1c-0.6,1-1.6,0.5-2.5,0.7c-0.5,0.1-1,0.2-1.5,0.3c-0.5,0.1-1,0.5-1.5,0.4
			c-1.2-0.2-2.3-0.8-3.2,0.6c0,0-0.2,0-0.3,0c-1.3,0-2.6-0.1-3.8-0.1c-0.7,0-1.4,0.1-2.1,0.2c-0.6,0.1-1.2,0.4-1.8,0.4
			c-3.7,0.5-7.2-0.5-10.8-0.9c-1-0.1-2.1-0.5-3.1-0.9c-2.4-0.9-4-2.7-5.8-4.4c-0.1-0.1-0.1-0.4-0.2-0.6c-0.3-1-0.7-2-1-3
			c-0.1-0.4-0.1-0.8-0.1-1.2c0.1-1.2,0.4-2.4,0.5-3.6c0.1-2.7,0.2-5.5,0.3-8.2c0-0.7-0.2-1.4-0.4-2.1c-0.1-0.5-0.4-0.9-0.4-1.4
			c0-5.6,0-11.1,0-16.7c0-0.3-0.1-0.8,0.1-0.9c1.1-0.8,0.7-1.9,0.7-3c0.1-1,0.4-1.9,0.6-2.9c0.1-0.6,0.1-1.2,0.1-1.7
			c0-0.8-0.2-1.6-0.1-2.3c0.1-1.1,0.3-2.2,0.5-3.3c0.2-1.4,1.2-2.6,0.6-4.1c0-0.1,0.2-0.3,0.3-0.4c0.2-0.5,0.4-1,0.5-1.5
			c0.1-0.6-0.2-1.4,0.1-1.7c1.3-1.6,0.1-3.5,1-5.2c0.6-1.2,0.4-2.7,0.7-4.1c0.1-0.7,0.2-1.7,0.7-2.1c1.4-1.1,0.5-2.8,1.2-4.1
			c0.6-1.2,0.8-2.6,1.1-3.9c0.3-1.2,0.4-2.4,0.7-3.6c0.1-0.3,0-0.8,0.1-0.9c0.9-0.7,0.6-1.6,0.7-2.5c0-0.4,0-0.7,0.1-1.1
			c0.4-1.8,0.8-3.7,1.2-5.5c0-0.2-0.1-0.4-0.1-0.5c0.1-1,0.3-2.1,0.5-3.1c0.1-0.3,0.3-0.6,0.2-0.9c-0.4-1.3,0.1-2.6,0.2-3.8
			c0.2-2.6,1.9-4.9,1-7.6c-0.1-0.2-0.1-0.5,0-0.7c0.9-1,0.4-2.2,0.5-3.4c0.1-0.9,0.2-1.8,0.4-2.7c0.1-0.7,0.4-1.4,0.4-2.1
			c0-2.8-0.2-5.6-0.2-8.4c0-0.5,0.4-1.1,0.5-1.6c0.1-1,0-2.1,0-3.1c0-0.5-0.4-0.9-0.4-1.4c0-1.4,0.2-2.8,0.2-4.2
			c0.1-1.5,0.1-3,0.1-4.5c0-1,0-2.1-0.1-3.1c-0.1-1.5-0.4-3-0.5-4.6c-0.1-0.6,0.1-1.2,0-1.7c-0.1-0.9-0.4-1.8-0.5-2.7
			c-0.2-2.5-0.4-4.9-0.6-7.4c0-0.2,0-0.4-0.1-0.5c-1.1-0.9-0.6-2.1-0.6-3.2c0-0.5,0-1-0.1-1.4c-0.1-1-0.3-2-0.4-3c0-0.3,0-0.5,0-0.8
			c-0.4-1.9-0.9-3.8-1.2-5.7c-0.3-1.9-0.3-3.7-0.4-5.6c0-0.2-0.2-0.3-0.2-0.5c-0.2-0.6-0.4-1.3-0.5-1.9c-0.1-0.6-0.1-1.3-0.2-1.9
			c-0.1-0.8-0.2-1.7-0.4-2.5c-0.1-0.6-0.2-1.2-0.3-1.8c-0.1-0.3-0.2-0.7-0.3-1c-0.2-1.7-0.4-3.4-0.6-5.1c0-0.2-0.1-0.3-0.1-0.5
			c-0.3-1.6-0.7-3.1-0.9-4.7c-0.3-1.4-0.1-3.1-0.7-4.3c-0.9-1.8-0.5-3.6-1.2-5.4c-0.4-1.1-0.2-2.5-0.5-3.7c-0.5-1.7-1.3-3.2-0.9-5
			c0-0.1-0.1-0.3-0.1-0.4c-0.2-0.7-0.5-1.5-0.7-2.2c-0.3-1.1-0.4-2.2-0.7-3.3c-0.3-1.3-0.7-2.5-0.9-3.7c-0.3-1.4-0.4-2.7-0.6-4.1
			c0-0.1-0.1-0.2-0.1-0.4c-0.4-1.3-0.9-2.6-1.2-3.9c-0.3-1.3-0.4-2.6-0.6-3.8c-0.1-0.8-0.1-1.6-0.3-2.3c-0.4-1.4-1-2.7-1.3-4.2
			c-0.5-2.1-0.8-4.2-1.1-6.3c-0.2-1.1-0.4-2.1-0.6-3.2c0-0.2-0.1-0.3-0.2-0.5c-0.4-1.2-0.9-2.3-1.2-3.5c-0.3-1.2-0.4-2.4-0.6-3.6
			c-0.1-0.8-0.2-1.7-0.4-2.4c-0.5-1.9-1.2-3.7-1.7-5.6c-0.5-1.8-0.7-3.6-1.2-5.4c-0.3-1.1-0.9-2.2-1.2-3.3c-0.3-0.9-0.5-1.8-0.7-2.8
			c0.2-0.1,0.3-0.1,0.5-0.2c0.2,0.3,0.4,0.6,0.6,0.9c0.8,2.3,1.6,4.6,2.4,6.8c0.8,2.3,1.6,4.6,2.4,6.9c0.4,1.2,0.7,2.5,1.1,3.8
			c0.3,1,1.1,1.9,0.6,3c-0.1,0.2,0.2,0.4,0.2,0.6c0.5,1.6,1.1,3.2,1.5,4.9c0.3,1.3,0.4,2.6,0.5,4c0.1,0.9-0.1,2,0.3,2.6
			c0.6,0.9,1,1.6,1.1,2.8c0.1,1.9,0.7,3.8,1.1,5.7c0.2,0.8,0.3,1.7,0.4,2.6c0.6-0.3,0.9-0.5,1.2-0.6c0.4,2,0.8,4,1.2,6
			c0.2,1,0.1,2.3,0.7,3c1,1.2,0.7,2.6,1.1,3.9c0.5,1.2,0.4,2.6,0.7,3.8c0.5,2.6,1.1,5.2,1.6,7.9c0.3,1.6,0.4,3.3,0.6,5
			c0.2,1.3,0.4,2.7,0.6,4c0.3,1.8,0.7,3.7,1,5.5c0,0.3-0.1,0.6,0.1,0.8c1,1.3,0.3,3,1.2,4.3c0.5,0.8,0.4,2.1,0.6,3.1
			c0.5,2.8,1.1,5.6,1.7,8.4c0.5,2.7,1.2,5.4,1.6,8.1c0.5,2.7,0.8,5.4,1.2,8.1c0,0.2,0,0.6,0.1,0.7c1.2,1.1,0.7,2.8,1.2,4.1
			c0.5,1.4,0.3,3,0.7,4.5c0.7,2.9,1.1,5.8,1,8.8c0,0.7,0,1.4,0,2.1c0,0.3,0.1,0.5,0.2,0.8c0.1,0,0.3,0,0.4,0
			c0.1-3.7,0.3-7.5,0.4-11.2c0-0.8,0.1-1.7-0.1-2.5c-0.3-2.1-0.7-4.2-1-6.4c-0.3-1.8-0.4-3.6-0.6-5.4c-0.2-1.1-0.4-2.3-0.7-3.4
			c-0.3-1.4-0.6-2.9-0.9-4.3c0.2-1,0.6-2.1,0.5-3.1c-0.2-1.5-1-3-1-4.5c0-2.1-0.2-4-1.1-5.9c-0.1-0.3,0-0.6,0-0.9
			c-0.2-1.7,0.1-3.7-0.6-5.2c-0.5-1.1-0.4-2.1-0.6-3.1c-0.4-2.6-1-5.2-1.5-7.9c-0.3-1.2-0.6-2.4-0.9-3.6c0-0.2,0.1-0.4,0-0.5
			c-0.1-0.8-0.3-1.6-0.4-2.4c-0.1-0.4-0.2-0.7-0.2-1.1c-0.1-1.7-0.2-3.3-0.4-5c-0.1-0.6-0.5-1.1-0.6-1.6c-0.2-1.5-0.3-3-0.6-4.4
			c-0.3-1.3-0.3-2.6-1-3.9c-0.6-1.2-0.4-2.8-0.7-4.2c-0.2-1.2-0.5-2.3-0.9-3.4c-0.3-1.1-0.8-2.1-1-3.2c-0.4-1.9-0.6-3.9-1.1-5.8
			c-0.5-2-0.8-4.1-1.7-6c-0.9-2.1-1.4-4.3-2-6.4c-0.6-2-1.6-4-2.1-6.1c-0.7-3-1.6-5.9-2.9-8.8c-1-2.4-1.4-5-2.2-7.5
			c-0.6-1.7-1.4-3.4-2.1-5.1c-0.2-0.4-0.5-0.8-0.6-1.2c-0.4-1.4-0.7-2.9-1.2-4.3c-0.5-1.4-1.1-2.8-1.6-4.2c-0.8-2.2-1.5-4.3-2.3-6.5
			c-0.2-0.6-0.5-1.3-0.7-1.9c-0.6-1.5-1.2-3.1-1.9-4.6c-0.3-0.7-1.1-1-1.8-0.4c-0.8,0.6-0.7,1.2-0.4,2.1c0.3,0.9,0.3,1.9,0.5,2.8
			c-0.2,0.1-0.4,0.1-0.6,0.2c-0.3-0.8-0.6-1.5-0.8-2.3c-0.3-0.8-0.5-1.7-0.8-2.6c-0.5-1.4-1.2-2.8-1.7-4.2c-0.7-2.2-1.5-4.4-2-6.6
			c-0.4-1.9-2.2-3.4-1.7-5.6c0-0.2-0.2-0.5-0.3-0.7c-0.3-0.6-0.6-1.1-0.8-1.7c-0.2-0.6-0.1-1.3-0.4-1.9c-1.5-3.1-1.7-6.7-3.6-9.6
			c-0.8-1.2-0.8-2.9-1.2-4.3c-0.2-0.6-0.4-1.3-0.5-1.9c-0.2-1.2-0.2-2.4-0.6-3.5c-0.7-2.1-1.6-4-2.4-6c-0.8-2-1.5-4-2.3-6
			c-0.3-0.6-1-1.1-1.6-1.5c-0.4-0.3-1.2-0.5-1.2-0.7c0-0.5,0.4-1,0.7-1.4c0.2-0.3,0.8-0.5,0.9-0.8c0.2-0.4,0.3-1.1,0.1-1.3
			c-0.5-0.5-1.3-0.9-1.9-1.3c-1.4-0.9-2.8-1.7-4.1-2.6c-2.1-1.4-4.3-2.3-6.8-2.7c0.2-0.3,0.3-0.6,0.4-0.8c-0.9-0.5-1.8-0.9-2.7-1.3
			c-0.2-0.1-0.5,0-0.8,0.1c-0.4,0-0.8,0.2-1.1,0.1c-1.2-0.9-2.4-0.6-3.7-0.5c-0.4,0-0.8,0.1-1.1-0.1c-2.6-1.1-5.3-0.8-7.9-0.5
			c-2.2,0.2-4.5,0.4-6.7,0.5c-1.3,0.1-2.6-0.1-3.9,0c-1.5,0.1-3,0.7-4.4,0.6c-5.6-0.3-11.2,0.9-16.7-0.7c-1.4-0.4-3,0-4.4-0.1
			c-0.8,0-1.7-0.3-2.5-0.4c-0.8-0.1-1.6-0.1-2.4-0.1c-0.5,0-0.9,0.1-1.4,0c-1.7-0.4-3.4-0.8-5.1-1.3c-1.3-0.4-2.6-0.8-3.9-1.2
			c-1.4-0.3-2.7-1.2-4.3-0.2c-0.7,0.5-2.2,0.2-3.1-0.2c-2.9-1.4-5.7-3.1-8.5-4.6c-2.2-1.2-4.4-2.3-6.6-3.5c-2-1.2-4-2.3-5.8-3.8
			c-2-1.7-4.8-1.8-6.6-3.9c-0.3-0.4-1.2-0.3-1.7-0.6c-1-0.7-1.9-1.6-3-2.3c-1.8-1.3-3.8-2.4-5.5-3.9c-1.3-1.1-2.5-2.2-4.1-2.9
			c-1.2-0.5-1.8-1.9-3.2-2.2c-0.9-0.2-1.7-0.7-2.6-1c-1.5-0.5-3-0.8-4.2-2.3c0.5-0.1,0.9-0.1,1.2-0.2c1,0.2,1.9,0.3,2.9,0.5
			c0.7,0.2,1.4,0.6,2.1,0.8c0.9,0.3,1.9,0.5,2.8,0.9c2.2,1.1,4.4,2.3,6.6,3.5c2.1,1.3,4.2,2.6,6.2,4c3,2.2,6,4.5,9,6.7
			c0.7,0.5,1.5,0.9,2.2,1.4c1.4,0.9,2.7,1.9,4,2.8c0.7,0.5,1.5,0.9,2.2,1.4c2.1,1.4,4.7,1.7,6.6,3.5c0.1,0.1,0.3,0.1,0.4,0.1
			c2.3,0.8,4.6,1.6,6.9,2.4c1.8,0.6,3.6,1.4,5.4,1.7c2.3,0.4,4.7,0.6,7,0.6c4.6-0.1,9.3,0.3,13.9-0.4c2.7-0.4,5.4-0.6,8.1-1.3
			c1.5-0.4,2.9-1.2,4.2-1.9c0.3-0.1,0.4-0.5,0.6-0.8c-1.6-0.3-2.9-0.6-4.3-0.8c-0.3-0.3-0.7-0.6-1.1-0.8c-1.8-1.2-3.6-2.3-5.4-3.6
			c-2-1.5-3.9-3-5.8-4.6c-1.8-1.5-3.5-3.2-5.2-4.7c-0.9-0.8-2-1.5-3-2.3c-1.7-1.6-3.4-3.3-5.1-4.9c-0.8-0.8-1.8-1.4-2.7-2.1
			c-1.9-1.5-3.8-3.1-5.7-4.6c-0.5-0.4-1-0.7-1.4-1c-1.8-1.5-3.7-3-5.5-4.6c-1.9-1.7-3.6-3.5-5.5-5.2c-2.4-2.2-4.8-4.4-7.3-6.6
			c-1.7-1.6-3.4-3.3-5.2-4.6c-1.4-1-3.1-1.6-4.7-2.5c-2.2-1.1-4.9-1.2-6.8-3c-0.9-0.8-1.6-1.8-1.3-3.1c0.7-0.2,1.5-0.4,2.2-0.4
			c0.7,0,1.5,0.2,2.2,0.4c1.4,0.4,3,0.5,4.2,1.3c2.4,1.7,5.1,3.1,7.1,5.4c0.6,0.7,1.6,1.1,2.4,1.6c0.3,0.2,0.6,0.5,0.9,0.7
			c1.1,0.8,2.3,1.6,3.4,2.4c1.3,1,2.5,2.1,3.7,3.1c0.8,0.7,1.5,1.4,2.3,2c1.2,0.9,2.6,1.7,3.8,2.6c1.6,1.3,3,2.8,4.6,4
			c2.1,1.5,4.1,3,6.1,4.8c1,0.9,2.3,1.7,3.4,2.5c1.3,0.9,2.8,1.6,4,2.6c1.7,1.6,3.8,2.1,5.8,3c0,0,0.1-0.1,0.2-0.2
			c-0.8-1.5-1.7-2.9-2.5-4.4c-0.5-0.9-0.9-1.7-1.4-2.6c-0.5-1.6-0.9-3.2-1.4-4.8c-0.6-2.2-1.2-4.4-1.9-6.6c-0.3-1-0.9-1.9-1.2-2.9
			c-0.3-0.7-0.4-1.5-0.6-2.3c-0.4-1.8-0.8-3.7-1.2-5.5c-0.5-2.5-1-5.1-1.5-7.6c-0.2-1.3-0.5-2.6-0.6-3.9c-0.2-1.4-0.4-2.7-1.2-3.9
			c-0.6-0.9-0.7-2.1-1-3.1c-1-2.8-3.1-4.8-4.9-7c-1.9-2.2-3.7-4.5-5.7-6.6c-1.9-2-4.1-3.7-6.1-5.5c-2.1-1.9-4.2-3.7-6.2-5.7
			c-2.9-2.9-5.6-6-8.5-9c-2.2-2.2-4.5-4.2-6.7-6.4c-0.9-1-1.6-2.3-2.3-3.4c-1.6-2.3-0.9-4.6-0.1-6.9c0-0.1,0.3-0.1,0.4-0.2
			c1,0.8,2.1,1.5,3.1,2.3c1.8,1.4,3.1,3.3,5.1,4.6c1,0.6,1.4,2.1,2.3,2.9c2.2,2,4.2,4.1,5.9,6.5c1.4,1.9,3.1,3.5,4.7,5.3
			c0.8,1,1.5,2.1,2.3,3.1c1.8,2,3.6,3.9,5.4,5.7c3,2.9,6,5.8,9,8.7c0.8,0.8,1.8,1.3,2.7,1.9c-0.5-2.8-2.4-5.1-2.7-8
			c-0.4-2-0.8-4.1-1.3-6.1c-0.5-2-1.2-4-1.7-6c-1-3.7-1.8-7.4-2.8-11.1c-0.4-1.6-1.1-3.1-1.6-4.6c-0.5-1.3,0.1-3.2,1.2-3.7
			c0.3-0.1,0.7,0.1,1.1,0.2c0.2,0.6,0.2,1.3,0.5,1.7c1.4,1.8,2.3,3.8,3,6c0.6,1.9,1.5,3.8,2,5.8c0.3,1.2,1.6,2.2,1,3.6
			c0,0.1,0,0.2,0.1,0.2c0.4,1.2,0.8,2.5,1.1,3.7c0.3,1.3,0.5,2.6,0.7,3.9c0.2,1.1,0.7,2.1,0.9,3.2c0.4,2.1,0.7,4.3,1.2,6.4
			c0.2,1.1,0.7,2.2,1,3.3c0.3,1,0.6,2,0.9,3c0.6,2.4,1.3,4.8,2.6,6.9c0.7,1.1,1.7,2,2.6,3c1,1.3,2,2.5,2.9,3.9c1,1.5,2.2,3,2.8,4.7
			c1,2.7,2.2,5.3,2.7,8.1c0.4,1.9,1,3.8,1.5,5.6c0.4,1.7,0.7,3.5,1.1,5.2c0.2,0.9,0.4,1.7,0.6,2.6c0.2,1.1,0.4,2.3,0.6,3.4
			c0.2,0.7,0.4,1.5,0.7,2.2c0.4,1,0.8,2,1.2,3c0.5,1.4,0.8,2.9,1.4,4.3c1.2,2.6,2.4,5.3,4,7.6c1.9,2.6,4.2,5.1,6.6,7.3
			c1.5,1.3,3.4,2.2,5.2,3.1c1.1,0.6,2.4,1,3.6,1.5c1.9,0.7,3.7,1.5,5.6,2.1c0.9,0.3,1.8,0.4,2.7,0.6c2.4,0.5,4.9,1.1,7.3,1.6
			c0.2,0,0.5,0,0.5,0.1c0.6,1.1,1.6,0.6,2.4,0.7c0.3,0,0.6,0,1,0.1c2.1,0.3,4.2,0.7,6.3,1.1c0.2,0,0.5,0,0.7,0.1
			c1.8,0.3,3.7,0.7,5.5,1c0.6,0.1,1.2,0.3,2,0.5c-0.2-0.4-0.3-0.8-0.6-1.2c-0.3-0.5-0.8-1-1.2-1.5c-0.2-0.5-0.2-1.1-0.6-1.5
			c-0.6-0.6-0.5-1.2-0.6-1.8c-0.3-1.9,1.3-4-0.7-5.6c-0.1-0.1,0-0.5-0.1-0.8c-0.2-1.1-0.2-2.2-0.6-3.2c-1-2.4-2.1-4.8-1.9-7.5
			c0-0.2-0.1-0.4-0.2-0.6c-0.4-1-0.8-2.1-1.1-3.1c-0.1-0.2,0.1-0.6,0.3-1.2c0.4,0.7,0.7,1,0.9,1.4c0.6,1.1,1,2.4,1.7,3.4
			c0.2,0.3,1.2,0.3,1.7,0.2c0.2,0,0.3-0.7,0.4-1.1c0-0.2-0.2-0.4-0.2-0.6c-0.2-1.3-0.4-2.6-0.7-3.9c-0.4-1.4-1-2.7-1.6-4
			c-1.2-2.5-2.4-5-3.8-7.3c-1.6-2.6-3.6-4.9-5.4-7.3c-0.6-0.8-1.5-1.4-2.2-2.2c-1.8-2.2-3.6-4.5-5.4-6.6c-0.8-1-1.7-1.8-2.7-2.6
			c-0.2-0.2-0.7-0.1-1.1-0.2c-0.4-0.3-1-0.5-1.3-0.8c-2.1-2.2-4.3-4.4-6.4-6.7c-0.9-1-1.8-2.1-2.6-3.1c-1-1.2-2-2.4-2.9-3.7
			c-1.5-1.9-3.1-3.7-4.5-5.7c-1-1.4-1.7-3-2.5-4.5c-1-1.6-2.1-3.1-3-4.8c-1.2-2-2.3-4.1-3.3-6.2c-0.7-1.6-1.2-3.2-1.9-4.8
			c-1-2.4-2.1-4.7-3-7.1c-1.2-3.3-2.2-6.7-3.2-10.1c-0.2-0.8-0.2-1.7-0.7-2.3c-0.9-1.2-0.8-2.6-1.2-3.8c1.2-0.2,1.1-1.2,0.9-2
			c-0.1-0.9-1.8-1.9-2.5-1.7c-1.6,0.5-1.8,0.3-1.8-1.4c0-1,0.3-2.2-0.2-2.8c-0.8-1-0.5-1.7-0.4-2.7c0.1-0.7,0-1.5-0.2-2.2
			c-0.1-0.6-0.5-1.2-0.6-1.8c-0.4-1.8-0.5-3.6-1-5.3c-0.3-1.1-1.1-2.1-1.6-3.1c-0.3-0.6-0.4-1.4-0.7-2c-0.9-1.7-2-3.3-2.8-5.1
			c-0.2-0.5-0.1-1.6,0.3-2c0.9-1,1.2-1.7-0.3-2.4c-0.1-0.1-0.3-0.3-0.3-0.4c-0.4-2.1-2-2.8-3.7-3.7c0,0,0,0,0,0
			c-0.1-1.9-1.2-3-2.7-4c-0.7-0.4-1.3-1.1-1.8-1.8c-0.8-1-1.5-2.1-2.2-3.1c-1.5-2.2-3.6-4-4.2-6.7c-0.1-0.3-0.4-0.6-0.6-0.9
			c-0.8-1.5-1.6-2.9-2.3-4.4c-0.6-1.3-1-2.7-1.7-3.9c-0.3-0.6-1-1.1-1.5-1.6c-0.1-0.1-0.5,0.2-0.7,0.3c-0.6-1-1.3-2.1-1.9-3.1
			c-0.9-1.4-1.8-2.8-2.7-4.1c0.1-0.2,0.4-0.5,0.3-0.6c-1.2-1.7-1.3-4-3.6-4.9c-0.5-0.2-0.7-1-1.1-1.5c-0.5-0.7-1-1.3-1.5-1.9
			c-1.2-1.2-2.4-2.3-3.6-3.5c-1-0.9-1.9-1.9-2.9-2.8c-0.2-0.2-0.6-0.3-0.8-0.5c-0.9-1.6-2.3-2.2-3.9-2.6c0-0.1,0-0.3-0.1-0.4
			c-1.5-1.1-3-2.3-4.6-3.2c-0.4-0.2-1.3,0.4-2,0.7c0.2,0.5,0.4,1,0.8,1.4c0.6,0.6,1.7,0.9,1.4,2.1c-1.1,0.3-1.7-0.4-2.3-1.1
			c-0.7-0.7-1.4-1.4-2.1-2.1c-0.9-0.9-2-1.7-2.5-2.8C198.1,72.6,197.8,70.8,197.4,69z M375.5,671.6c0.2,0,0.3,0,0.5-0.1
			c0.1-2.2,0.4-4.4,0.4-6.6c0.2-8.9-0.7-17.8,1.1-26.6c0.4-1.8,0.6-3.5,0.9-5.3c0.5-2.3,1.2-4.6,1.5-6.9c0.3-1.8,0.6-3.5,1.3-5.2
			c0.8-1.8,0.8-3.9,1.3-5.9c0.3-1.3,0.6-2.5,0.9-3.7c0.3-1.1,0.7-2.1,1-3.2c0.3-1.3,0.4-2.6,0.6-3.8c0.2-0.9,0.3-1.9,0.6-2.7
			c0.8-2,0.9-4.2,1.7-6.2c0.9-2.4,0.9-5.2,1.3-7.8c0.2-1.3,0.1-2.8,0.7-4c0.9-1.9,0.2-4,1.1-6c0.8-2,0.6-4.4,0.7-6.7
			c0.1-3.1,0.1-6.2,0-9.4c0-0.5-0.4-1-0.7-1.4c-0.1-0.1-0.8,0-0.9,0.2c-0.3,1.3-0.7,2.5-0.9,3.8c-0.3,1.8-0.4,3.6-0.6,5.4
			c-0.3,2.8-0.7,5.6-1.1,8.4c-0.3,2-0.5,3.9-0.9,5.9c-0.5,2.3-1.1,4.6-1.5,6.9c-0.5,2.4-1,4.9-1.5,7.4c0,0.1-0.1,0.3-0.1,0.4
			c-0.5,1.9-1,3.9-1.5,5.8c-0.6,2.2-1.1,4.5-1.7,6.7c-0.3,1.1-0.5,2.2-0.8,3.2c-0.3,1.2-0.6,2.5-0.9,3.7c-0.3,1.1-0.7,2.1-1,3.2
			c-0.4,2.1-0.6,4.4-1.2,6.4c-0.8,2.5-0.5,5.3-1.7,7.7c-0.5,0.9-0.5,2.2-0.6,3.3c-0.2,2.1-0.6,4.2-0.5,6.3c0.1,4.4,0.3,8.8,0.5,13.2
			c0.1,1.3,0.4,2.6,0.6,3.9c0.3,2.2,0.7,4.3,1,6.5C375.1,669.6,375.3,670.6,375.5,671.6z M254.2,235c0.2,1,0.3,1.7,0.4,2.4
			c0.2,1,0.4,1.9,0.6,2.9c0.5,1.9,1.3,3.7,1.5,5.7c0.2,2.8,1.9,5.2,1.8,8c0,0.1,0.1,0.2,0.1,0.2c0.4,0.9,0.9,1.7,1.2,2.6
			c0.7,2,1.2,4,2.1,5.9c1.1,2.3,2.3,4.4,3.7,6.6c1.2,2,2.6,3.9,4,5.9c0.2,0.3,0.5,0.5,0.7,0.8c1.1,1.3,2.1,2.6,3.2,3.9
			c0.2-0.1,0.3-0.2,0.5-0.3c-0.2-0.3-0.3-0.7-0.5-1c-0.6-0.9-1.4-1.8-2-2.8c-1.6-3-3.3-6-4.7-9c-1.5-3-2.8-6.1-4.1-9.1
			c-0.8-2-1.4-4.1-2.2-6.1c-1-2.5-1.5-5.2-2.9-7.6c-1-1.7-1.2-3.9-1.8-5.8C255.4,237,255.5,235.8,254.2,235z"/>
		<path class="st3" d="M371.3,439.7c-0.3,0.2-0.6,0.3-1.2,0.6c-0.2-1-0.3-1.8-0.4-2.6c-0.4-1.9-1-3.8-1.1-5.7
			c-0.1-1.2-0.5-1.9-1.1-2.8c-0.4-0.6-0.2-1.7-0.3-2.6c-0.2-1.3-0.2-2.7-0.5-4c-0.4-1.6-1-3.2-1.5-4.9c-0.1-0.2-0.3-0.5-0.2-0.6
			c0.5-1.2-0.3-2-0.6-3c-0.4-1.2-0.7-2.5-1.1-3.8c-0.8-2.3-1.6-4.6-2.4-6.9c-0.8-2.3-1.6-4.6-2.4-6.8c-0.1-0.3-0.4-0.6-0.6-0.9
			c-0.2,0.1-0.3,0.1-0.5,0.2c0.2,0.9,0.4,1.9,0.7,2.8c0.4,1.1,0.9,2.2,1.2,3.3c0.5,1.8,0.7,3.6,1.2,5.4c0.5,1.9,1.2,3.7,1.7,5.6
			c0.2,0.8,0.3,1.6,0.4,2.4c0.2,1.2,0.3,2.4,0.6,3.6c0.3,1.2,0.8,2.3,1.2,3.5c0.1,0.2,0.1,0.3,0.2,0.5c0.2,1,0.4,2.1,0.6,3.2
			c0.4,2.1,0.7,4.2,1.1,6.3c0.3,1.4,0.9,2.8,1.3,4.2c0.2,0.7,0.2,1.5,0.3,2.3c0.2,1.3,0.3,2.6,0.6,3.8c0.3,1.3,0.8,2.6,1.2,3.9
			c0,0.1,0.1,0.2,0.1,0.4c0.2,1.4,0.3,2.7,0.6,4.1c0.2,1.3,0.6,2.5,0.9,3.7c0.3,1.1,0.4,2.2,0.7,3.3c0.2,0.7,0.4,1.5,0.7,2.2
			c0,0.1,0.1,0.3,0.1,0.4c-0.4,1.8,0.4,3.4,0.9,5c0.4,1.2,0.1,2.5,0.5,3.7c0.6,1.8,0.2,3.6,1.2,5.4c0.6,1.2,0.5,2.9,0.7,4.3
			c0.3,1.6,0.6,3.1,0.9,4.7c0,0.2,0.1,0.3,0.1,0.5c0.2,1.7,0.4,3.4,0.6,5.1c0,0.3,0.2,0.7,0.3,1c0.1,0.6,0.2,1.2,0.3,1.8
			c0.1,0.8,0.3,1.7,0.4,2.5c0.1,0.6,0.1,1.3,0.2,1.9c0.1,0.6,0.3,1.3,0.5,1.9c0.1,0.2,0.2,0.3,0.2,0.5c0.1,1.9,0.1,3.8,0.4,5.6
			c0.3,1.9,0.8,3.8,1.2,5.7c0.1,0.3,0,0.5,0,0.8c0.1,1,0.3,2,0.4,3c0.1,0.5,0.1,1,0.1,1.4c0,1.1-0.5,2.3,0.6,3.2
			c0.1,0.1,0.1,0.3,0.1,0.5c0.2,2.5,0.3,4.9,0.6,7.4c0.1,0.9,0.4,1.8,0.5,2.7c0.1,0.6,0,1.1,0,1.7c0.1,1.5,0.4,3,0.5,4.6
			c0.1,1,0.1,2.1,0.1,3.1c0,1.5,0,3-0.1,4.5c0,1.4-0.2,2.8-0.2,4.2c0,0.5,0.4,0.9,0.4,1.4c0.1,1,0.1,2.1,0,3.1
			c0,0.5-0.5,1.1-0.5,1.6c0,2.8,0.2,5.6,0.2,8.4c0,0.7-0.3,1.4-0.4,2.1c-0.1,0.9-0.3,1.8-0.4,2.7c-0.1,1.1,0.4,2.4-0.5,3.4
			c-0.1,0.1-0.1,0.5,0,0.7c1,2.7-0.8,5-1,7.6c-0.1,1.3-0.6,2.5-0.2,3.8c0.1,0.3-0.2,0.6-0.2,0.9c-0.2,1-0.3,2.1-0.5,3.1
			c0,0.2,0.2,0.4,0.1,0.5c-0.4,1.8-0.8,3.7-1.2,5.5c-0.1,0.4-0.1,0.7-0.1,1.1c-0.1,0.9,0.3,1.8-0.7,2.5c-0.2,0.1-0.1,0.6-0.1,0.9
			c-0.2,1.2-0.4,2.4-0.7,3.6c-0.3,1.3-0.5,2.7-1.1,3.9c-0.6,1.3,0.2,2.9-1.2,4.1c-0.5,0.4-0.5,1.4-0.7,2.1c-0.2,1.4-0.1,2.9-0.7,4.1
			c-0.8,1.7,0.4,3.6-1,5.2c-0.3,0.4,0,1.2-0.1,1.7c-0.1,0.5-0.3,1-0.5,1.5c-0.1,0.2-0.3,0.3-0.3,0.4c0.6,1.5-0.4,2.8-0.6,4.1
			c-0.2,1.1-0.4,2.2-0.5,3.3c-0.1,0.8,0.1,1.5,0.1,2.3c0,0.6,0,1.2-0.1,1.7c-0.2,1-0.5,1.9-0.6,2.9c-0.1,1.1,0.4,2.2-0.7,3
			c-0.2,0.1-0.1,0.6-0.1,0.9c0,5.6,0,11.1,0,16.7c0,0.5,0.3,0.9,0.4,1.4c0.2,0.7,0.4,1.4,0.4,2.1c0,2.7-0.1,5.5-0.3,8.2
			c-0.1,1.2-0.3,2.4-0.5,3.6c0,0.4,0,0.8,0.1,1.2c0.3,1,0.6,2,1,3c0.1,0.2,0.1,0.5,0.2,0.6c1.8,1.6,3.5,3.5,5.8,4.4
			c1,0.4,2,0.8,3.1,0.9c3.6,0.3,7.2,1.3,10.8,0.9c0.6-0.1,1.2-0.3,1.8-0.4c0.7-0.1,1.4-0.2,2.1-0.2c1.3,0,2.6,0,3.8,0.1
			c0.1,0,0.2,0,0.3,0c0.9-1.4,2.1-0.7,3.2-0.6c0.5,0.1,1-0.3,1.5-0.4c0.5-0.1,1-0.3,1.5-0.3c0.9-0.1,1.9,0.3,2.5-0.7
			c0.1-0.1,0.3-0.1,0.4-0.1c2.4,0.6,4.6-0.8,7-1c2-0.2,3.8-1,5.8-1.6c-0.2,0.4-0.3,0.7-0.5,1.1c-2.6,0.6-5.2,1.1-7.7,1.7
			c-2.2,0.5-4.4,1.2-6.6,1.7c-1.4,0.3-2.9,0.5-4.3,0.6c-3.6,0.3-7.3,0.5-10.9,0.6c-2.5,0.1-4.9,0.1-7.4,0c-1.7-0.1-3.5-0.4-5.1-0.9
			c-1.5-0.5-2.9-1.5-4.5-2c-1.9-0.6-2.4-2.3-3.3-3.7c-1-1.7-1.3-3.6-1.2-5.6c0.2-5.1,0.1-10.3,0-15.4c-0.1-4.8-0.3-9.6-0.3-14.4
			c0-2.2,0.4-4.4,0.7-6.6c0.3-2.5,0.7-5,1.1-7.5c0.5-3.2,1-6.4,1.6-9.6c0.5-2.6,0.9-5.2,1.5-7.7c0.7-2.8,1.6-5.6,2.3-8.4
			c0.5-1.8,0.8-3.7,1.2-5.5c0.6-3,1.2-6,1.8-9c0.1-0.3,0.1-0.6,0.1-1c0.4-3.7,0.8-7.5,1.2-11.2c0.1-1.3,0.3-2.6,0.5-3.9
			c0.3-0.3,0.7-0.5,0.7-0.8c0.1-0.5,0-1.1,0-1.7c0.3-4.4,0.6-8.8,0.8-13.1c0.2-3.7,0.3-7.5,0.3-11.2c0-3.7-0.3-7.4-0.5-11.1
			c-0.3-3.9-0.7-7.9-1.1-11.8c-0.3-3-0.7-6-1.1-9c-0.3-2.7-0.7-5.3-1.1-7.9c-0.5-3-1-6-1.5-9.1c-0.3-1.8-0.4-3.7-0.7-5.5
			c-0.3-1.7-0.8-3.3-1.1-5c-0.1-0.3,0.1-0.7,0.1-1.1c-0.3-1.7-0.6-3.3-0.9-5c-0.3-1.5-0.7-3-1-4.5c-0.4-2.5-0.7-5-1.2-7.4
			c-0.6-3.1-1.4-6.2-2-9.3c-0.3-1.3-0.4-2.7-0.7-4c-0.2-0.9-0.6-1.9-0.8-2.8c-0.7-3.1-1.4-6.1-2-9.2c-0.4-2-0.8-4.1-1.2-6.1
			c0.1-0.1,0.2-0.2,0.4-0.3c-0.1-0.1-0.3-0.2-0.4-0.3c-0.4-1.9-0.7-3.8-1.2-5.7c-0.5-2.1-1.2-4.2-1.7-6.3c-0.5-2-0.8-4-1.2-6
			c-0.5-2.2-1-4.4-1.6-6.6c-0.4-1.7-0.7-3.4-1.2-5.1c-0.5-1.8-1-3.7-1.5-5.5c-0.5-1.9-1-3.8-1.5-5.7c-0.7-2.8-1.4-5.5-2.3-8.3
			c-0.7-2.5-1.7-4.9-2.4-7.4c-0.8-2.5-1.4-5-2.2-7.5c-1.2-3.6-2.4-7.1-3.6-10.7c-0.6-1.7-1.1-3.4-1.7-5c-1.1-3-2.3-6-3.4-9.1
			c-0.5-1.5-0.8-3.1-1.3-4.6c-0.6-2-1.4-3.9-2.1-5.9c-0.6-1.7-1-3.5-1.5-5.3c-0.6-2.3-1-4.6-1.7-6.8c-0.7-2.1-1.6-4.2-2.4-6.2
			c-1.3-3.3-3.6-6-6.4-7.9c-2.8-1.9-5.9-3.4-9.4-4c-2.8-0.5-5.6-1.2-8.3-1.8c-0.3-0.1-0.5-0.1-0.8-0.1c-7.8-0.2-15.7-0.5-23.5-0.7
			c-1.7,0-3.5,0-5.2-0.1c-3.9-0.2-7.9-0.5-11.8-0.8c-3-0.3-6.1-0.5-9.1-1c-2-0.3-4-1.1-5.9-1.7c-0.8-0.2-1.7-0.3-2.5-0.6
			c-1.9-0.6-3.7-1.3-5.6-2c-2.2-0.9-4.3-1.7-6.4-2.7c-2-1-3.9-2.1-5.8-3.2c-2.2-1.3-4.4-2.6-6.6-3.9c-2-1.2-4.1-2.4-6.1-3.6
			c-2-1.2-4-2.3-5.9-3.5c-2.1-1.4-4-2.9-6-4.4c-1.2-0.9-2.4-1.8-3.7-2.6c-2.5-1.6-5.1-3.2-7.7-4.7c-1.2-0.7-2.7-1.1-4.1-1.5
			c-1.3-0.4-1.5-1.6-2.1-2.5c0-0.1,0.3-0.4,0.5-0.6c0.6,0.2,1.1,0.4,1.7,0.6c-0.3,0-0.7,0.1-1.2,0.2c1.2,1.5,2.7,1.9,4.2,2.3
			c0.9,0.3,1.7,0.8,2.6,1c1.4,0.3,2,1.7,3.2,2.2c1.6,0.7,2.8,1.7,4.1,2.9c1.7,1.5,3.7,2.6,5.5,3.9c1,0.7,1.9,1.6,3,2.3
			c0.5,0.3,1.4,0.2,1.7,0.6c1.7,2.1,4.6,2.2,6.6,3.9c1.7,1.5,3.8,2.6,5.8,3.8c2.1,1.3,4.4,2.3,6.6,3.5c2.8,1.5,5.6,3.2,8.5,4.6
			c0.9,0.4,2.4,0.7,3.1,0.2c1.6-1.1,2.9-0.2,4.3,0.2c1.3,0.3,2.6,0.8,3.9,1.2c1.7,0.5,3.4,0.9,5.1,1.3c0.4,0.1,0.9,0,1.4,0
			c0.8,0,1.6,0.1,2.4,0.1c0.8,0.1,1.7,0.4,2.5,0.4c1.5,0.1,3.1-0.3,4.4,0.1c5.5,1.6,11.1,0.4,16.7,0.7c1.4,0.1,2.9-0.4,4.4-0.6
			c1.3-0.1,2.6,0,3.9,0c2.2-0.1,4.5-0.3,6.7-0.5c2.7-0.3,5.3-0.5,7.9,0.5c0.3,0.1,0.7,0.1,1.1,0.1c1.3-0.1,2.5-0.4,3.7,0.5
			c0.2,0.2,0.7,0,1.1-0.1c0.3,0,0.6-0.2,0.8-0.1c0.9,0.4,1.7,0.8,2.7,1.3c-0.1,0.2-0.3,0.5-0.4,0.8c-0.9-0.2-1.8-0.4-2.7-0.6
			c-2.5-0.4-4.9-0.9-7.4-1.3c-0.8-0.1-1.6,0-2.3,0c-7,0.2-13.9,0.4-20.9,0.6c-5.8,0-11.6,0-17.4-0.1c-0.4,0-1,0.1-1.2-0.1
			c-0.9-1.2-2.1-0.6-3.1-0.7c-0.7-0.1-1.4,0-2.1-0.1c-2.3-0.3-4.7-0.7-7-1c-0.7-0.2-1.5-0.4-2.2-0.5c-0.6-0.2-1.3-0.4-1.9-0.6
			c-0.4-1-0.7-1.1-1.8-0.2c0.7,0.1,1.3,0.1,1.8,0.2c0.6,0.2,1.3,0.4,1.9,0.6c0.7,0.2,1.5,0.4,2.2,0.5c0.1,0.2,0.1,0.4,0.2,0.4
			c2.3,0.5,4.6,0.6,6.8,1.4c1.3,0.5,2.7,0.5,4.1,0.6c3.4,0.2,6.8,0.4,10.2,0.5c1.9,0.1,3.8,0,5.6,0c5.3,0.3,10.6,0.6,15.9,0.8
			c1.3,0.1,2.6,0.1,3.8,0c1-0.1,1.9-0.4,2.9-0.4c2.6,0.1,5.2,0.3,7.8,0.5c2.2,0.2,4.4,0.4,6.6,0.6c0.2,0,0.4,0.2,0.6,0.3
			c1.4,0.5,2.8,1.1,4.3,1.6c2.2,0.8,4.1,1.9,5.7,3.6c0.2,0.2,0.4,0.4,0.6,0.5c0.2-0.1,0.3-0.2,0.5-0.3c-0.2-0.1-0.3-0.2-0.5-0.3l0,0
			c0-0.4-0.1-0.9-0.1-1.3c0.7,0.4,1.4,0.7,1.9,1.3c0.2,0.2,0.1,0.9-0.1,1.3c-0.2,0.3-0.7,0.5-0.9,0.8c-0.3,0.4-0.7,0.9-0.7,1.4
			c0,0.2,0.8,0.4,1.2,0.7c0.6,0.5,1.3,0.9,1.6,1.5c0.9,1.9,1.6,4,2.3,6c0.8,2,1.7,4,2.4,6c0.4,1.1,0.4,2.3,0.6,3.5
			c0.1,0.7,0.3,1.3,0.5,1.9c0.4,1.4,0.5,3.1,1.2,4.3c1.9,3,2.1,6.6,3.6,9.6c0.3,0.5,0.2,1.3,0.4,1.9c0.2,0.6,0.5,1.1,0.8,1.7
			c0.1,0.2,0.3,0.5,0.3,0.7c-0.5,2.2,1.3,3.7,1.7,5.6c0.4,2.3,1.2,4.4,2,6.6c0.5,1.4,1.2,2.8,1.7,4.2c0.3,0.8,0.5,1.7,0.8,2.6
			c0.3,0.8,0.6,1.5,0.8,2.3c0.2-0.1,0.4-0.1,0.6-0.2c-0.1-0.9-0.2-1.9-0.5-2.8c-0.3-0.8-0.3-1.5,0.4-2.1c0.8-0.6,1.5-0.3,1.8,0.4
			c0.7,1.5,1.3,3.1,1.9,4.6c0.3,0.6,0.5,1.3,0.7,1.9c0.8,2.2,1.5,4.4,2.3,6.5c0.5,1.4,1.1,2.8,1.6,4.2c0.5,1.4,0.8,2.9,1.2,4.3
			c0.1,0.4,0.4,0.8,0.6,1.2c0.7,1.7,1.5,3.4,2.1,5.1c0.8,2.5,1.2,5.1,2.2,7.5c1.2,2.9,2.2,5.8,2.9,8.8c0.5,2.1,1.5,4,2.1,6.1
			c0.7,2.1,1.1,4.3,2,6.4c0.8,1.9,1.2,4,1.7,6c0.4,1.9,0.7,3.9,1.1,5.8c0.2,1.1,0.7,2.1,1,3.2c0.3,1.1,0.6,2.3,0.9,3.4
			c0.3,1.4,0.1,3,0.7,4.2c0.7,1.3,0.8,2.6,1,3.9c0.3,1.4,0.3,2.9,0.6,4.4c0.1,0.6,0.6,1.1,0.6,1.6c0.2,1.6,0.3,3.3,0.4,5
			c0,0.4,0.1,0.7,0.2,1.1c0.1,0.8,0.3,1.6,0.4,2.4c0,0.2-0.1,0.4,0,0.5c0.3,1.2,0.7,2.4,0.9,3.6c0.5,2.6,1.1,5.2,1.5,7.9
			c0.2,1.1,0,2,0.6,3.1c0.7,1.5,0.5,3.4,0.6,5.2c0,0.3-0.1,0.7,0,0.9c0.9,1.9,1.1,3.8,1.1,5.9c0,1.5,0.8,3,1,4.5
			c0.1,1-0.3,2-0.5,3.1c-0.5-2.8-1.1-5.5-1.6-8.3c-0.3-1.8-0.6-3.6-0.9-5.4c-0.3-1.7-0.7-3.4-1-5.1c-0.3-1.6-0.4-3.3-0.6-4.9
			c-0.2-1.2-0.4-2.5-0.6-3.7c-0.3-1.9-0.7-3.8-1-5.7c-0.2-1.4-0.4-2.8-0.6-4.3c-0.5-3.1-1.1-6.2-1.6-9.4c-0.1-0.3,0-0.7-0.1-0.9
			c-1.2-1.2-0.4-3-1.2-4.4c0.1-0.1,0.3-0.2,0.4-0.3c-0.1-0.1-0.3-0.2-0.4-0.3c-0.4-1.7-0.8-3.3-1.1-5c-0.3-1.3-0.4-2.6-0.7-3.8
			c-0.6-2.6-1.4-5.2-2.1-7.8c-0.2-0.7-0.7-1.3-0.8-2c0-0.8-0.1-1.4-0.5-2.1c-0.9-2-1.2-4.3-1.8-6.4c-0.5-1.7-0.9-3.4-1.5-5.1
			c-0.5-1.5-1-3-1.6-4.6c-0.5-1.4-1-2.8-1.5-4.3c-0.6-1.9-1.3-3.9-1.8-5.9c-0.3-1.4-1.3-2.5-1.4-4.1c-0.1-1.4-1.1-2.7-1.6-4.1
			c-0.8-2.1-1.5-4.2-2.2-6.4c-0.5-1.3-1-2.6-1.5-3.9c-0.3-0.8-0.6-1.6-0.9-2.4c-0.6-1.9-1.2-3.9-1.9-5.8c-0.6-1.8-1.3-3.6-2-5.4
			c-0.1,0-0.2,0.1-0.4,0.1c-0.1,0.2-0.1,0.3-0.2,0.5c-0.1,0.1-0.2,0.2-0.4,0.3c0.1,0.1,0.3,0.2,0.4,0.3c0.7,2.1,1.1,4.3,1.8,6.5
			c1,2.7,1.5,5.7,2.3,8.5c0.7,2.4,1.2,4.7,2.3,7c0.9,1.8,1.2,3.9,1.8,5.8c0.5,1.5,0.9,3,1.5,4.5c0.6,1.8,1.5,3.4,2.1,5.2
			c1,3.4,1.9,6.8,2.8,10.2c0.8,3.1,1.3,6.3,2.4,9.3c0.7,1.9,0.8,4.1,1.2,6.2c0.2,1.3,0.5,2.6,0.8,4
			C370.7,437.2,371,438.5,371.3,439.7z M315.8,305.6c0.1-0.2,0.2-0.5,0.3-0.7c-0.4-0.2-0.9-0.5-1.3-0.7c-0.1,0.3-0.2,0.6-0.4,0.9
			C314.9,305.3,315.4,305.5,315.8,305.6z M323.6,308.7c0.2,0.1,0.3,0.3,0.5,0.4c0.3-0.4,0.7-0.7,1-1.1c-0.2-0.1-0.3-0.3-0.5-0.4
			C324.3,308,324,308.4,323.6,308.7z M350.5,373.7c0.2,0,0.4,0,0.6,0.1c0-0.5,0.1-1,0.1-1.5c-0.2,0-0.4,0-0.5-0.1
			C350.6,372.7,350.5,373.2,350.5,373.7z M310.1,304.1c0-0.1,0-0.3,0-0.4c-0.6,0-1.2,0.1-1.8,0.1c0,0.1,0,0.2,0,0.3
			C308.8,304.1,309.5,304.1,310.1,304.1z M351.1,375.4c0.2,0,0.3,0.1,0.5,0.1c0.1-0.3,0.3-0.6,0.3-1c0-0.1-0.5-0.2-0.9-0.4
			C351,374.7,351.1,375.1,351.1,375.4z M318,305.4c-0.1-0.1-0.3-0.3-0.4-0.4c-0.2,0.2-0.5,0.5-0.7,0.7c0.2,0.1,0.4,0.4,0.5,0.3
			C317.6,305.9,317.8,305.6,318,305.4z M352.1,376.1c-0.2,0-0.4,0.1-0.5,0.1c0.1,0.4,0.2,0.8,0.3,1.1c0.2,0,0.3-0.1,0.5-0.1
			C352.3,376.9,352.2,376.5,352.1,376.1z M352.4,378.3c-0.1,0.1-0.2,0.3-0.4,0.4c0.3,0.2,0.6,0.4,0.9,0.7c0.1-0.1,0.2-0.2,0.3-0.4
			C353,378.7,352.7,378.5,352.4,378.3z M326.6,309.7c-0.1,0.1-0.2,0.1-0.3,0.2c0.2,0.3,0.3,0.5,0.5,0.8c0.1-0.1,0.2-0.1,0.3-0.2
			C326.9,310.3,326.8,310,326.6,309.7z M354.3,384c-0.1,0.2-0.2,0.4-0.2,0.5c0,0.1,0.2,0.2,0.4,0.3c0.1-0.1,0.3-0.3,0.3-0.3
			C354.7,384.3,354.5,384.2,354.3,384z M353.5,382.6c0-0.1,0.1-0.2,0.1-0.2c0-0.1-0.1-0.1-0.2-0.1c0,0.1-0.1,0.2-0.1,0.2
			C353.3,382.5,353.5,382.5,353.5,382.6z M355.6,388.4c-0.1,0-0.2-0.1-0.2-0.1c-0.1,0-0.1,0.1-0.1,0.2c0.1,0,0.2,0.1,0.2,0.1
			C355.5,388.6,355.5,388.5,355.6,388.4z M356.4,392.1c0,0.1-0.1,0.2-0.1,0.2c0,0.1,0.1,0.1,0.2,0.1c0-0.1,0.1-0.2,0.1-0.2
			C356.6,392.2,356.5,392.2,356.4,392.1z M357.1,394.4c0-0.1,0.1-0.2,0.1-0.2c0-0.1-0.1-0.1-0.2-0.1c0,0.1-0.1,0.2-0.1,0.2
			C356.9,394.4,357,394.4,357.1,394.4z"/>
		<path class="st2" d="M339.4,211.9c0.4-1.5,0.5-3.1,1.1-4.5c1.2-3,2.6-5.9,4.1-8.7c0.8-1.5,1.7-2.8,2.6-4.2c1.5-2.3,3-4.6,4.6-6.8
			c0.6-0.8,1.4-1.4,2.1-2.1c1.4-1.6,2.7-3.4,4.3-5c1.4-1.4,3-2.5,4.6-3.8c1-0.8,2-1.7,3.1-2.5c0.7-0.5,1.5-0.9,2.2-1.4
			c1.9-1.2,3.8-2.4,5.7-3.5c2.5-1.4,5.1-2.8,7.7-4.2c2.6-1.4,5.1-2.8,7.7-4.1c1.6-0.8,3.4-1.3,5-2.1c1.5-0.7,2.9-1.7,4.4-2.3
			c2-0.9,4.1-1.5,6.1-2.3c2-0.8,4-1.7,6.1-2.3c1.9-0.6,3.8-0.9,5.7-1.3c1.5-0.3,3-0.7,4.5-1c1.3-0.3,2.7-0.4,4-0.6
			c1-0.2,2.2,0.4,3-0.8c0-0.1,0.2-0.1,0.3,0c1.8,0.5,3.5-0.5,5.3-0.6c1.8-0.1,3.5-0.6,5.2-1c1.8-0.4,3.7-0.6,5.5-1.2
			c1.9-0.7,3.9-1.3,5.8-2.1c2.3-0.9,4.5-2.1,6.7-3.1c1.9-0.8,3.5-2.1,5.3-3.2c1.5-0.9,3.1-1.7,4.6-2.6c1.1-0.7,2.1-1.6,3.1-2.5
			c2.2-1.8,4.4-3.5,6.6-5.3c1.6-1.3,3.2-2.7,4.8-4.1c0.6-0.5,0.9-1.2,1.5-1.7c1.2-1,2.4-1.8,3.6-2.8c2-1.8,3.7-3.9,5.9-5.4
			c2.4-1.7,5-3.6,8.3-3.5c0.2,1.4,0.6,2.7,0.7,4.1c0,0.6-0.7,1.2-1.1,1.7c-0.7,0.7-1.4,1.4-2.3,2c-1.6,1.1-3.3,2.1-4.9,3.3
			c-0.8,0.6-1.5,1.3-2.2,1.9c-2.9,2.2-5.7,4.4-8.6,6.6c-2,1.5-4.3,2.8-6.1,4.5c-1.9,1.8-4,3.1-6.1,4.6c-2.2,1.6-4.2,3.4-6.4,4.9
			c-1.7,1.2-3.6,2.2-5.5,3.1c-3.3,1.5-6.6,3-9.9,4.2c-1.2,0.4-2.5,1.2-3.6,1.2c-2.1,0.1-3.9,1.1-5.9,1.4c-3.3,0.4-6.5,1-9.7,1.5
			c-0.3,0-0.6,0-1,0.1c-2.7,0.2-5.4,0.2-8,0.7c-3,0.5-5.9,1.2-8.8,2.2c-1.7,0.6-3.1,1.8-4.7,2.7c-1.2,0.7-2.4,1.3-3.5,1.9
			c-2.5,1.4-5,2.8-7.5,4.1c-3.1,1.6-6.3,3.1-9.5,4.7c-1.9,0.9-3.8,1.9-5.7,2.7c-1.7,0.7-3.5,1.3-5.2,2c-0.8,0.4-1.6,0.9-2.4,1.3
			c-2.4,1.1-5,2-7.3,3.3c-2.9,1.6-5.6,3.4-7.9,5.7c-1.2,1.2-2.3,2.6-3.5,3.8c-1.9,1.7-3,4-4.4,6c-1.4,1.9-2.4,4-3.5,6.1
			c-1.2,2.3-2.7,4.5-4,6.7C340.7,209.5,340.1,210.7,339.4,211.9z"/>
		<path class="st2" d="M280.5,14c0,0.6,0.1,1,1,1.2c1.5,0.3,2.8,0.9,3.8,2.2c0.7,0.9,1.8,1.5,2.6,2.4c1.3,1.4,2.6,2.7,3.7,4.2
			c2.3,3.3,4.4,6.8,6.8,10c1.3,1.8,3.1,3.2,4.6,4.7c2.7,2.7,5.3,5.4,8,8.1c0.4,0.4,0.9,0.7,1.2,1.2c1.8,2.4,3.7,4.9,5.5,7.3
			c1.3,1.8,2.6,3.6,3.7,5.5c1,1.7,1.5,3.7,2.6,5.4c2.3,3.4,3.2,7.3,4.5,11c0.4,1,1.5,2.1,0.8,3.6c-0.2,0.5,0.5,1.3,0.7,2
			c1.4,4.7,1.1,9.5,1.1,14.3c0,0.7,0.3,1.6-0.7,2c-0.1,0.1-0.1,0.3-0.1,0.5c-0.2,1.6-0.3,3.3-0.6,4.9c-0.4,2.3-1.1,4.5-1.6,6.7
			c-0.1,0.2-0.5,0.4-0.7,0.6c0.1-3.1,0.1-6.2,0.1-9.2c0-0.4-0.3-0.9-0.5-1.3c0-1.2,0-2.4-0.1-3.5c0-0.6,0.1-1.2,0-1.7
			c-0.1-0.5-0.5-0.9-0.8-1.3c-0.2-3-1.1-5.8-2.1-8.5c-0.6-1.8-1.2-3.6-1.8-5.4c-0.4-1-1-2-1.5-3c-1.3-2.8-2.5-5.6-3.8-8.4
			c-0.9-2-2-3.9-3-5.9c-1.2-2.4-2.3-4.9-3.6-7.3c-0.9-1.6-2-3-3.1-4.5c-1-1.4-2.1-2.8-3.2-4.1c-0.8-0.9-1.6-1.8-2.4-2.7
			c-1.7-1.8-3.4-3.7-5.2-5.5c-1.6-1.6-3.2-3-4.8-4.6c-1.8-1.7-3.6-3.3-5.3-5.1c-2.3-2.3-4.6-4.5-6.6-7c-0.8-1-1.2-2.5-0.7-4
			c0.4-1.3,0.6-2.7,0.9-4C280.1,14.5,280.3,14.2,280.5,14z"/>
		<path class="st4" d="M300.8,233.7c0.4,0.1,0.9,0,1.1,0.2c0.9,0.8,1.9,1.7,2.7,2.6c1.9,2.2,3.6,4.5,5.4,6.6
			c0.7,0.8,1.5,1.4,2.2,2.2c1.9,2.4,3.8,4.8,5.4,7.3c1.5,2.3,2.6,4.8,3.8,7.3c0.6,1.3,1.2,2.6,1.6,4c0.4,1.3,0.5,2.6,0.7,3.9
			c0,0.2,0.2,0.4,0.2,0.6c-0.1,0.4-0.2,1.1-0.4,1.1c-0.6,0.1-1.5,0.1-1.7-0.2c-0.7-1-1.1-2.3-1.7-3.4c-0.2-0.4-0.4-0.7-0.9-1.4
			c-0.2,0.7-0.4,1-0.3,1.2c0.3,1.1,0.7,2.1,1.1,3.1c0.1,0.2,0.2,0.4,0.2,0.6c-0.2,2.7,0.9,5.1,1.9,7.5c0.4,1,0.4,2.1,0.6,3.2
			c0,0.3-0.1,0.7,0.1,0.8c2,1.7,0.4,3.8,0.7,5.6c0.1,0.7,0,1.3,0.6,1.8c0.3,0.3,0.4,1,0.6,1.5c-0.1,0-0.3,0-0.4-0.1
			c-0.7-0.8-1.4-1.6-2.1-2.4c-0.1-2.2,0-4.4-0.4-6.6c-0.6-3.2-1.5-6.3-2.3-9.4c-0.9-3.7-1.6-7.5-3.6-10.7c-1.2-2-3-3.6-4.6-5.4
			c-1.8-2.1-3.5-4.3-5.3-6.5c-2.6-3.1-5.3-6.2-7.9-9.3c-1-1.2-2-2.4-3.1-3.7c-0.1-0.1-0.2-0.2-0.2-0.2c-0.8-1-1.7-1.9-2.4-2.9
			c-0.9-1.2-1.8-2.4-2.7-3.6c-0.9-1.3-1.9-2.6-2.8-3.9c-1.9-2.6-3.8-5.2-5.7-7.8c-1.7-2.4-3.4-4.8-4.9-7.3c-1.7-2.7-3.3-5.5-4.8-8.3
			c-1.3-2.3-2.4-4.7-3.5-7c-0.5-1-0.9-2.1-1.3-3.1c-0.7-1.9-1.6-3.8-2.2-5.8c-0.8-2.4-1.3-4.9-1.9-7.3c-0.6-2.3-1.1-4.6-1.6-6.9
			c-0.3-1.2-0.6-2.4-0.7-3.7c-0.3-2-0.4-4-0.7-6c-0.3-3-0.5-6-1.2-8.9c-0.5-2.3-1.7-4.4-2.7-6.5c-1.2-2.5-2.4-5.1-4-7.3
			c-1.6-2.2-3.7-4.1-5.5-6.2c-1.2-1.3-2.3-2.7-3.5-4c-0.5-0.5-1.1-0.9-1.6-1.4c-2.6-2.7-5.1-5.5-6.7-9c-1.4-2.8-2.6-5.5-4.2-8.2
			c-1.6-2.5-3.5-4.8-5.2-7.3c-1.1-1.6-1.9-3.3-3-4.8c-2.5-3.2-5-6.5-7.7-9.6c-1.5-1.8-3.3-3.2-5-4.7c-2.3-1.9-4.9-3.5-7.3-5.4
			c-2.3-1.8-4.4-4-5.1-6.9c-0.3-1.4-0.7-3,0.4-4.3c0,0.4,0,0.7,0,1.1c0.5,1.8,0.8,3.6,1.5,5.3c0.5,1.1,1.6,1.9,2.5,2.8
			c0.7,0.7,1.5,1.3,2.1,2.1c0.6,0.7,1.2,1.4,2.3,1.1c0.2-1.2-0.8-1.5-1.4-2.1c-0.4-0.4-0.5-0.9-0.8-1.4c0.7-0.2,1.6-0.9,2-0.7
			c1.6,0.9,3.1,2.1,4.6,3.2c0.1,0.1,0.1,0.3,0.1,0.4c0,0,0,0,0,0c-0.2,0-0.4,0-0.6,0c-0.5-0.2-1-0.5-1.5-0.7
			c-0.4-0.2-0.9-0.3-1.3-0.4c1.7,2,3.4,3.8,5.1,5.5c0.3,0.3,0.6,0.5,0.8,0.8c0.6,0.6,1.1,1.3,1.6,1.9c0.4,0.5,0.8,0.9,1.2,1.4
			c0.2,0.3,0.4,0.7,0.7,1c0.7,0.8,1.4,1.5,2,2.3c0.8,1,1.5,2,2.2,3c1.6,2.1,3.2,4.2,4.8,6.3c1.4,2,2.7,4.2,4,6.3
			c1.8,2.7,3.5,5.5,5.3,8.2c1.5,2.4,2.9,5,4.6,7.4c1.3,1.9,3,3.5,4.6,5.2c0.7,0.8,1.3,1.6,2.1,2.3c1,0.9,2.1,1.6,3.2,2.5
			c0.1,0.1,0.2,0.1,0.2,0.2c1.1,1.1,2.2,2.2,3.3,3.3c0.2-0.1,0.3-0.3,0.5-0.4c-0.7-0.8-1.4-1.5-2-2.3c-0.5-0.6-0.8-1.3-1.2-1.9
			c1.6,0.8,3.3,1.6,3.7,3.7c0,0.2,0.2,0.4,0.3,0.4c1.5,0.7,1.1,1.4,0.3,2.4c-0.4,0.5-0.6,1.5-0.3,2c0.8,1.8,1.9,3.4,2.8,5.1
			c0.3,0.6,0.4,1.4,0.7,2c0.5,1.1,1.3,2,1.6,3.1c0.5,1.7,0.7,3.5,1,5.3c0.1,0.6,0.5,1.2,0.6,1.8c0.1,0.7,0.3,1.5,0.2,2.2
			c-0.1,0.9-0.4,1.7,0.4,2.7c0.5,0.6,0.2,1.8,0.2,2.8c0,1.7,0.3,1.9,1.8,1.4c0.7-0.2,2.3,0.8,2.5,1.7c0.1,0.8,0.3,1.8-0.9,2
			c-0.2-0.7-0.5-1.4-0.7-2.2c-0.4,0.4-0.5,0.7-0.4,1.1c0.1,1.2,0.3,2.4,0.5,3.6c-0.1,0.1-0.2,0.2-0.4,0.3c0.1,0.1,0.3,0.2,0.4,0.3
			c0.5,2.4,1.1,4.8,1.6,7.2c-0.1,0.1-0.2,0.2-0.4,0.3c0.1,0.1,0.3,0.2,0.4,0.3c0.5,1.3,1,2.5,1.4,3.8c0.8,2.4,1.5,4.9,2.4,7.3
			c0.3,0.9,0.7,1.7,1.1,2.6c0.7,1.4,1.7,2.8,2.3,4.3c1.1,2.9,2.8,5.5,4.3,8.1c1,1.8,2.4,3.4,3.4,5.2c1.6,2.9,3.6,5.4,5.7,8
			c1.2,1.4,2.4,2.7,3.6,4.1c1.6,1.8,3.1,3.8,4.8,5.5c2.5,2.6,5,5.1,7.5,7.7c0.9,1,1.5,2.4,2.6,3.2c2,1.5,3.2,3.6,4.6,5.5
			c0.3,0.3,0.5,0.6,0.8,0.9c0.6,0.7,1.3,1.4,1.9,2.2c1,1.3,2,2.6,2.9,3.9c0.9,1.3,1.8,2.7,2.7,4.1c0.5,0.9,0.9,1.8,1.4,2.7
			c0.2,0.2,0.3,0.4,0.5,0.6c0.4,1,0.8,2,1.1,3c0.2,0.2,0.3,0.4,0.5,0.6c0.4,1,0.8,2,1.1,3.1c0.3,0.8,0.6,0.6,0.9,0
			c0.1-0.1,0.2-0.2,0.4-0.3c-0.1-0.1-0.3-0.2-0.4-0.3c-0.3-0.6-0.6-1.2-0.8-1.9c-0.4-1.3-0.7-2.7-1.2-3.9c-1.6-3.6-3.5-7.1-5.9-10.2
			c-0.9-1.1-1.8-2.3-2.7-3.4c-1.2-1.6-2.3-3.2-3.6-4.7C306,239.4,302.6,237.3,300.8,233.7z M316.1,259.7c0.2-0.1,0.3-0.2,0.5-0.3
			c-0.6-1.5-1.1-3-1.9-4.3c-1.1-1.8-2.4-3.4-3.7-5c-1-1.3-2.2-2.5-3.3-3.8c-0.5-0.6-1-1.3-1.6-1.9c-0.6-0.7-1.3-1.4-1.9-2.1
			c-1.3-1.5-2.5-2.9-3.8-4.4c-0.5-0.6-1.1-1-1.6-1.6c-1.4-1.4-2.7-2.8-4.1-4.2c-0.2-0.2-0.7-0.2-1.2-0.4c0.6,1.1,0.9,2.2,1.5,2.9
			c1.2,1.5,2.6,2.8,3.9,4.1c0.2,0.3,0.5,0.6,0.5,0.9c0,1.2,0.9,1.7,1.7,2.3c0.7,0.5,1.2,1.2,1.8,1.9c0.5,0.6,0.8,1.5,1.4,1.9
			c1.1,0.7,1.9,1.6,2.5,2.7c0.4,0.7,1.4,1.2,1.6,2.2c0,0.1,0.3,0.2,0.5,0.2c1.2,0,1.4,1,1.9,1.7c0.8,1,1.7,2,2.5,3
			c0.6,0.7,1.1,1.5,1.6,2.2C315.3,258.5,315.7,259.1,316.1,259.7z M318.8,264c0.1-0.1,0.2-0.1,0.4-0.2c-0.5-2.7-0.5-2.7-1.7-3
			C317.9,262,318.3,263,318.8,264z M292.8,230.8c0-1.9-1.3-1.9-2.2-2.2c-0.1,0.1-0.2,0.2-0.2,0.3C291.1,229.4,291.9,230,292.8,230.8
			z M288.7,226c-0.1,0.1-0.1,0.3-0.2,0.4c0.3,0.1,0.6,0.2,0.8,0.3c0-0.1,0.1-0.2,0.1-0.3C289.3,226.3,289,226.1,288.7,226z
			 M265.8,185.4c-0.1,0-0.2,0-0.4,0c0,0.3,0.1,0.5,0.1,0.8c0.1,0,0.2,0,0.2,0C265.8,185.9,265.8,185.6,265.8,185.4z M206.9,81.3
			c0,0.1-0.1,0.2-0.1,0.2c0,0.1,0.1,0.1,0.2,0.1c0-0.1,0.1-0.2,0.1-0.2C207.1,81.3,207,81.3,206.9,81.3z M251.5,137.4
			c0-0.1,0-0.2-0.1-0.2c-0.1,0-0.1,0-0.2,0.1c0,0.1,0,0.2,0.1,0.2C251.3,137.5,251.4,137.4,251.5,137.4z"/>
		<path class="st5" d="M322.3,287.6c0.7,0.8,1.4,1.6,2.1,2.4c0.1,0.1,0.3,0.1,0.4,0.1c0.4,0.5,0.8,1,1.2,1.5
			c0.3,0.4,0.4,0.9,0.6,1.2c-0.8-0.2-1.4-0.4-2-0.5c-1.8-0.4-3.7-0.7-5.5-1c-0.2,0-0.5,0-0.7-0.1c-2.1-0.4-4.2-0.7-6.3-1.1
			c-0.3-0.1-0.6,0-1-0.1c-0.8-0.1-1.9,0.4-2.4-0.7c-0.1-0.1-0.3-0.1-0.5-0.1c-2.4-0.5-4.9-1.1-7.3-1.6c-0.9-0.2-1.9-0.3-2.7-0.6
			c-1.9-0.6-3.8-1.4-5.6-2.1c-1.2-0.5-2.4-0.9-3.6-1.5c-1.8-0.9-3.8-1.8-5.2-3.1c-2.4-2.2-4.7-4.7-6.6-7.3c-1.7-2.3-2.8-5-4-7.6
			c-0.6-1.3-0.9-2.9-1.4-4.3c-0.4-1-0.8-2-1.2-3c-0.3-0.7-0.5-1.4-0.7-2.2c-0.2-1.1-0.4-2.3-0.6-3.4c-0.2-0.9-0.4-1.7-0.6-2.6
			c-0.4-1.7-0.7-3.5-1.1-5.2c-0.5-1.9-1.1-3.7-1.5-5.6c-0.5-2.8-1.7-5.4-2.7-8.1c-0.6-1.7-1.8-3.2-2.8-4.7c-0.9-1.3-1.9-2.6-2.9-3.9
			c-0.8-1-1.9-1.9-2.6-3c-1.3-2.1-2.1-4.5-2.6-6.9c-0.2-1-0.6-2-0.9-3c-0.3-1.1-0.8-2.2-1-3.3c-0.4-2.1-0.8-4.3-1.2-6.4
			c-0.2-1.1-0.7-2.1-0.9-3.2c-0.3-1.3-0.4-2.6-0.7-3.9c-0.3-1.3-0.7-2.5-1.1-3.7c0-0.1-0.1-0.2-0.1-0.2c0.6-1.4-0.7-2.4-1-3.6
			c-0.5-2-1.4-3.8-2-5.8c-0.7-2.1-1.6-4.2-3-6c-0.3-0.5-0.4-1.1-0.5-1.7c1.1-0.1,1.7,0.4,2.2,1.4c1.2,2,2.9,3.9,3.9,6
			c1,1.9,1.5,4,2.1,6c0.6,2,1.1,4.1,1.6,6.1c0.2,1,0.4,2.1,0.6,3.2c0.6,2.6,1.3,5.2,1.9,7.8c0.6,2.5,1.1,5.1,1.8,7.6
			c0.5,1.6,0.6,3.3,2.4,4.4c1.4,0.9,2.3,2.5,3.2,4c1.4,2.1,2.8,4.3,3.9,6.6c1.1,2.4,2,5,2.8,7.5c0.8,2.6,1.5,5.2,2.1,7.8
			c0.3,1.2,0.4,2.5,0.7,3.7c0.3,1.1,0.8,2.1,1.2,3.2c0.3,0.7,0.4,1.5,0.6,2.2c0.8,3.1,1.5,6.3,2.3,9.4c0.3,1,1,1.8,1.5,2.7
			c0.8,1.3,1.5,2.6,2.3,3.9c1.3,1.9,2.6,3.8,4,5.6c1.8,2.2,3.6,4.4,5.6,6.4c1.5,1.5,3.3,2.7,5.4,3.3c1.6,0.5,3.3,0.9,4.8,1.7
			c2.8,1.6,6,1.8,9,2.4c1.9,0.4,3.7,0.9,5.6,1.3c1.2,0.3,2.5,0.4,3.8,0.6c1.8,0.2,3.7,0.4,5.5,0.6
			C321.4,287.3,321.9,287.5,322.3,287.6z"/>
		<path class="st2" d="M327.6,185.8c-0.4-1-1-1.9-1-2.9c-0.1-2.4-0.3-4.8,0-7.1c0.2-1.4,0.1-3.1,1.2-4.4c0.5-0.6,0.5-1.7,0.6-2.6
			c0.4-2,0.7-4,1.2-6c0.3-1.4,1-2.7,1.4-4c0.7-2,1.4-4.1,2.1-6.1c0.5-1.3,1.1-2.6,1.6-4c0.7-2,1.3-4,2-5.9c0.2-0.6,0.6-1.2,0.8-1.9
			c0.8-2.5,1.3-5.1,2.3-7.5c0.5-1.2,0.1-2.5,1.2-3.6c0.6-0.6,0.5-1.8,0.6-2.8c0.2-1.4,0.4-2.7,0.6-4.1c0.4-2.8,0.8-5.6,1.2-8.4
			c0-0.1,0.1-0.3,0.1-0.4c0.2-2.4,0.4-4.9,0.6-7.3c0.2-3,0.4-6,0.6-8.9c0.2-2.2,0.3-4.3,0.5-6.5c0.1-1-0.4-2.1,0.7-2.9
			c0.2-0.1,0.1-0.8,0.1-1.2c0-1.5,0-3,0-4.5c0.1-2.5,0.3-5,0.6-7.6c0.1-1.8,0.4-3.6,0.5-5.4c0.2-2-0.1-4.1,0.7-5.9
			c1.1-2.6,0.6-5.5,1.7-8.1c0.7-1.6,0.8-3.5,1.2-5.2c0.1-0.6,0.6-1,0.8-1.6c0.8-1.6,1.3-3.4,2.3-4.9c0.7-1.1,1.8-2,2.9-2.8
			c1.2-0.9,2.5-1.6,3.7-2.4c0.3-0.2,0.4-0.7,0.5-1.1c0.7,0.7,0.8,3.1,0.1,4.1c-0.9,1.4-1.8,2.7-3,3.9c-1.6,1.5-2.5,3.7-3.7,5.6
			c-0.4,0.6-0.5,1.4-0.6,2.2c-0.2,2-0.4,4-0.6,6c-0.3,2-0.7,4-1.1,6c-0.3,1.5-0.6,2.9-0.8,4.4c-0.5,3.1-1.1,6.1-1.6,9.2
			c-0.3,2-0.6,4.1-0.9,6.1c-0.5,3.2-1.1,6.3-1.5,9.5c-0.3,1.8-0.4,3.5-0.6,5.3c-0.2,1.5-0.3,3.1-0.4,4.6c-0.2,4.9-0.2,9.9-0.5,14.8
			c-0.2,3.4-0.4,6.8-1.2,10.1c-0.7,2.9-1.5,5.8-3.1,8.4c-0.9,1.5-1.1,3.4-1.7,5.1c-0.8,2.2-1.1,4.5-2.3,6.6
			c-0.9,1.5-1.2,3.4-1.8,5.1c-0.4,1.1-1,2.1-1.3,3.1c-0.5,1.3-0.8,2.7-1.2,4.1c-0.7,2.1-1.5,4.2-2.2,6.3c-0.5,1.3-0.9,2.7-1.3,4
			c-0.6,2.1-1.3,4.2-1.7,6.3C327.6,181.1,327.7,183.5,327.6,185.8z"/>
		<path class="st2" d="M244.1,37.9c0.3,0.2,0.7,0.3,0.9,0.6c1.1,1.6,1.7,3.3,1.7,5.3c0,1.3,0.5,2.6,0.5,3.9c-0.1,2.7-0.3,5.3-0.5,8
			c-0.1,1-0.6,2-0.5,2.9c0.2,2.2,0.6,4.3,1,6.5c0.2,1.2,0.3,2.4,0.6,3.6c0.4,1.9,1,3.7,1.5,5.5c0.2,0.9,0.4,1.9,0.7,2.8
			c0.5,1.6,1.1,3.1,1.6,4.7c0.4,1.1,0.6,2.3,0.9,3.5c0.4,1.4,0.8,2.7,1.2,4.1c0.3,1.1,0.7,2.3,1,3.4c0.4,1.8,0.4,3.7,1.2,5.3
			c1.3,2.6,1.5,5.4,1.9,8.2c0.4,2.5,0.7,5,1.1,7.6c0.2,1.7,0.5,3.4,0.7,5.2c-1.7,0.6-2.8,0.1-3.9-0.7c-0.8-0.6-1.5-1.1-2.3-1.7
			c-0.3-0.2-0.4-0.6-0.6-0.8c-0.3-1.7-0.7-3.3-1-5c-0.2-1.3-0.4-2.6-0.6-3.9c-0.2-1.7-0.4-3.3-0.6-5c-0.3-2.1-0.7-4.2-1-6.3
			c-0.2-1.3-0.4-2.6-0.6-3.9c-0.4-2.3-0.7-4.6-1.2-6.9c-0.7-3.1-1.6-6.1-2.4-9.1c-0.4-1.8-0.6-3.7-1.2-5.5c-0.7-2-1-4.1-2.2-5.9
			c-1-1.5-1.3-3.5-1.8-5.4c-0.6-2.1-1.3-4.2-1.5-6.3c-0.2-2.2,0-4.5,0.2-6.8c0.1-1,0.4-2.2,0.9-3c1.2-1.7,2.6-3.2,4-4.8
			C243.8,37.9,244,37.9,244.1,37.9z"/>
		<path class="st2" d="M389.8,309.9c-0.2-1.3,0.5-2.1,1.4-2.9c1.3-1.2,2.5-2.5,3.8-3.6c2.1-1.8,4.6-2.9,7.3-3.9
			c1-0.3,1.8-0.9,2.8-1.3c1.6-0.6,3.2-1.1,4.8-1.7c1.5-0.5,3-1,4.5-1.5c2.6-0.9,5.3-1.7,7.8-2.7c2.2-0.9,4.4-2,6.6-3.1
			c2.7-1.3,5.5-2.5,8.2-3.8c1.2-0.6,2.3-1.5,3.4-2.3c2.5-1.7,5.1-3.4,7.6-5.1c3.2-2.1,6.2-4.3,8.9-7c2.2-2.1,4.7-3.9,6.8-6.1
			c2.3-2.3,4.2-5,6.3-7.4c0.2-0.2,0.4-0.3,0.6-0.5c0.5-0.6,0.9-1.2,1.3-1.8c1.5,1.9,1.7,5.1-0.1,7.1c-2,2.2-4,4.3-6,6.4
			c-1.7,1.8-3.4,3.8-5.3,5.5c-2.3,2.1-4.8,4-7.2,5.9c-2,1.5-4.2,2.6-6.1,4.2c-2.4,2.1-5.4,3.2-8.1,4.6c-2.9,1.5-6.1,2.6-8.9,4.2
			c-3.4,2-7.2,2.9-10.8,4.5c-2.8,1.3-5.6,2.4-8.4,3.5c-1.4,0.5-2.8,0.8-4.1,1.3c-1.1,0.4-2.1,1-3.1,1.4c-1.9,0.7-3.8,1.4-5.6,2.1
			c-1.7,0.7-3.4,1.7-5.1,2.5C392,308.9,390.9,309.4,389.8,309.9z"/>
		<path class="st6" d="M191,265.1c-0.6-0.2-1.1-0.4-1.7-0.6c0.4-1.7,1.9-2.9,3.5-3c2.6-0.2,4.9,0.6,7,1.8c2.8,1.6,5.5,3.3,8.2,5
			c1.7,1.1,3.5,2.2,5.2,3.3c2.4,1.6,4.8,3.3,7.3,4.9c1.4,0.9,3.1,1.5,4.5,2.4c1.3,0.7,2.4,1.8,3.6,2.5c2.9,1.6,5.6,3.4,8.7,4.7
			c1.9,0.8,3.9,1.8,5.8,2.6c2.4,0.9,4.8,1.8,7.4,2.4c4.7,1.1,9.5,1.1,14.3,0.9c2.6-0.1,5.2-0.6,7.8-1c1.8-0.2,3.5-0.5,5.2-0.7
			c1.4,0.3,2.7,0.5,4.3,0.8c-0.2,0.3-0.4,0.7-0.6,0.8c-1.4,0.7-2.8,1.5-4.2,1.9c-2.6,0.7-5.4,0.9-8.1,1.3c-4.7,0.7-9.3,0.3-13.9,0.4
			c-2.3,0.1-4.7-0.2-7-0.6c-1.9-0.3-3.6-1.1-5.4-1.7c-2.3-0.8-4.6-1.6-6.9-2.4c-0.1,0-0.3,0-0.4-0.1c-1.8-1.8-4.5-2.1-6.6-3.5
			c-0.7-0.5-1.5-0.9-2.2-1.4c-1.3-0.9-2.7-1.9-4-2.8c-0.7-0.5-1.5-0.9-2.2-1.4c-3-2.2-5.9-4.5-9-6.7c-2-1.4-4.1-2.8-6.2-4
			c-2.1-1.3-4.4-2.4-6.6-3.5c-0.9-0.4-1.8-0.6-2.8-0.9c-0.7-0.3-1.4-0.6-2.1-0.8C193,265.4,192,265.3,191,265.1z"/>
		<path class="st7" d="M402.5,149c-0.3,0.2-0.6,0.4-0.9,0.6c-1,0.5-2,0.8-2.9,1.3c-1.1,0.6-1.4,0-1.4-0.8c0-0.6,0.3-1.3,0.4-1.9
			c0.6-2.4,1.7-4.5,3.1-6.4c1.2-1.7,2.4-3.3,3.6-4.9c0.4-0.6,0.8-1.2,1.3-1.7c0.8-0.9,1.6-1.7,2.4-2.5c2.1-2.2,4.1-4.4,6.3-6.5
			c1.2-1.2,2.8-2.1,4.1-3.2c0.6-0.5,1-1.2,1.5-1.7c2.4-2.3,4.8-4.6,7.2-6.9c1.8-1.8,3.5-3.8,5.3-5.5c1.3-1.2,2.9-2.3,4.3-3.4
			c0.1-0.1,0.2-0.2,0.3-0.3c1.1-1.8,2.9-2.8,4.7-3.7c1.7-0.9,3.6-1.3,5.4-2c0.2-0.1,0.3-0.4,0.5-0.6c1.1,0.1,1.1,1.1,1.3,1.8
			c0.6,2.2-0.2,3.8-2.2,4.9c-1.6,0.9-3.2,1.7-4.8,2.7c-2.4,1.5-4.7,3.1-7,4.8c-1.8,1.3-3.6,2.6-5.3,4c-0.9,0.7-1.6,1.6-2.4,2.4
			c-1.9,2-3.8,3.9-5.6,5.9c-1.8,2-3.3,4.1-5.1,6c-1.9,2-4.1,3.9-6.1,5.8c-1.4,1.3-2.7,2.6-4,4.1c-0.8,0.8-1.4,1.8-1.9,2.8
			c-0.8,1.4-1.6,2.9-2.3,4.3C402.1,148.4,402.4,148.7,402.5,149z"/>
		<path class="st1" d="M258.5,261.2c0.5,0.9,0.9,1.7,1.4,2.6c0.8,1.5,1.7,2.9,2.5,4.4c-0.1,0.1-0.1,0.2-0.2,0.2
			c-2-0.9-4.1-1.4-5.8-3c-1.2-1.1-2.7-1.8-4-2.6c-1.2-0.8-2.4-1.5-3.4-2.5c-1.9-1.7-4-3.3-6.1-4.8c-1.6-1.2-3-2.8-4.6-4
			c-1.2-1-2.6-1.7-3.8-2.6c-0.8-0.6-1.5-1.3-2.3-2c-1.2-1.1-2.5-2.1-3.7-3.1c-1.1-0.9-2.3-1.6-3.4-2.4c-0.3-0.2-0.6-0.5-0.9-0.7
			c-0.8-0.6-1.8-0.9-2.4-1.6c-2-2.3-4.7-3.7-7.1-5.4c-1.1-0.8-2.7-0.9-4.2-1.3c-0.7-0.2-1.5-0.4-2.2-0.4c-0.7,0-1.5,0.3-2.2,0.4
			c0.7-1.3,1.1-2.8,2.7-3.2c1.2-0.3,2.3-1.1,3.7-0.5c0.9,0.4,2.1,0.2,2.8,0.7c2,1.5,4.5,2.1,6.1,4.2c0.5,0.7,1.6,1,2.3,1.7
			c2.1,1.8,3.9,3.9,6.1,5.6c2,1.6,4.2,2.8,6.4,4.2c1.7,1.1,3.5,2.1,5.2,3.2c1.2,0.8,2.5,1.6,3.6,2.4c3.3,2.4,6.6,4.8,9.8,7.4
			c1.2,0.9,2.1,2.2,3.2,3.3C258.1,261.2,258.3,261.2,258.5,261.2z"/>
		<path class="st2" d="M394.2,294.5c-0.3,0.6-0.7,1.2-1,1.9c-0.1,0-0.3,0-0.4,0c-0.4-1.2-1-2.5-1-3.7c-0.1-5.5-0.1-10.9,0-16.4
			c0-1.6,0-3.3,0.6-4.8c1.2-2.9,1.1-6,1.8-8.9c0.4-1.5,0.7-3.1,1.1-4.7c0.4-1.4,1-2.7,1.5-4c0.7-2,1.4-4.1,2.1-6.2
			c0.4-1.1,0.9-2.2,1.4-3.3c0.5-1.1,1-2.2,1.5-3.3c0.4-0.8,0.9-1.7,1.5-2.4c1.3-1.7,2.2-3.6,4.4-4.8c3.1-1.6,6-3.8,8.9-5.8
			c0.6-0.4,1-1.2,1.5-1.8c0.3,0.5,0.6,1,0.8,1.5c1.3,2.5,1.1,4.9-0.8,6.3c-1.2,0.9-2.7,1.4-4.2,1.8c-2.7,0.8-5.2,1.5-7.2,3.8
			c-1.7,2-2.5,4.2-3.5,6.5c-0.7,1.6-1.4,3.2-2.1,4.9c-0.3,0.7-0.6,1.3-0.8,2c-1.1,3.2-2.1,6.4-3.2,9.5c-0.6,2-1.3,3.9-1.8,5.9
			c-0.4,1.7-0.6,3.5-0.6,5.2c-0.1,2.9,0,5.9-0.1,8.8C394.6,286.7,394.4,290.6,394.2,294.5z"/>
		<path class="st6" d="M245.3,202.9c0.3,2.8,2.2,5.1,2.7,8c-0.9-0.6-1.9-1.2-2.7-1.9c-3-2.9-6-5.8-9-8.7c-1.9-1.9-3.7-3.8-5.4-5.7
			c-0.9-1-1.5-2.1-2.3-3.1c-1.5-1.8-3.3-3.4-4.7-5.3c-1.8-2.4-3.7-4.5-5.9-6.5c-0.9-0.8-1.3-2.3-2.3-2.9c-2-1.2-3.3-3.1-5.1-4.6
			c-1-0.8-2.1-1.5-3.1-2.3c0.6-1,2-1.8,3-1.5c2.5,0.7,4.7,1.7,5.9,4.2c0.3,0.6,1.3,1,1.5,1.6c0.5,1.7,2,2.4,3,3.6
			c0.6,0.7,1.3,1.4,2,2.1c0.9,1,1.8,2,2.8,2.9c1.8,1.8,3.7,3.6,5.5,5.4c1,1,1.8,2.1,2.8,3c1.7,1.7,3.6,3.3,5.2,5
			c1.1,1.2,2,2.6,3,3.9C243.2,201,244.3,201.9,245.3,202.9z"/>
		<path class="st8" d="M327.1,101.2c0.2,0.4,0.5,0.9,0.5,1.3c0,3.1-0.1,6.2-0.1,9.2c0,1.2-0.1,2.4-0.1,3.6c-0.1-0.4-0.4-0.8-0.4-1.2
			c-0.1-3.8-0.1-7.6-0.1-11.3C326.8,102.3,327,101.8,327.1,101.2z"/>
		<path class="st9" d="M339.9,90c-0.2,1.6-0.4,3.2-0.6,4.8c-0.1,0-0.3,0-0.4,0c0-1.7,0-3.4,0-5.1C339.3,89.8,339.6,89.9,339.9,90z"
			/>
		<path class="st10" d="M252.5,52.8c0-1.1,0-2.2,0.1-3.2c0-0.3,0.5-0.6,0.7-0.9c0,1,0.1,2-0.1,3C253.1,52.1,252.7,52.4,252.5,52.8z"
			/>
		<path class="st11" d="M496.9,105.7c-1.4,0-2.8,0-4.2,0c0.3-0.3,0.7-0.8,1-0.7C494.9,105,495.9,105.4,496.9,105.7z"/>
		<path class="st12" d="M326.2,94.6c0.3,0.4,0.6,0.8,0.8,1.3c0.1,0.6,0,1.2,0,1.7c-0.3-0.3-0.7-0.6-0.7-0.9
			C326.2,96.1,326.2,95.4,326.2,94.6z"/>
		<path class="st13" d="M382.1,569.9c0,0.6,0.1,1.2,0,1.7c-0.1,0.3-0.5,0.6-0.7,0.8C381.5,571.5,380.6,570.4,382.1,569.9z"/>
		<path class="st2" d="M366.2,436.1c0.1,0.1,0.3,0.2,0.4,0.3c-0.1,0.1-0.2,0.2-0.4,0.3C366.2,436.5,366.2,436.3,366.2,436.1z"/>
		<path class="st2" d="M294.9,235.9c0.1,0.1,0.2,0.2,0.2,0.2C295,236.1,294.9,236,294.9,235.9z"/>
		<path class="st14" d="M376.7,447.4c0.8,1.3-0.1,3.1,1.2,4.4c0.2,0.2,0.1,0.6,0.1,0.9c0.5,3.1,1.1,6.2,1.6,9.4
			c0.2,1.4,0.4,2.8,0.6,4.3c0.3,1.9,0.7,3.8,1,5.7c0.2,1.2,0.4,2.5,0.6,3.7c0.2,1.6,0.4,3.3,0.6,4.9c0.3,1.7,0.7,3.4,1,5.1
			c0.3,1.8,0.6,3.6,0.9,5.4c0.5,2.8,1.1,5.5,1.6,8.3c0.3,1.4,0.6,2.9,0.9,4.3c0.2,1.1,0.5,2.3,0.7,3.4c0.2,1.8,0.4,3.6,0.6,5.4
			c0.3,2.1,0.7,4.2,1,6.4c0.1,0.8,0.1,1.6,0.1,2.5c-0.1,3.7-0.3,7.5-0.4,11.2c-0.1,0-0.3,0-0.4,0c-0.1-0.3-0.2-0.5-0.2-0.8
			c0-0.7,0-1.4,0-2.1c0.1-3-0.3-5.9-1-8.8c-0.4-1.5-0.2-3.1-0.7-4.5c-0.5-1.4,0-3-1.2-4.1c-0.1-0.1,0-0.4-0.1-0.7
			c-0.4-2.7-0.7-5.4-1.2-8.1c-0.5-2.7-1.1-5.4-1.6-8.1c-0.6-2.8-1.1-5.6-1.7-8.4c-0.2-1.1-0.1-2.3-0.6-3.1c-0.9-1.4-0.2-3.1-1.2-4.3
			c-0.1-0.2,0-0.5-0.1-0.8c-0.3-1.8-0.7-3.7-1-5.5c-0.2-1.3-0.4-2.7-0.6-4c-0.2-1.6-0.3-3.3-0.6-5c-0.5-2.6-1.1-5.2-1.6-7.9
			c-0.2-1.3-0.2-2.6-0.7-3.8c-0.5-1.3-0.2-2.7-1.1-3.9c-0.6-0.7-0.5-2-0.7-3c-0.4-2-0.8-4-1.2-6c-0.3-1.2-0.6-2.4-0.8-3.6
			c-0.3-1.3-0.5-2.6-0.8-4c-0.4-2.1-0.5-4.2-1.2-6.2c-1.1-3.1-1.7-6.2-2.4-9.3c-0.8-3.4-1.7-6.8-2.8-10.2c-0.5-1.8-1.4-3.5-2.1-5.2
			c-0.5-1.5-1-3-1.5-4.5c-0.6-2-0.9-4.1-1.8-5.8c-1.2-2.2-1.7-4.6-2.3-7c-0.8-2.8-1.3-5.7-2.3-8.5c-0.8-2.1-1.2-4.3-1.8-6.5
			c0-0.2,0-0.4,0-0.5c0.1-0.2,0.1-0.3,0.2-0.5c0.1,0,0.2-0.1,0.4-0.1c0.7,1.8,1.4,3.6,2,5.4c0.7,1.9,1.2,3.9,1.9,5.8
			c0.3,0.8,0.6,1.6,0.9,2.4c0.5,1.3,1,2.6,1.5,3.9c0.7,2.1,1.4,4.3,2.2,6.4c0.5,1.4,1.5,2.7,1.6,4.1c0.1,1.6,1.1,2.7,1.4,4.1
			c0.5,2,1.2,3.9,1.8,5.9c0.5,1.4,1,2.9,1.5,4.3c0.5,1.5,1.1,3,1.6,4.6c0.5,1.7,1,3.4,1.5,5.1c0.6,2.1,1,4.4,1.8,6.4
			c0.3,0.8,0.4,1.4,0.5,2.1c0,0.7,0.6,1.3,0.8,2c0.7,2.6,1.5,5.2,2.1,7.8c0.3,1.3,0.4,2.6,0.7,3.8c0.3,1.7,0.7,3.3,1.1,5
			C376.6,447,376.7,447.2,376.7,447.4z"/>
		<path class="st15" d="M375.5,671.6c-0.2-1-0.3-2.1-0.5-3.1c-0.3-2.2-0.7-4.3-1-6.5c-0.2-1.3-0.5-2.6-0.6-3.9
			c-0.2-4.4-0.5-8.8-0.5-13.2c0-2.1,0.3-4.2,0.5-6.3c0.1-1.1,0.1-2.3,0.6-3.3c1.3-2.4,0.9-5.2,1.7-7.7c0.7-2.1,0.8-4.3,1.2-6.4
			c0.2-1.1,0.7-2.1,1-3.2c0.3-1.2,0.6-2.5,0.9-3.7c0.3-1.1,0.5-2.2,0.8-3.2c0.6-2.2,1.1-4.5,1.7-6.7c0.5-1.9,1-3.9,1.5-5.8
			c0-0.1,0.1-0.3,0.1-0.4c0.5-2.5,0.9-4.9,1.5-7.4c0.5-2.3,1.1-4.6,1.5-6.9c0.4-1.9,0.6-3.9,0.9-5.9c0.4-2.8,0.8-5.6,1.1-8.4
			c0.2-1.8,0.3-3.6,0.6-5.4c0.2-1.3,0.5-2.5,0.9-3.8c0-0.1,0.8-0.3,0.9-0.2c0.3,0.4,0.6,0.9,0.7,1.4c0.1,3.1,0.1,6.2,0,9.4
			c-0.1,2.3,0.2,4.7-0.7,6.7c-0.9,2-0.2,4.1-1.1,6c-0.5,1.2-0.5,2.6-0.7,4c-0.4,2.6-0.4,5.4-1.3,7.8c-0.8,2-0.8,4.2-1.7,6.2
			c-0.4,0.9-0.5,1.8-0.6,2.7c-0.2,1.3-0.4,2.6-0.6,3.8c-0.2,1.1-0.7,2.1-1,3.2c-0.3,1.2-0.7,2.5-0.9,3.7c-0.4,2-0.5,4.1-1.3,5.9
			c-0.7,1.7-1,3.4-1.3,5.2c-0.4,2.3-1.1,4.6-1.5,6.9c-0.4,1.8-0.6,3.5-0.9,5.3c-1.8,8.8-0.8,17.7-1.1,26.6c-0.1,2.2-0.3,4.4-0.4,6.6
			C375.8,671.6,375.6,671.6,375.5,671.6z"/>
		<path class="st16" d="M318.5,259.8c-0.5-0.9-0.9-1.8-1.4-2.7c-0.8-1.4-1.7-2.8-2.7-4.1c-0.9-1.3-1.9-2.6-2.9-3.9
			c-0.6-0.8-1.2-1.5-1.9-2.2c-0.3-0.3-0.5-0.6-0.8-0.9c-1.4-1.9-2.6-4-4.6-5.5c-1.1-0.8-1.6-2.2-2.6-3.2c-2.5-2.6-5.1-5.1-7.5-7.7
			c-1.7-1.8-3.2-3.7-4.8-5.5c-1.2-1.4-2.4-2.7-3.6-4.1c-2.1-2.5-4.2-5-5.7-8c-1-1.8-2.3-3.4-3.4-5.2c-1.6-2.6-3.2-5.2-4.3-8.1
			c-0.6-1.5-1.5-2.9-2.3-4.3c-0.4-0.8-0.8-1.7-1.1-2.6c-0.8-2.4-1.6-4.9-2.4-7.3c-0.4-1.3-0.9-2.5-1.4-3.8c0-0.2,0-0.4,0-0.5
			c-0.5-2.4-1.1-4.8-1.6-7.2c0-0.2,0-0.4,0-0.5c-0.2-1.2-0.4-2.4-0.5-3.6c0-0.3,0.1-0.7,0.4-1.1c0.2,0.7,0.5,1.4,0.7,2.2
			c0.4,1.3,0.3,2.7,1.2,3.8c0.5,0.6,0.4,1.5,0.7,2.3c1.1,3.4,2.1,6.8,3.2,10.1c0.9,2.4,2,4.8,3,7.1c0.7,1.6,1.1,3.3,1.9,4.8
			c1,2.1,2.1,4.2,3.3,6.2c0.9,1.6,2,3.2,3,4.8c0.9,1.5,1.6,3.1,2.5,4.5c1.4,2,3,3.8,4.5,5.7c1,1.2,1.9,2.4,2.9,3.7
			c0.9,1,1.7,2.1,2.6,3.1c2.1,2.3,4.2,4.5,6.4,6.7c0.4,0.4,0.9,0.6,1.3,0.8c1.7,3.6,5.2,5.6,7.6,8.7c1.2,1.5,2.4,3.1,3.6,4.7
			c0.9,1.2,1.8,2.3,2.7,3.4c2.4,3.1,4.3,6.6,5.9,10.2c0.6,1.2,0.8,2.6,1.2,3.9c0.2,0.6,0.5,1.2,0.8,1.9c0,0.2,0,0.4,0,0.5
			c-0.3,0.6-0.6,0.9-0.9,0c-0.4-1-0.8-2-1.1-3.1c-0.2-0.2-0.3-0.4-0.5-0.6c-0.4-1-0.8-2-1.1-3C318.9,260.2,318.7,260,318.5,259.8z"
			/>
		<path class="st17" d="M248.9,132.7c-1.1-0.8-2.2-1.6-3.2-2.5c-0.8-0.7-1.4-1.5-2.1-2.3c-1.5-1.7-3.2-3.3-4.6-5.2
			c-1.7-2.4-3-4.9-4.6-7.4c-1.7-2.8-3.5-5.5-5.3-8.2c-1.3-2.1-2.6-4.3-4-6.3c-1.5-2.2-3.2-4.2-4.8-6.3c-0.7-1-1.4-2-2.2-3
			c-0.6-0.8-1.3-1.5-2-2.3c-0.3-0.3-0.4-0.7-0.7-1c-0.4-0.5-0.8-0.9-1.2-1.4c-0.5-0.6-1.1-1.3-1.6-1.9c-0.2-0.3-0.5-0.5-0.8-0.8
			c-1.7-1.8-3.4-3.5-5.1-5.5c0.4,0.1,0.9,0.2,1.3,0.4c0.5,0.2,1,0.5,1.5,0.7c0.2,0.2,0.4,0.4,0.6,0.5c0.1,0.2,0,0.5,0.2,0.6
			c1,0.8,2.1,1.5,3.1,2.3c1.7,1.4,3.3,3,4.9,4.4c0.8,0.8,1.7,1.5,2.5,2.3c0.2,0.2,0.4,0.4,0.5,0.6c1.1,1.4,1.6,3.3,3.3,4.2
			c0.2,0.1,0.2,0.4,0.3,0.6c0.7,1,1.5,1.9,2.2,2.9c0.9,1.4,1.8,2.7,2.7,4.1c0.7,1,1.3,2,1.9,3.1c0.7,1.4,1.3,2.8,2,4.2
			c1.3,2.5,2.7,4.9,4,7.4c1.6,2.9,3.1,5.7,5.6,8c1.8,1.7,3.3,3.8,4.9,5.7c0.3,0.3,0.7,0.5,1,0.8c0,0,0,0,0,0
			c0.4,0.6,0.8,1.3,1.2,1.9c0.6,0.8,1.3,1.5,2,2.3c-0.2,0.1-0.3,0.3-0.5,0.4c-1.1-1.1-2.2-2.2-3.3-3.3
			C249,132.8,248.9,132.8,248.9,132.7z"/>
		<path class="st16" d="M254.2,235c1.2,0.8,1.2,2,1.5,2.9c0.6,1.9,0.8,4.1,1.8,5.8c1.4,2.4,1.9,5.1,2.9,7.6c0.8,2,1.4,4.1,2.2,6.1
			c1.3,3.1,2.6,6.1,4.1,9.1c1.5,3.1,3.1,6.1,4.7,9c0.5,1,1.3,1.9,2,2.8c0.2,0.3,0.3,0.6,0.5,1c-0.2,0.1-0.3,0.2-0.5,0.3
			c-1.1-1.3-2.1-2.6-3.2-3.9c-0.2-0.3-0.5-0.5-0.7-0.8c-1.3-1.9-2.7-3.9-4-5.9c-1.3-2.1-2.6-4.3-3.7-6.6c-0.9-1.9-1.4-3.9-2.1-5.9
			c-0.3-0.9-0.8-1.7-1.2-2.6c0-0.1-0.1-0.2-0.1-0.2c0.1-2.8-1.6-5.2-1.8-8c-0.1-1.9-1-3.8-1.5-5.7c-0.2-1-0.4-1.9-0.6-2.9
			C254.5,236.7,254.4,236,254.2,235z"/>
		<path class="st18" d="M283.8,301.2c7-0.2,13.9-0.4,20.9-0.6c0.8,0,1.6-0.1,2.3,0c2.5,0.4,4.9,0.8,7.4,1.3c0.9,0.2,1.8,0.4,2.7,0.6
			c2.5,0.4,4.7,1.3,6.8,2.7c1.4,0.9,2.8,1.7,4.1,2.6c0,0.4,0.1,0.9,0.1,1.3c-0.2,0-0.4,0-0.6,0c-1.6-1.7-3.5-2.8-5.7-3.6
			c-1.4-0.5-2.8-1.1-4.3-1.6c-0.2-0.1-0.4-0.2-0.6-0.3c-2.2-0.2-4.4-0.4-6.6-0.6c-2.6-0.2-5.2-0.4-7.8-0.5c-1,0-1.9,0.4-2.9,0.4
			c-1.3,0.1-2.6,0.1-3.8,0c-5.3-0.3-10.6-0.6-15.9-0.8c0.5-0.2,1.1-0.4,1.6-0.5C282.3,301.5,283.1,301.4,283.8,301.2z"/>
		<path class="st4" d="M249.6,131.6c-0.4-0.3-0.8-0.5-1-0.8c-1.6-1.9-3.1-4-4.9-5.7c-2.5-2.3-4-5.2-5.6-8c-1.4-2.4-2.7-4.9-4-7.4
			c-0.7-1.4-1.3-2.8-2-4.2c0.2-0.1,0.6-0.4,0.7-0.3c0.6,0.5,1.2,0.9,1.5,1.6c0.7,1.3,1.1,2.7,1.7,3.9c0.7,1.5,1.5,2.9,2.3,4.4
			c0.2,0.3,0.5,0.6,0.6,0.9c0.6,2.7,2.7,4.5,4.2,6.7c0.7,1,1.4,2.1,2.2,3.1c0.5,0.7,1.1,1.3,1.8,1.8
			C248.4,128.5,249.6,129.7,249.6,131.6z"/>
		<path class="st4" d="M227.4,98.2c-0.7-1-1.5-1.9-2.2-2.9c-0.1-0.2-0.1-0.5-0.3-0.6c-1.7-0.9-2.2-2.8-3.3-4.2
			c-0.2-0.2-0.4-0.4-0.5-0.6c-0.8-0.8-1.7-1.5-2.5-2.3c-1.6-1.5-3.3-3-4.9-4.4c-1-0.8-2.1-1.5-3.1-2.3c-0.1-0.1-0.1-0.4-0.2-0.6
			c0-0.2,0-0.4,0-0.5c0,0,0,0,0,0c1.6,0.4,3.1,1.1,3.9,2.6c0.1,0.2,0.5,0.3,0.8,0.5c1,0.9,1.9,1.9,2.9,2.8c1.2,1.2,2.4,2.3,3.6,3.5
			c0.6,0.6,1.1,1.3,1.5,1.9c0.4,0.5,0.6,1.3,1.1,1.5c2.3,0.9,2.4,3.3,3.6,4.9C227.8,97.7,227.5,98,227.4,98.2z"/>
		<path class="st19" d="M283.8,301.2c-0.7,0.2-1.5,0.3-2.2,0.5c-0.6,0.1-1.1,0.3-1.6,0.5c-1.9,0-3.8,0.1-5.6,0
			c-3.4-0.1-6.8-0.3-10.2-0.5c-1.4-0.1-2.9-0.1-4.1-0.6c-2.2-0.9-4.6-0.9-6.8-1.4c-0.1,0-0.2-0.3-0.2-0.4c0,0,0,0,0,0
			c2.3,0.3,4.7,0.7,7,1c0.7,0.1,1.4,0,2.1,0.1c1.1,0.1,2.3-0.4,3.1,0.7c0.2,0.2,0.8,0.1,1.2,0.1C272.2,301.2,278,301.2,283.8,301.2z
			"/>
		<path class="st2" d="M315.8,305.6c-0.5-0.2-0.9-0.3-1.4-0.5c0.1-0.3,0.2-0.6,0.4-0.9c0.4,0.2,0.9,0.5,1.3,0.7
			C316,305.2,315.9,305.4,315.8,305.6z"/>
		<path class="st20" d="M248.8,298.1c-0.5,0-1.1-0.1-1.8-0.2C248.1,297,248.5,297.1,248.8,298.1L248.8,298.1z"/>
		<path class="st2" d="M323.6,308.7c0.3-0.4,0.7-0.7,1-1.1c0.2,0.1,0.3,0.3,0.5,0.4c-0.3,0.4-0.7,0.7-1,1.1
			C324,309,323.8,308.9,323.6,308.7z"/>
		<path class="st2" d="M350.5,373.7c0.1-0.5,0.1-1,0.2-1.4c0.2,0,0.4,0,0.5,0.1c0,0.5-0.1,1-0.1,1.5
			C350.9,373.7,350.7,373.7,350.5,373.7z"/>
		<path class="st2" d="M310.1,304.1c-0.6,0-1.2,0-1.8,0c0-0.1,0-0.2,0-0.3c0.6,0,1.2-0.1,1.8-0.1
			C310.1,303.8,310.1,303.9,310.1,304.1z"/>
		<path class="st19" d="M250.8,298.7c0.7,0.2,1.5,0.4,2.2,0.5c0,0,0,0,0,0C252.2,299,251.5,298.9,250.8,298.7
			C250.8,298.7,250.8,298.7,250.8,298.7z"/>
		<path class="st2" d="M351.1,375.4c0-0.4-0.1-0.7-0.1-1.3c0.4,0.2,0.9,0.3,0.9,0.4c0,0.3-0.2,0.6-0.3,1
			C351.4,375.5,351.3,375.5,351.1,375.4z"/>
		<path class="st20" d="M248.8,298.1c0.6,0.2,1.3,0.4,1.9,0.6c0,0,0,0,0,0C250.1,298.5,249.5,298.3,248.8,298.1
			C248.8,298.1,248.8,298.1,248.8,298.1z"/>
		<path class="st2" d="M318,305.4c-0.2,0.2-0.4,0.5-0.7,0.7c-0.1,0-0.3-0.2-0.5-0.3c0.2-0.2,0.5-0.5,0.7-0.7
			C317.8,305.1,317.9,305.3,318,305.4z"/>
		<path class="st2" d="M352.1,376.1c0.1,0.4,0.2,0.8,0.3,1.1c-0.2,0-0.3,0.1-0.5,0.1c-0.1-0.4-0.2-0.8-0.3-1.1
			C351.7,376.2,351.9,376.2,352.1,376.1z"/>
		<path class="st2" d="M352.4,378.3c0.3,0.2,0.6,0.5,0.8,0.7c-0.1,0.1-0.2,0.2-0.3,0.4c-0.3-0.2-0.6-0.4-0.9-0.7
			C352.2,378.5,352.3,378.4,352.4,378.3z"/>
		<path class="st2" d="M326.6,309.7c0.2,0.3,0.3,0.5,0.5,0.8c-0.1,0.1-0.2,0.1-0.3,0.2c-0.2-0.3-0.3-0.5-0.5-0.8
			C326.4,309.8,326.5,309.8,326.6,309.7z"/>
		<path class="st2" d="M354.3,384c0.2,0.2,0.4,0.3,0.4,0.5c0,0.1-0.2,0.2-0.3,0.3c-0.1-0.1-0.3-0.2-0.4-0.3
			C354.1,384.4,354.2,384.2,354.3,384z"/>
		<path class="st2" d="M327.6,309.2c0.2,0,0.4,0,0.6,0c0,0,0,0,0,0c0,0.2,0,0.4,0,0.6C328,309.5,327.8,309.3,327.6,309.2z"/>
		<path class="st18" d="M328.1,309.7c0-0.2,0-0.4,0-0.6c0.2,0.1,0.3,0.2,0.5,0.3C328.5,309.5,328.3,309.6,328.1,309.7z"/>
		<path class="st2" d="M351.5,368.4c0,0.2,0,0.4,0,0.5c-0.1-0.1-0.3-0.2-0.4-0.3C351.2,368.5,351.4,368.4,351.5,368.4z"/>
		<path class="st2" d="M353.5,382.6c-0.1,0-0.2,0-0.2-0.1c0-0.1,0.1-0.1,0.1-0.2c0.1,0,0.2,0,0.2,0.1
			C353.7,382.4,353.6,382.5,353.5,382.6z"/>
		<path class="st2" d="M355.6,388.4c0,0.1-0.1,0.2-0.1,0.2c-0.1,0-0.1-0.1-0.2-0.1c0-0.1,0-0.2,0.1-0.2
			C355.4,388.3,355.5,388.3,355.6,388.4z"/>
		<path class="st2" d="M356.4,392.1c0.1,0,0.2,0.1,0.2,0.1c0,0.1-0.1,0.1-0.1,0.2c-0.1,0-0.2-0.1-0.2-0.1
			C356.3,392.3,356.4,392.2,356.4,392.1z"/>
		<path class="st2" d="M376.7,447.4c0-0.2,0-0.4,0-0.5c0.1,0.1,0.3,0.2,0.4,0.3C376.9,447.2,376.8,447.3,376.7,447.4z"/>
		<path class="st2" d="M357.1,394.4c-0.1,0-0.2,0-0.2-0.1c0-0.1,0.1-0.1,0.1-0.2c0.1,0,0.2,0,0.2,0.1
			C357.2,394.2,357.2,394.3,357.1,394.4z"/>
		<path class="st2" d="M316.1,259.7c-0.4-0.6-0.8-1.1-1.2-1.7c-0.5-0.7-1-1.5-1.6-2.2c-0.8-1-1.7-2-2.5-3c-0.5-0.7-0.7-1.7-1.9-1.7
			c-0.2,0-0.4-0.1-0.5-0.2c-0.2-1-1.2-1.5-1.6-2.2c-0.7-1.2-1.4-2-2.5-2.7c-0.6-0.4-0.9-1.3-1.4-1.9c-0.5-0.7-1.1-1.4-1.8-1.9
			c-0.8-0.6-1.7-1.1-1.7-2.3c0-0.3-0.3-0.7-0.5-0.9c-1.3-1.4-2.7-2.7-3.9-4.1c-0.6-0.8-1-1.8-1.5-2.9c0.5,0.1,1,0.1,1.2,0.4
			c1.4,1.4,2.7,2.8,4.1,4.2c0.5,0.5,1.1,1,1.6,1.6c1.3,1.4,2.5,2.9,3.8,4.4c0.6,0.7,1.3,1.4,1.9,2.1c0.5,0.6,1.1,1.3,1.6,1.9
			c1.1,1.3,2.2,2.5,3.3,3.8c1.3,1.6,2.6,3.2,3.7,5c0.8,1.3,1.3,2.9,1.9,4.3C316.4,259.4,316.3,259.5,316.1,259.7z"/>
		<path class="st2" d="M318.8,264c-0.4-1-0.9-2.1-1.4-3.2c1.3,0.4,1.3,0.4,1.7,3C319,263.9,318.9,264,318.8,264z"/>
		<path class="st2" d="M292.8,230.8c-1-0.8-1.7-1.4-2.4-2c0.1-0.1,0.2-0.2,0.2-0.3C291.6,228.9,292.8,228.9,292.8,230.8z"/>
		<path class="st2" d="M288.7,226c0.3,0.1,0.6,0.3,0.8,0.4c0,0.1-0.1,0.2-0.1,0.3c-0.3-0.1-0.6-0.2-0.8-0.3
			C288.6,226.3,288.7,226.1,288.7,226z"/>
		<path class="st2" d="M308.9,246.1c0.3,0.3,0.5,0.6,0.8,0.9C309.4,246.6,309.2,246.3,308.9,246.1z"/>
		<path class="st2" d="M265.8,185.4c0,0.3,0,0.5,0,0.8c-0.1,0-0.2,0-0.2,0c0-0.3-0.1-0.5-0.1-0.8
			C265.5,185.4,265.7,185.4,265.8,185.4z"/>
		<path class="st2" d="M210.3,79.8c0,0.2,0,0.4,0,0.5c-0.2-0.2-0.4-0.4-0.6-0.5C209.9,79.8,210.1,79.8,210.3,79.8z"/>
		<path class="st2" d="M206.9,81.3c0.1,0,0.2,0.1,0.2,0.1c0,0.1-0.1,0.1-0.1,0.2c-0.1,0-0.2-0.1-0.2-0.1
			C206.8,81.4,206.9,81.3,206.9,81.3z"/>
		<path class="st2" d="M251.5,137.4c-0.1,0-0.2,0.1-0.2,0.1c-0.1,0-0.1-0.1-0.1-0.2c0.1,0,0.2-0.1,0.2-0.1
			C251.5,137.2,251.5,137.3,251.5,137.4z"/>
		<path class="st2" d="M265.3,180.3c0,0.2,0,0.4,0,0.5c-0.1-0.1-0.3-0.2-0.4-0.3C265,180.5,265.2,180.4,265.3,180.3z"/>
		<path class="st2" d="M322.7,267c0-0.2,0-0.4,0-0.5c0.1,0.1,0.3,0.2,0.4,0.3C323,266.8,322.8,266.9,322.7,267z"/>
		<path class="st2" d="M320.2,263.4c0.2,0.2,0.3,0.4,0.5,0.6C320.5,263.8,320.3,263.6,320.2,263.4z"/>
		<path class="st2" d="M263.6,172.6c0,0.2,0,0.4,0,0.5c-0.1-0.1-0.3-0.2-0.4-0.3C263.4,172.8,263.5,172.7,263.6,172.6z"/>
		<path class="st2" d="M318.5,259.8c0.2,0.2,0.3,0.4,0.5,0.6C318.9,260.2,318.7,260,318.5,259.8z"/>
		<path class="st2" d="M248.9,132.7c0.1,0.1,0.2,0.1,0.2,0.2C249,132.8,248.9,132.8,248.9,132.7z"/>
		<path class="st2" d="M221,90c0.2,0.2,0.4,0.4,0.5,0.6C221.4,90.4,221.2,90.2,221,90z"/>
	</g>
</g>
</svg>
