<?xml version="1.0" encoding="utf-8"?>
<!-- Generator: Adobe Illustrator 22.0.1, SVG Export Plug-In . SVG Version: 6.00 Build 0)  -->
<svg version="1.1" id="Calque_1" xmlns="http://www.w3.org/2000/svg" xmlns:xlink="http://www.w3.org/1999/xlink" x="0px" y="0px"
	 viewBox="0 0 700 700" style="enable-background:new 0 0 700 700;" xml:space="preserve">
<style type="text/css">
	.st0{fill:#FFFFFF;}
	.st1{fill:#D64B39;}
	.st2{fill:#593B32;}
</style>
<path class="st0" d="M283.3,460.1l-26.1,3.7l-15.8,6.2L219,487.5L206.5,503l-4.8,14l-3,16.7l1.5,15.9l7,13.7l18.4,18.7l8.5,5.3
	c0,0-5.7-9.8-3.5-11.3s0-8.3,0-8.3s-5.6-8.6-1.8-16.2s1-6.6,7.5-14.6s18-10.5,18-10.5l66.2-2.8L295,458.8L283.3,460.1z"/>
<g>
	<path class="st0" d="M323.6,176.2c-35.2-7.3-70.2-9.5-105.5-19.1c-2.3,1.1-4,2.7-6,4.1c0.6,2.4,1.2,4.9,1.7,7.3
		c1.9,9.5,10.5,12,18.6,15.3c6.4,1.7,11.4,2.4,17.8,4.9c6.4,2.5,11.8,4.8,19.1,8.2c7.3,3.4,16.5,10.3,20.7,18.2
		c6.5,4.4,11.1,9.8,15.4,16.2c1.1,1.6,1.7,3.3,2.3,5.1c1-0.8,2-1.4,3.2-1.9c2.7-4,1.9-7.2-0.6-11.3c-1.5-2.5-4.2-4.7-4.4-8
		c-0.3-4.9,3.1-8.3,6.7-11.6c5.2-4.9,10.9-9.5,17.6-12.5c4.5-2,9.3-3.3,13.4-6c1.4-1,2.5-1.8,3.9-2.8
		C339.2,179.9,332.4,178,323.6,176.2z M256.8,174.8c-1,0.9-2.2-0.6-1.2-1.5C256.6,172.5,257.8,173.9,256.8,174.8z"/>
	<g>
		<path class="st0" d="M337.4,184.3c-4.2,1.9-6.2,6.6-9.5,9.6s-7.6,5.8-10.9,8.8c-5.6,5.1-13.4,11-18.7,15.2c-8,6.3-1,10.3-0.3,17.8
			c0.3,3.8-1.9,6-5,7.4c-0.1,0.1-0.2,0.1-0.3,0.2c-0.4,0.2-0.9,0.3-1.3,0.4s-0.8,0-1.1-0.4c-1.1,0-2.1-0.2-3.1-0.3
			c-2.8,3.6-5.9,6.9-9,10.3c-2,17.9-4.2,35.8-6.6,53.7c10.3,23.8,19.2,48.2,29.5,72c10.4,2.8,20.7,5.7,31.3,8
			c13-35.7,22.1-77.4,39.9-110.5C357.4,246.1,353,214.7,337.4,184.3z"/>
	</g>
</g>
<g>
	<path class="st1" d="M299,181.7c22.8,11.8,45.1,27.5,47.5,54.8c2.5,27.3-1.3,19.1,1,1.9c7.8,3.9,15.9,7.6,24,11.2
		c4.5-7.1,8.7-14.4,13.3-21.4c-2-4.8-0.5-5.1,1.3-9.9s-7.1-4-2.4-12.8c-8.9-16.4,7.2-6.8-7.8-33.4c-6.7-3.8-11.7-9.4-17.4-14.6"/>
</g>
<g>
	<g>
		<path class="st1" d="M360.4,182.6c-5.3-3.2-15.2-5.4-10.4-13.6c2.3-3.9,6.6-7.4,10.8-8.8c0.4-0.1,0.8-0.2,1.2-0.3
			c-0.1-0.2-0.3-0.4-0.4-0.7c-3.6-0.7-6.8-2.3-9-6.7c-1.8-3.6-6.3-6.9-11.5-5c-1-2.1-0.1-3.5,1.1-4.4c2.6-1.9,3-4.6,3.4-7.4
			c1.7-11.6,0.9-23.3,2.2-34.9c0.2-1.1-0.2-2.4-1.8-3.5c-2.1,8.8-4.6,17.1-8.1,25.2c-1.6,3.8-2.8,7.6-4.7,11.2
			c-1.8,3.5-4.5,5.6-8.7,3.9c-1.5-0.6-3.2-0.8-5.1-1.3c0.6-3.1,0.8-6.3-2.7-8.3c-1.3,1.6-3.3,1.8-4.8,2.3c-2.7-1.6-0.5-5.9-3.5-6.5
			c-2.2-0.5-4.9,1.3-7.2,0.9c-9.8-1.8-19.3,1-28.9,1.6c-4.2,0.3-7.8,2.9-10.1,6.8c-6.7,11.2-16.9,15-29.7,14.7
			c-6.8-0.2-13.5-1.7-20.2-1.2c-2.3,6.3-9.7,12.3-0.3,18.5c4.6-0.7,8.3,2.1,12.1,3.9c10.8,5.1,22.6,5.3,34.1,7.2
			c2.2,0.4,4.1,2.6,6.6,1.3c0.9-0.4,1.4,0.2,2,0.6l1.3,0.1c6.8-1,13.1,1.8,19.8,2.2c2.1,0,4.1,0.9,6.1,1.5c0.9,0.3,1.8,0.6,2.7,0.9
			c0.5,0.1,1,0.2,1.5,0.3s1.1,0.1,1.5,0.2c1.3-1.4,2.8-0.8,4.3-0.7c11,0.3,22,2.2,32.8-1.3c1.9-0.6,4-0.4,6.1,0.5
			c-1.1,3.5-4,3.6-6.7,4.1c-2.7,0.6-5.4,1-7.9,2.5c0.2,2.5,2.7,2.5,4,3.9c2.2-2.7,5.4-2,8.2-2.2c7.5-0.6,14.8-2.7,22.2-4.2
			c0.6,2.2,0.3,3.3-1.7,4.2c-4.9,2.3-9.9,4-15.4,4.1c-1.8,0.1-3.8,0.3-5.3,1.5c0.7,0.6,1.5,1.1,2.3,1.5c2.6-1.3,5.5-2,8.3-2.8
			c3-0.9,7-1.3,9.6-3.1C364.5,188.4,364,184.8,360.4,182.6z M286.3,145.3c-2.6,0.5-4.9,1.8-6.9,3.5c-1.3,1.1-3.2,1-4.5,0.3
			c-2.2-1.2-4.8-1.3-7.3-1.6c-0.2-1.4-0.3-2.7-0.5-4c6.3-1.8,12.4-3.2,18.8-1.7c0.9,0.3,2,0.1,2.2,1.2
			C288.3,144.4,287.4,145.1,286.3,145.3z"/>
		<path class="st1" d="M479.1,464.9c2.7-1.8,5.1,3.3,7.9,0.5c-2.8-3.6-5.9-7-8.5-10.7c-1.5-2.3-3.4-4.9-1-8c3.2,1.3,3.2,5.5,6.4,6.5
			c0.9-1.6-0.6-4.7,3-4.5c-2.4-5.1-7.3-8.2-10.3-12.9c-5.8-9.1-14.4-15-23.2-21c-3.4-2.3-6.4-5.2-10.2-7.2c-1,2-0.7,4.7-3.9,6
			c-2.4-4.4-1.3-9-1-13.4c0.7-10.5-1.1-20.3-6.1-29.5c-1.5-2.8-4-3.2-7.2-3.7c-12.4-2-18.3,6.7-24.6,14.4
			c-4.9,5.9-9.8,12.1-12.3,19.9c-2.4-1.5-2.7-3.3-1.9-5.4c4.8-11.6,11.5-22,21.4-29.9c2.5-2,1.4-3.7,0.2-5.1
			c-6.8-8.4-11.4-18.1-17-27.2c-2.2,7.8-2.5,16.1-4.9,23.6c-3.3,10.3-5.4,20.9-8.4,31.3c-2.8,9.3-4.3,19-3.8,28.9
			c0,0.7,0.3,1.6-1,2.3c-4.6-5.3-3.5-11.5-2.5-17.5c2.7-15.8,8.1-31,11.9-46.5c2.9-11.9,4.1-24.1,4.7-36.4c0.7-14,0.3-27.9-5.5-41.1
			c-0.6-1.3-0.6-2.9,0.9-3.7c1.6-0.9,1.6,0.8,2.1,1.6c1.1-0.1,2.2-0.1,3.3-0.2c-2.5-5.5-7.8-9-10.8-14.1c-1.2-1.9-3-3.6-1.8-6.3
			c6.5,0.6,6.9,6.8,9.9,10.5c1.5-0.7,3-1.3,4.5-2c-2.1-3.7-6.1-5.7-8.3-9.2c-1.8-2.8-4-5.5-2.4-9.6c2.4,1.1,2.7,3.4,3.9,5.1
			c2.3,0.1,3.8,2.2,6.2,2.3c1.5,0.1,2.3,0.4,2.4-1.4c-4.4-5.6-10.1-10.5-12-18.1c3.3-1.2,3.6,1.9,4.8,3.2c1.3,1.5,1.5,3.8,3.4,4.9
			c1.3,0,2.6-0.1,3.9-0.2c-2.6-3.5-5.4-6.9-7.8-10.7c-1.8-2.9-2.2-5.8-2.3-9.3c4.1,0.3,3.8,4.6,6.2,6.2c0.2,0.1,0.5,0.2,0.7,0.4
			c-1.6-2.9-3-5.7-6.5-7c-4.6-1.6-16.4-2.4-15.1,5.1c0.8,5,7.5,12.8,1.4,16.9c-3.7,2.5-7.9,0.5-11.4-1.3c-2.9-1.5-5.8-3.1-8.9-4.4
			c-0.5-0.2-0.9-0.4-1.4-0.5c1.3,2.7,3,5.2,3.7,8.1c-0.8-2.7,1.1-3.6,2.5-2.2c4.9,4.9,10.5,8.9,16.3,12.8c0.8,0.5,1.1,1.5,0.4,2.6
			c-2.2,1-3.9-0.6-5.7-1.7c-4.2-2.5-6.8-6.9-11.2-8.9c0,3.1-3.2,5.8-1.2,9.1c3.6,1.8,5.4,5.3,8.1,8c4.4,4.4,8.5,9.2,12.6,13.7
			c-4,1.2-5.6-4.5-9.5-4.3c-5.2-1.8-10.7-2.9-16-6.6c1.1,4.5-0.5,9.1,4.7,11.2c0.1-1.2-1.9-2.6,0.7-3.9c5.7,6.3,13.6,10.3,20.6,16.7
			c-4.1,0.5-6.4-2.2-9.3-2c-0.9,0.8-1,1.8-0.7,2.7c2.9,9.5,2.1,19.2,1.5,28.8c-0.3,5.5-2.6,11.1-4.7,16.4
			c-2.2,5.5-3.7,11.2-5.8,16.7c-2.3,6.3,1.7,11.7,2.4,17.6c0.2,1.6,1.7,3.1,0.4,5.6c-2.4-3.5-4.7-6.9-9.7-8.2
			c1.3,5.9,3.7,10.8,7.3,15.9c-4.4,1.3-5.9-4.4-10.1-3.4c0.8,4,3.6,6.9,5.3,11c-4.5,1.7-5.9-6.5-10.7-3.3c-0.5,5.4,4.6,9.5,4.4,15.1
			c-4.9,0.3-4.9-6.1-10-5.5c1.1,5.5,2.2,11,3.3,16.4c-0.6,0.1-1,0.4-1.1,0.3c-5.4-4-5.2-4-6.5,2.6c-0.7,3.3-1,6.5-0.1,9.7
			c0.3,1.2,0.2,2.5-1.4,3.8c-3.8-2.6-4.7-6.6-4.7-10.8s-1.6-7.4-5-10.1c-2.5,1.9-3.3,5.4-6.6,5.7c-2.6-1.5,2-4.9-1.7-6.2
			c-2.6-0.9-4.2,3.2-7.1,1.1c1.8-4.4,5.3-8.4,5-13.6c0-1-1.1-1.4-2.4-1.6c-2.1,3-3.7,6.7-8.4,8.8c1.2-6.7,7.4-11.1,5.1-17.9
			c-4.2,1.2-6.1,6.7-12.1,5.7c4.2-4.9,5.2-10.3,6.4-15.6c0.9-3.9,2.5-5.2,5.6-2.4c2.3-1.4,0.9-3.5,2.1-5.4c3.3,3.7,7.3,6.5,8.7,11.4
			c0.9,3.2,2.7,4.3,5.5,2.7c2.9-1.6,6.1-0.5,9.1-1.8c1-4-2-9.3,3.4-11.9c1.5,0.4,0.3,2.1,1.7,2.8c3.7-1.3,6.4-3.1,6.9-7.9
			c0.4-3,1.2-6.7,5.2-8c1.5-0.5,2.2-1.8,2.2-3.3c0.1-3.8,3.6-6.1,4-9.8c0-0.3,0.3-0.7,0.5-0.8c7.9-2.9,6-10.5,7.4-16.3
			c0.7-2.8,1.4-5.7,2-8.6c1.8-8.8-2.6-17.3-0.8-25.8c1.2-6-2-7.9-6.1-9.9c-1.7,1-3.6,2.4-1.7,4.3c4.7,4.6,3.7,10.4,4.1,16
			c0.3,4.2-0.3,7.4-5.6,7.3c0.3,4.4-1.3,8.3-0.7,12.2c-1.7,0.6-2.1-1.8-3.9-0.7c-0.3,2.9,4.2,5.1,1.4,8.5c1.5,0.1,1-1.8,2.3-1.4
			c1.4,5.3-2.7,11.2-7.6,10.6c0.1,1.1-0.2,2.8,0.3,3.1c4.4,2.4,0.9,5.3-0.5,5.7c-2.7,0.8-2.7,2.6-3,4.5c-1.8-1.5-1-3.5-1.2-4.9
			c-1.5-0.6-1,1.7-2.3,0.9c-0.2-4.4,0.6-9-3.8-11.9c-2.3,0.2-2.5,1.7-2.6,3.6c-0.2,4.8-1.4,10-4.3,13.5c-2.7,3.4-1,6.4-2.2,9.4
			c2.4,0.4,0.9-2.6,3.2-2.5c-0.2,5.8-0.5,11.4-0.8,17.2c-2.2-1.3-0.6-3.1-1.6-4.7c-4.3,7.7-6.4-3.2-10.2-0.2
			c-0.2-2.4-0.3-4.1-0.5-6.5c-4.1,2.3-3.7-2.3-5.8-3.5c-0.5,0.9,0,2-1.4,1.9c-0.4-4.7-0.5-9.7-7.2-9.8c-0.4,0-0.9-0.8-1.1-1.3
			c-1.9-5.8-6.8-10.3-7.3-16.7c-0.2-3-2-5-4.8-6c1.3,5,1.3,10.2,3.2,15.2c1.4,3.6,0.2,8.7-1.1,12.7c-0.8,2.5-5,2.2-6.9,4.4
			c-1.4-1.2-0.9-2.3-0.6-3.3c4.2-13.1,3.2-26-0.8-39c-3-10-3.6-20.2-1.2-30.5c0.2-0.6,0.7-1.6,0.5-1.7c-6.5-4.1,0.6-6.2,1.3-9.2
			c-0.3-1.8-3.7-2.7-1.8-5.3c-2.6-1.1-5.8,0.9-6.8,4.5c-3.4,12.1-3,24.6-2.7,37c0.2,14.2,2.7,28.1,5.9,41.8
			c2.3,10.1,6,19.9,9.6,29.7c2.5,6.9,3.3,14.2,5.6,21.1c1.3,4-1.1,7.9-2,11.8c-0.4,1.9-1.1,3.3,1.5,4.5c3.2,1.5,1.9,5.4,2.2,8
			c0.5,5.4,1.6,10.7,2.1,16c0.2,2.8,1.8,3.4,4.1,3c3.2-0.5,6.4-1.1,9.7-1.1c3.3-0.1,2.2-2.5,2-4.5c-0.6-7,0.2-13.9,1.4-20.8
			c0.2-0.8,0.7-1.5,1.9-1.6c1.4,1.6,1.7,3.6,1.7,5.8v16.4c0,2,0.1,3.5,2.9,3.7c6,0.3,12-1.8,18.1-0.2c2.1,0.5,2.5-1.7,2.5-3.6v-21.3
			c0-1.7,0.1-3.4,2.6-5.1c2.2,10.4,5.2,20.1,5.8,30.8c4.5,1.9,10.1,0.9,15.2,3.3c2.6-7.6-0.5-15.9,4.6-22.3
			c2.2,6.3-0.3,12.4,0.1,18.6c0.4,6.9,0.8,5.4,7.2,8.3c8.7,3.9,17.3,1.6,25.8,2.8c7,1,12.2-3,16.9-6.4c8.5-6.2,15-14.4,17.7-25.1
			c0.8-3.4,3.2-6.6,7.3-9c-0.9,4.9,0.8,9.5-2.5,13.3c-1,1.1-1.3,2.8-1.2,4.4c0.9,16.3-11.1,22.7-22.2,26.4c-15.7,5.2-30.7,1-46-1.3
			c-3-0.5-5.3-2.5-7.8-3.6c-3.8-1.7-8.8-1.3-13.2-1.2c-4.3,0.1-8.6,0.8-12-2.8c-0.4-0.5-1.4-0.7-2.1-0.7
			c-16.7,0.5-33.6-0.2-49.9,4.6c-4.8,1.5-9.6,3.2-14.4,5c-3.4,1.2-7.5,0.6-10.9,2.3c-0.1,1.2,0.8,1.7,1.6,2.1
			c5.4,3,17.3,0.4,20.8-4.6c2.4-3.4,4.2-2.9,7.9-1c3.5,1.9,4.1,6.8,8.5,7.2c-1-3.2-4-5.5-4.7-10c7.4,5.2,12.1,11.1,13.9,19.1
			c2,8.9,3.9,17.7,7.8,26c1,2.2,4.5,3.2,3.2,6.8c-1.5,0.1-3.2,0-4.7,1.2c2.7,3,5.6,5.9,9.4,7c4,1.2,6,4.5,9.7,6.4
			c-2,1.4-3.8-0.9-5.2,0.8c-0.4,4.5,1.1,6.3,5.4,6.2c0.6,0,1.4-0.2,1.8,0.1c7.6,5,15.7,0.5,23.6,1.3c8,0.8,16-0.4,24.1-1.2
			c13.8-1.3,26.8-5.1,39.7-9.5c10.9-3.7,20.3-10.4,29.8-16.7c8.9-5.9,16-13.8,22.7-22c0.9-1.2,1.4-2.9,3.4-2.6
			c2.1,0,4.1,1.6,6.3,0.8c-1.7-4.9-6.2-8.3-7.9-13.3c-0.7-1.9-2.6-3.8-1.1-5.5C474.7,462.9,477.1,463.9,479.1,464.9z M281.5,376.2
			c4.2-7.4,6-14.6,8.4-21.9c2.7,1.2,3,3.5,2.1,4.8C288.2,364.3,292.1,373.9,281.5,376.2z M373.4,438c-0.3-0.3-0.7-0.6-1-0.9
			c-5.1-3.7-7.6-8.7-7.3-15.1c6,3.1,5.2,9.8,7.8,14.7c0.3,0.4,0.5,0.7,0.8,1.1c0.1,0.2,0.2,0.4,0.3,0.6
			C373.8,438.2,373.6,438.1,373.4,438z"/>
		<path class="st2" d="M276.4,273.7c-2.7-1.1-5.8,0.9-6.8,4.5c-3.4,12.1-3,24.6-2.7,37c0.3,14.2,2.8,28.1,5.9,41.8
			c2.3,10.1,6,19.9,9.6,29.7c2.5,6.9,3.3,14.2,5.6,21.1c1.3,4-1.1,7.9-2,11.8c-0.4,1.9-1.1,3.2,1.5,4.5c3.2,1.5,1.9,5.4,2.2,8
			c0.5,5.4,1.7,10.6,2.1,16c0.3,2.8,1.8,3.3,4.1,3c3.2-0.5,6.4-1.1,9.7-1.1c3.3,0,2.2-2.5,2-4.5c-0.6-7,0.2-13.9,1.4-20.8
			c0.1-0.8,0.6-1.4,1.9-1.6c1.4,1.6,1.7,3.6,1.7,5.8c0,5.5,0,10.9,0,16.4c0,2,0.1,3.6,2.9,3.7c6,0.4,12-1.8,18.1-0.2
			c2.2,0.6,2.5-1.7,2.5-3.6c0-7.1,0-14.2,0-21.3c0-1.7,0.1-3.4,2.6-5.1c2.2,10.3,5.3,20.1,5.8,30.8c4.5,1.9,10.2,1,15.2,3.3
			c2.6-7.6-0.5-15.9,4.6-22.3c2.1,6.3-0.3,12.4,0.1,18.6c0.4,6.9,0.8,5.4,7.2,8.3c8.7,3.9,17.3,1.6,25.8,2.8c6.9,1,12.2-3,16.9-6.4
			c8.5-6.2,15-14.3,17.7-25.1c0.9-3.5,3.2-6.6,7.3-9c-0.9,5,0.8,9.5-2.5,13.3c-1,1.2-1.3,2.8-1.2,4.4c1,16.4-11.1,22.7-22.2,26.4
			c-15.6,5.2-30.7,1-46-1.3c-3-0.4-5.3-2.4-7.8-3.6c-3.8-1.7-8.7-1.3-13.2-1.2c-4.4,0.1-8.6,0.8-12-2.8c-0.5-0.5-1.4-0.7-2.1-0.7
			c-16.7,0.5-33.6-0.2-49.9,4.6c-4.9,1.4-9.7,3.2-14.4,5c-3.4,1.3-7.4,0.6-10.9,2.3c-11,4.2-20.1,11.4-29.7,17.8
			c-6.6,4.4-12.5,9.7-16.7,16c-3.8,5.7-6,12.7-7.6,19.8c-1.7,7.6,0.4,15.4-2.4,22.8c-0.2,0.6,0,1.7,0.4,2.2
			c6.1,8.6,7.4,19.9,16.1,27.1c8.4,6.9,16,14.7,26.6,18.6c2.6,1,6.1,0,8.2,3.2c-6.8,1.4-12.9-0.1-18.3-3.8
			c-11.6-8-22.9-16.5-30.8-28.7c-2.5-3.9-4.3-8-4.8-12.5c-0.9-8-2-16-1-24.1c1.4-10.9,5.6-20.5,12.5-29.5c6.4-8.3,14.7-14.2,22.3-21
			c6.3-5.7,14.2-9.3,22.2-12.2c2.3-0.8,4.8-1.4,6.8-3.2c-2-3.2-4-6.5-6.1-9.7c-3.4-5.2-4-11.7-7.4-16.9c-1.3-6.1-2.8-12.2-3.7-18.4
			c-0.7-5,0.3-10,0.8-15c0.3-2.4,0.7-4.9,1-7.3v0.1c0.3-1.2,0.7-2.3,1-3.5c0.9-2.1,1.8-4.2,2.8-6.2c4-8.4,7.3-17.4,16.7-21.6
			c2.2-1,2.2-3.1,1.5-5.2c-0.7-7.5-0.8-15.2-2.3-22.6c-3.2-16-2.7-31.9-0.8-47.9c0.3-2.7,1.6-5,2.3-7.5c0.9-2.2,0.6-5.5,3.1-6.4
			c5.7-1.9,8.2-6.4,10.9-11.1c1.5-0.9,1.6-3.5,4.9-2.9C284.6,263.6,279.8,268.3,276.4,273.7z M277.7,428.1
			c-1.1-3.8-0.6-7.8,1.2-10.1c3-3.8,2.7-7.9,2.7-11.8c0.1-13.1-5.3-25-9.2-37.2c-1.9-5.8-4.8-6-9.1-1.7
			c-10.9,11-14.9,25.2-15.6,39.8c-0.7,16.3,5.1,31.5,13.2,45.7c2,3.5,4.7,5.7,9.6,4c4.7-1.6,9.5-2.9,14.5-3.2c1.7-0.1,3.3-1,3.2-3.2
			c-0.2-4.3-2.3-8-4.3-11.6c-1.3-2.3-4.5-0.1-6.8-1.8c1.8-4.2,6.3-6.5,8.7-11.4C282.6,426.5,280.3,427.3,277.7,428.1z"/>
		<g>
			<path class="st2" d="M378.1,171.8c-3.1-1.9-7.7-5-10.7-7.7c-2.6-1.3-4.4-2.7-5.6-5.4c0-0.1,0-0.1-0.1-0.2
				c-0.1-0.1-0.4-0.5-0.5-0.7c-1.7-2.4-4.4-5.4-6.2-7.5c-4.3-4.9-5.5-6.6-5.2-13.4c0.4-8.5,1.8-17.8,1.7-26.8
				c-0.1-9-1.5-18.6-3.4-27.5c-5.7,8.1-12.7,14-20.9,19.6c-1.4-6-2.6-11.9-5.8-17.2c-4.3,4.9-7.3,11.1-11.4,16.2
				c-8.7,10.9-18.2,17.7-31.5,21.8c-1.3,0.4-2.7,0-4.1,0.3c-2.9,0.5-5.8,0.1-8.3,2c-3.4,2.6-5.7,6.8-8.2,10
				c-5.2,6.5-11.1,9.4-19.1,9.3c-9.8-0.2-19.6-1.8-29-1.2c-6.2,0.4-9,3.6-7.5,9.6c2.7,10.5,8.7,18.9,16.7,26.2
				c6.2,5.6,13.7,7.5,21.7,9.7c9.4,2.6,19.2,4.1,27.4,9.8c15,10.4,21.6,23,25.9,40.5c0.3,1.4,0.4,3,1.5,4.3c1.5-3.4,2.6-3.7,2.2-8.1
				c-0.5-5.8-1.3-13.6-5.6-18.8c-14.5-17.7-32.1-26.8-54.3-31.5c-8.7-1.8-16.3-5.4-21.9-12.4c-1.7-2.2-0.6-5.2-2.2-7.1
				c-5.7-6.9-3.4-11.3,0-18.6c6.9-0.4,13.3,0.9,20.2,0.9c13,0.1,21.1-4.4,29.1-14.5c2.8-3.6,5.4-6.1,9.7-6.6
				c9.8-1.2,18.6-2.7,28.4-1.8c2.2,0.2,4.8-1,6.8,0c2.7,1.3,1.9,4.7,3.8,6.7c1.8-0.5,3.4-1.1,4.8-2.4c2.5,2.6,2.9,4.9,2.5,8.4
				c1.6,0.2,3.5,1,5,1.2c4.1,0.7,6.6-0.3,8.7-3.9c2.1-3.6,3.3-8,4.9-11.8c3.3-8.4,6-16.8,8.5-25.4c1,0.8,1.7,2.2,1.6,3.4
				c-1.1,11.8-1.5,23.3-3,35.1c-0.4,2.9-1.5,5.1-3.7,7.3c-1,1-1.8,2.7-1,4.2c4.2-0.7,7.6,0,9.5,4.1c3.3,7,7.8,10.1,14.4,14.3
				c2.3,1.5,5.5,3.7,7.2,6.2c1.4,1,2.8,2,4.3,2.7s2.9,0.9,4.4,1.6C380,173.8,381.1,173.7,378.1,171.8z M323.2,107.1
				c-4.5,4.4-8.4,8.1-14.3,10.7c-2.2,1-5.6,1.3-8.1,1.8c6.8-9.3,14.9-17.4,19.8-28.1c1.7,4.5,2.6,9,2.9,13.8
				C323.5,105.9,323.6,106.7,323.2,107.1z"/>
		</g>
		<path class="st2" d="M295.8,470.1c-1-3.2-4-5.4-4.7-10c7.3,5.2,12.1,11.1,13.9,19.1c2,8.8,3.9,17.7,7.8,26
			c1.1,2.2,4.6,3.2,3.2,6.8c-1.5,0.1-3.2,0-4.7,1.2c2.7,3,5.6,5.9,9.4,7c4,1.2,6,4.5,9.7,6.4c-2,1.4-3.8-1-5.2,0.8
			c-0.5,4.5,1.1,6.4,5.4,6.2c0.6,0,1.4-0.2,1.8,0.1c7.6,5.1,15.7,0.6,23.6,1.3c8,0.8,16.1-0.4,24.1-1.2c13.8-1.3,26.8-5.2,39.7-9.5
			c10.9-3.7,20.3-10.4,29.8-16.7c8.9-6,15.9-13.8,22.7-22c1-1.2,1.4-2.9,3.4-2.6c1.2,6.1-3.3,9.7-6.3,13.9
			c-8.3,11.4-18.6,20.5-31.7,26c-8.5,3.6-17.3,6.7-26.2,9.3c-5.1,1.5-10.2,3.1-15.2,5.1c-12.7,5-25.9,2.8-38.9,3.4
			c-7.7,0.3-15.5,0.8-22.8,4c-2.4,1.1-4.2,3.9-7.4,2.6c-0.1-1.9,1.5-3.6,0.8-5.9c-2.7-0.7-5.2,0.2-7.6,1.4c-4.2,1-8.1,2.5-11.3,5.5
			c-1.5,1.4-2.8,1.9-3.9-0.3c0.8-4.3,4.1-6.3,7.4-8.1c2.4-1.3,4.9-2.6,7.8-4.2c-2.4-1.9-4.2-0.7-5.8-0.3c-1.6,0.4-3.1,1.5-4.8,0.1
			c0.5-1.1,2.2-1.2,2.5-3.4c-10.4-0.7-20.3-4.2-30.7-4.1c-4.3,0.1-8.6,0.3-12.9-0.3c-8.7-1.3-15.1,3.2-20.4,9.3
			c-1.5,1.8-3.2,2.5-5,3.6c-1.1-4.9,2.9-11.2,8.6-14.4c5.8-3.3,12.2-3.9,18.5-4.5c3.4-0.3,5.8-1,7.9-4.1c1.7-2.7,5.5-3.9,5.8-7.8
			c-1.1-1.6-3,0.9-4.6-1.2c4.1-2.2,5.8-7.3,11.5-7.7c2.4-0.2,3.6-2.6,3.8-5.1c0.2-1.9-0.3-4.2,2.1-5.3c2.9,8,6.3,15.7,14.5,19.9
			c0.8-2-0.1-3.6-1.2-5.1s-2.8-3.1-2.8-4.7c-0.3-6.6-5-11.6-5.9-17.9c-0.2-1.2-0.8-2-1.8-2.6C299.6,476.1,297.8,473,295.8,470.1z
			 M325.6,533.9c-0.4-0.1-0.8-0.3-1.1-0.2c-0.1,0-0.2,0.5-0.3,0.7c0.4,0.1,0.7,0.3,1.1,0.4C325.3,534.8,325.4,534.3,325.6,533.9z"/>
		<path class="st2" d="M351,278.3c0.1-1.2-1.9-2.6,0.7-3.9c5.7,6.3,13.6,10.3,20.6,16.7c-4.2,0.5-6.5-2.2-9.3-2
			c-0.9,0.8-1,1.8-0.7,2.7c2.9,9.5,2.1,19.2,1.5,28.8c-0.3,5.6-2.6,11.2-4.7,16.4c-2.2,5.5-3.8,11.2-5.8,16.7
			c-2.4,6.3,1.7,11.7,2.4,17.6c0.2,1.7,1.7,3.1,0.4,5.6c-2.4-3.6-4.7-7-9.7-8.2c1.3,5.9,3.7,10.8,7.3,15.9
			c-4.4,1.3-5.9-4.4-10.1-3.4c0.8,4,3.6,6.9,5.3,11c-4.5,1.6-5.9-6.5-10.7-3.3c-0.5,5.4,4.6,9.5,4.4,15.1c-4.8,0.3-4.9-6.2-10-5.5
			c1.1,5.5,2.2,11,3.3,16.4c-0.5,0.2-0.9,0.4-1.1,0.3c-5.4-3.9-5.3-3.9-6.5,2.6c-0.6,3.3-0.9,6.4-0.1,9.7c0.3,1.3,0.2,2.5-1.4,3.8
			c-3.8-2.6-4.6-6.6-4.7-10.8c0-4.2-1.6-7.4-5-10.1c-2.5,1.9-3.3,5.3-6.6,5.7c-2.6-1.5,2-5-1.7-6.2c-2.6-0.9-4.2,3.2-7.1,1.1
			c1.8-4.4,5.3-8.4,5-13.6c-0.1-1-1.1-1.4-2.4-1.6c-2.1,3-3.8,6.7-8.4,8.8c1.2-6.7,7.4-11.1,5.1-17.9c-4.2,1.2-6.1,6.7-12.1,5.7
			c4.1-4.9,5.2-10.3,6.4-15.6c0.9-4,2.5-5.3,5.6-2.4c2.4-1.4,0.9-3.5,2.1-5.4c3.3,3.6,7.4,6.4,8.7,11.4c0.9,3.1,2.6,4.3,5.5,2.7
			c2.8-1.6,6.1-0.5,9.1-1.8c0.9-4-2.1-9.2,3.4-11.9c1.5,0.4,0.3,2.1,1.7,2.8c3.7-1.3,6.3-3.2,6.9-7.9c0.3-3,1.2-6.8,5.2-8
			c1.5-0.5,2.2-1.8,2.2-3.3c0.1-3.8,3.6-6.2,4-9.8c0-0.3,0.3-0.7,0.5-0.8c7.9-2.9,5.9-10.5,7.4-16.3c0.7-2.8,1.4-5.7,2-8.6
			c1.9-8.7-2.5-17.3-0.8-25.8c1.3-6-1.9-7.9-6.1-9.9C352.1,280.5,351.5,279.4,351,278.3z"/>
		<path class="st2" d="M487,448.7c-2.5-5.1-7.3-8.2-10.3-12.9c-5.8-9.1-14.5-15.1-23.2-21c-3.4-2.3-6.4-5.2-10.2-7.2
			c-1,2-0.7,4.7-3.9,6c-2.4-4.3-1.3-9-1-13.4c0.7-10.5-1.1-20.3-6.1-29.5c-1.5-2.8-4-3.2-7.2-3.7c-12.5-2-18.3,6.8-24.6,14.4
			c-4.9,5.9-9.7,12.1-12.3,19.9c-2.4-1.6-2.7-3.4-1.9-5.4c4.8-11.6,11.4-22,21.4-29.9c2.5-2,1.3-3.7,0.2-5.1
			c-6.8-8.4-11.4-18.1-17-27.2c-2.2,7.8-2.6,16.1-4.9,23.6c-3.2,10.3-5.3,20.9-8.4,31.3c-2.7,9.4-4.3,19.1-3.8,28.9
			c0,0.7,0.3,1.5-1,2.3c-4.6-5.3-3.5-11.5-2.5-17.5c2.7-15.8,8.1-30.9,11.9-46.5c2.9-11.9,4.1-24.2,4.7-36.4
			c0.7-14,0.3-27.9-5.5-41.1c-0.6-1.3-0.6-2.9,0.9-3.7c1.6-0.9,1.6,0.8,2.1,1.6c3.3,9.5,7.7,18.7,7.9,29c0,1.8,0.3,3.6,0.1,5.5
			c-1.1,8.6,1.3,16.3,5.7,23.5c-1.8,2.1-0.3,3.8,0.7,5.5c4.2,7.6,8.5,15.1,12.7,22.7c5-0.8,10.1-0.8,15.1-0.3c4,0.4,7.4,2.8,10,5.9
			c4.8,8.2,5.7,17.3,6.1,26.4c0.2,4.3,1,7.3,5.1,9c0.8,0.3,1.6,1,2.3,1.5c12.2,9.3,24.3,18.7,33.3,31.4c3.5,5,9.4,7.5,13.6,12.1
			C493.7,452.1,490.3,449.8,487,448.7z"/>
		<path class="st2" d="M283.8,330.5c1.3,5,1.3,10.2,3.2,15.2c1.4,3.6,0.2,8.7-1.1,12.7c-0.8,2.5-5,2.3-6.9,4.4
			c-1.3-1.2-0.9-2.3-0.6-3.3c4.2-13.1,3.2-26-0.8-39c-3.1-10-3.7-20.2-1.2-30.5c0.1-0.6,0.6-1.6,0.5-1.7c-6.4-4.1,0.6-6.2,1.3-9.2
			c2.6-0.7,2.7-4.8,6.4-4.5c-0.2,4.9-3.5,8.1-5.6,10.5C279,301,278.6,316.1,283.8,330.5z"/>
		<path class="st1" d="M247.3,432.3c3.4,5.2,4,11.7,7.4,16.9c2.1,3.2,4.1,6.5,6.1,9.7c-2.1,1.8-4.5,2.4-6.8,3.2
			c-3.9-7.5-9.3-14.6-7.5-23.9c0.2-1.2-0.8-1.9-1.3-2.8C244.1,433.4,244.9,432.2,247.3,432.3z"/>
		<path class="st2" d="M321.7,200.6c1.7-0.8,2.9,0.4,4.3,1.1c9.9,4.8,19,11.1,30.4,12.3c1.9,0.2,3.7,1.2,5.4,3
			c-2.4,2.8-5.2,1.6-7.8,1c-2.7-0.7-5.4-1.4-8.2-1c-5-3-9.9-5.9-14.9-8.8C327.3,206,324,204,321.7,200.6z"/>
		<path class="st1" d="M299.8,479.8c1,0.6,1.7,1.4,1.8,2.6c0.9,6.3,5.6,11.3,5.9,17.9c0.1,1.6,1.7,3.2,2.8,4.7
			c1.1,1.6,2,3.1,1.2,5.1c-8.3-4.1-11.6-11.9-14.5-19.9c0.9-2.4,2.3-4.6,1.1-7.5C297.5,481.5,298.6,480.4,299.8,479.8z"/>
		<path class="st1" d="M280.6,259.6c-2.7,4.6-5.2,9.2-10.9,11.1c-2.5,0.8-2.2,4.2-3.1,6.4c-1.2-0.6-2.7-0.9-2-2.9
			c1.7-4.7,3.4-9.4,5.2-14.1c0.6-1.7,2-2.6,3.9-2.7c2.6,0.6,4.1-3.2,6.9-1.8C280.6,256.8,280.6,258.2,280.6,259.6z"/>
		<path class="st1" d="M411.3,362.4c-4.2-7.6-8.5-15.1-12.7-22.7c-1-1.7-2.4-3.4-0.7-5.5c5.7,1.2,8,5.2,9.7,10.4
			C409.4,350.4,413,355.8,411.3,362.4z"/>
		<path class="st1" d="M309.9,535.3c1.6,1.3,3.2,0.3,4.8-0.1c1.6-0.4,3.4-1.6,5.8,0.3c-2.9,1.5-5.3,2.8-7.8,4.2
			c-3.4,1.9-6.7,3.8-7.4,8.1c-2.4,1.9-5.5,2.6-7.6,5C294.8,547.3,300,540.1,309.9,535.3z"/>
		<path class="st2" d="M340.9,223.2c3.4-0.4,5.2,2.2,7.5,3.9c6,4.6,12.7,8,19.2,11.9c-1,2-2,2.6-4.1,1.9c-5.2-1.6-10-3.8-14.1-7.4
			c-1.4-1.2-2.9-2.3-4.9-2.5c-0.3-0.5-0.7-1.1-1-1.6c-0.3-1.2-1.4-1.4-2.2-1.9C340.1,226.2,340.7,224.7,340.9,223.2z"/>
		<path class="st1" d="M267.4,355c0.7,2.1,0.7,4.2-1.5,5.2c-9.4,4.3-12.7,13.3-16.7,21.6c-1,2.1-1.9,4.2-2.8,6.2
			c-1.6-3.5,0.6-6.1,1.5-9.3c1.8-6.1,5.5-10.7,9.1-15.6c1.9-2.6,4.3-4.8,6.6-7.1C264.6,355.1,265.9,354.6,267.4,355z"/>
		<path class="st2" d="M482.1,483.7c-1.7-5-6.2-8.3-7.9-13.3c-0.6-1.9-2.6-3.7-1.1-5.5c1.6-1.9,4-0.9,5.9,0.1c-0.4,5.7,3.3,9.7,6,14
			c1.6,2.6,3.8,5,5,8.5C486.4,487.3,485,483.9,482.1,483.7z"/>
		<path class="st2" d="M220.9,551.6c4.2,10.7,12.3,17.4,21.2,23.4c-12.3-1.1-17.5-10.4-22.7-19.6C218.7,554.2,219,553.7,220.9,551.6
			z"/>
		<path class="st1" d="M450,404.9c-0.8-0.5-1.5-1.2-2.3-1.5c-4.2-1.7-5-4.7-5.1-9c-0.3-9.1-1.3-18.3-6.1-26.4c3,0.7,4.3,3,4.7,5.6
			c1.4,9.8,4.5,19.1,8.4,28.2C450,402.7,449.9,403.9,450,404.9z"/>
		<path class="st2" d="M387.6,275.9c-2.5-5.5-7.7-9-10.8-14.1c-1.2-1.9-3-3.6-1.8-6.3c6.5,0.6,6.9,6.8,9.9,10.5
			c3,3.4,5.6,7.1,7.9,10.9c-1.6,1.1-2.4,0.4-3.2,0C389.3,276,388.6,275.6,387.6,275.9L387.6,275.9z"/>
		<path class="st2" d="M351.2,256.2c3.5,1.8,5.4,5.4,8.1,8c4.4,4.4,8.5,9.2,12.6,13.7c-4,1.3-5.6-4.4-9.5-4.3
			c-1.5-3.8-4.7-6.2-7.6-8.8C352,262.5,350.3,260,351.2,256.2z"/>
		<path class="st2" d="M244.9,585.4c-4.8,2.2-18.4-7-21.6-15.3C231,574.2,237.9,579.7,244.9,585.4z"/>
		<path class="st1" d="M320.6,542.6c2.4-1.2,4.9-2,7.6-1.4c0.7,2.3-0.9,3.9-0.8,5.9c-2.7,2.5-6.7,3.1-9,6.3c-1.9-1.3-3.2-2.2-1-4.4
			C319.1,547.4,320.6,545.3,320.6,542.6z"/>
		<path class="st2" d="M350,244.3c-0.8-2.7,1.1-3.6,2.5-2.2c4.9,5,10.5,9,16.3,12.8c0.8,0.5,1.1,1.5,0.4,2.6
			c-2.3,1.1-3.9-0.6-5.7-1.7c-4.2-2.4-6.7-6.8-11.2-8.9C350.8,246.8,351,245,350,244.3z"/>
		<path class="st2" d="M237.9,563.4c-9.2-3.6-15.2-18.7-10.8-27.6C228.7,546.2,230.6,555.9,237.9,563.4z"/>
		<path class="st2" d="M236.1,552.4c-4.7-6-3.3-19,1.7-23.8c1-1,2.1-0.9,2.9-0.3c1,0.9,0.9,2.5,0.1,3.4
			C235.7,537.5,234.7,544.2,236.1,552.4z"/>
		<path class="st2" d="M487,465.4c-2.8-3.6-5.8-7-8.3-10.8c-1.5-2.3-3.4-4.9-1-8c3.2,1.3,3.2,5.5,6.4,6.5c1.6,2.9,2.9,6,4.8,8.8
			C490.7,464.7,488.8,464.9,487,465.4z"/>
		<path class="st2" d="M391.4,240.9c-2.6-3.6-5.4-7-7.8-10.7c-1.8-2.9-2.2-5.9-2.3-9.3c4.1,0.4,3.8,4.6,6.2,6.2
			c-0.3,3.5,2.8,5.3,4,8.1c0.7,1.7,1.8,3.2,1.8,5.1C393.3,241.9,392.2,241.2,391.4,240.9z"/>
		<path class="st2" d="M280.4,242.2c3.2-6.3,10.3-9.9,11.1-17.5c3,0,2.8,1.9,2.3,3.2C291.4,234.5,287.9,240.1,280.4,242.2z"/>
		<path class="st2" d="M307.5,191.1c6.7-1.5,13.3,1,19.9,0.8c2.1,0,4.1,0.7,6.2,1C324.7,195.2,316,194.6,307.5,191.1z"/>
		<path class="st2" d="M389.5,264c-2.1-3.7-6.1-5.7-8.3-9.2c-1.8-2.8-3.9-5.5-2.4-9.6c2.5,1.1,2.8,3.5,3.9,5.1
			c2.6,5.2,7.6,8.9,9,14.8C390.6,265.5,389.9,265,389.5,264z"/>
		<path class="st2" d="M391.3,251.3c-4.4-5.7-10-10.5-12-18.1c3.3-1.2,3.5,1.8,4.8,3.2c1.4,1.5,1.5,3.8,3.4,4.9
			c1.1,2.8,2.9,5.1,4.7,7.4C393.4,250.2,393.3,250.4,391.3,251.3z"/>
		<path class="st2" d="M280.6,255.5c-2.8-1.3-4.3,2.4-6.9,1.8c2-4.4,5.8-7,9.4-9.9c1.1,0.1,2.2,0.1,3.3,0.2
			C285.3,250.9,282.5,252.8,280.6,255.5z"/>
		<path class="st1" d="M286.4,247.6c-1.1-0.1-2.2-0.1-3.3-0.2c0.9-2.7,2.4-4.5,5.7-3.7C288.8,245.7,288.7,247.3,286.4,247.6z"/>
		<path class="st1" d="M335.1,334.8c2.3-1.9,5.7,1.9,6.4-3.2c1.5,2.3,1.4,3.9-0.2,4.6C339.3,337.1,337,337.4,335.1,334.8z"/>
		<path class="st1" d="M341.3,227.6c0.8,0.5,1.9,0.7,2.2,1.9c-0.7,0.5-1.5,0.9-2.2,1.5C340.6,230.1,341,228.8,341.3,227.6z"/>
		<path class="st1" d="M339.9,343.6c-0.4,0.5-0.6,0.8-0.9,1.1c-0.3-0.3-0.8-0.6-0.8-0.9s0.4-0.7,0.6-1
			C339.1,343.1,339.5,343.3,339.9,343.6z"/>
		<path class="st2" d="M300.2,168.8c0.9,0.3,0.9,1.1,1.1,1.8C300.3,170.4,300.2,169.7,300.2,168.8z"/>
		<path class="st1" d="M352.7,304c0,0,0,0.8,0.1,1.9C351.5,304.9,352.7,303.9,352.7,304z"/>
		<path class="st2" d="M320.1,194.3c0.3,0.4,0.6,0.8,0.9,1.2C320.5,195.3,319.6,195.3,320.1,194.3z"/>
		<path class="st1" d="M387.6,275.9c1-0.3,1.7,0.1,2.2,1C388.8,277.1,387.9,277.1,387.6,275.9z"/>
		<path class="st1" d="M330.5,335.8c0.1-0.1,0.3-0.3,0.4-0.4c0,0.1,0,0.2-0.1,0.3C330.7,335.7,330.6,335.8,330.5,335.8L330.5,335.8z
			"/>
		<polygon class="st1" points="245.4,391.6 245.4,391.5 245,391.5 		"/>
		<path class="st2" d="M267.6,147.5c-0.1-1.5-0.3-2.7-0.5-3.9c6.3-1.7,12.5-3.1,18.8-1.7c0.9,0.3,1.9,0,2.2,1.2
			c0.3,1.4-0.6,2-1.7,2.3c-2.6,0.5-4.9,1.8-6.9,3.5c-1.3,1.1-3.2,1-4.5,0.3C272.6,148,270.2,147.9,267.6,147.5z"/>
		<path class="st2" d="M281.5,376.2c4.2-7.5,6-14.7,8.3-21.9c2.7,1.2,3.1,3.5,2.1,4.8C288.2,364.3,292.1,373.9,281.5,376.2z"/>
		<path class="st2" d="M372.4,437.2c-5.1-3.7-7.6-8.7-7.3-15.1c6,3.1,5.2,9.8,7.8,14.7C372.7,436.8,372.5,437,372.4,437.2z"/>
		<path class="st2" d="M372.8,436.7c0.3,0.4,0.5,0.7,0.8,1.1l-0.2,0.2c-0.3-0.3-0.7-0.6-1-0.9C372.5,437,372.7,436.8,372.8,436.7z"
			/>
		<path class="st2" d="M373.7,437.8c0.1,0.2,0.2,0.4,0.3,0.6c-0.2-0.1-0.4-0.2-0.6-0.4L373.7,437.8z"/>
		<path class="st1" d="M277.7,428.1c2.7-0.9,5-1.6,8.1-2.6c-2.5,4.9-6.9,7.2-8.7,11.4c2.4,1.7,5.5-0.5,6.8,1.8
			c2,3.6,4.1,7.3,4.3,11.6c0.1,2.3-1.4,3.2-3.2,3.2c-5,0.2-9.9,1.6-14.5,3.2c-4.8,1.7-7.6-0.5-9.6-4c-8.1-14.2-13.9-29.4-13.2-45.7
			c0.7-14.5,4.7-28.7,15.6-39.8c4.3-4.4,7.2-4.1,9.1,1.7c3.9,12.2,9.2,24.1,9.2,37.2c0,3.9,0.3,8-2.7,11.8
			C277,420.3,276.6,424.3,277.7,428.1z"/>
		<path class="st1" d="M320.6,91.5c2,4.7,2.6,9.2,2.9,13.9c0,0.6,0.1,1.4-0.2,1.8c-4.3,4.2-8.7,8.5-14.3,10.7
			c-2.1,0.8-4.7,1.2-8.3,1.8C307.6,109.7,316.5,102.3,320.6,91.5z"/>
		<path class="st1" d="M325.6,533.9c-0.2,0.4-0.3,0.9-0.4,0.9c-0.4-0.1-0.7-0.3-1.1-0.4c0.1-0.3,0.2-0.7,0.3-0.7
			C324.9,533.6,325.2,533.8,325.6,533.9z"/>
		<path class="st2" d="M391.3,223c-3.3-2.9-6.8-5.6-10-8.7c-2.4-2.4-3.5-5.3-4.3-8.6c4.1-0.5,4.7,3.6,7.4,4.7c0.5,3.5,3.9,4.5,5.7,7
			c1.1,1.5,2.5,2.7,2.9,4.6C393.3,223.6,392.1,223.1,391.3,223z"/>
		<path class="st2" d="M389.5,207.2c-6.1-3.8-13-6.4-17.6-12.8c2.7-2.3,3.9,0.5,5.6,1.3c1.8,0.9,2.7,3,4.9,3.4c2,2.2,4.5,3.8,7,5.3
			C391.1,205.4,391.1,205.7,389.5,207.2z"/>
		<path class="st2" d="M385.1,192.4c-6.1-3.8-13-6.4-17.6-12.8c2.7-2.3,3.9,0.5,5.6,1.3c1.8,0.9,2.7,3,4.9,3.4c2,2.2,4.5,3.8,7,5.3
			C386.7,190.7,386.7,190.9,385.1,192.4z"/>
	</g>
</g>
</svg>
